<svg xmlns="http://www.w3.org/2000/svg" version="1.1" id="Слой_1" x="0" y="0" xml:space="preserve" width="143.624" height="34.344"><style type="text/css" id="style2">.st0,.st1{fill:#8a8b8b}.st1{fill-rule:evenodd;clip-rule:evenodd}</style><g id="g32" transform="translate(-10.396 -10.406)"><path class="st0" d="M71.82 20.21l-.36.3c.06.08.17.22.33.43l-1.15.73h-.12c-.1 0-.23-.03-.4-.09l-.36.3-.52-.06-.55.46-.52-.3-.64.18-.61.36a.334.334 0 00-.15-.03c-.16 0-.25.05-.27.15l-.24 1V24c0 .14-.01.29-.03.46l-.03.24.06.06c0 .35-.06.65-.18.91.09.28.15.51.18.67l-.27.21.09 1.09-.27 1.58-.03.3c.04.24.06.41.06.49v.15l.15.3v.55c-.02.1-.07.25-.15.46-.02.69-.52 1.05-1.51 1.09l-.06-.67-.25-.4-.18-.55v-1.06l-.18-.64.09-.06-.09-.46v-.76l.09-1.19v-1.06l.09-.61v-.7c0-.14.03-.33.09-.58.06-.24.09-.43.09-.55 0-.2-.06-.4-.18-.58l-.06-.09-.09.06-.4-.12c-.36.1-.71.15-1.03.15-.22 0-.39-.01-.49-.03l-1.31.4-1.4-.15a8.18 8.18 0 00-.76-.06c-.26 0-.63.07-1.09.21h-.12l-.7.3-.49-.33-.76.15-.09-.06-.12.06-.61-.03-.06.24-.85-.33c-.35.04-.6.07-.76.09v1.4l-.09.7.09.58-.18.46.18.43-.18 1.31.18.4-.12.73.27.61-.15.27.09.37c-.02.44-.27.67-.76.67-.83 0-1.25-.75-1.25-2.25l-.43-.52-.15-.36c0-.26.06-.49.18-.67l.06-.52-.09-.3-.15-2.37v-.64l-.06-.09-.61-.33-.09-1.49.85-.49c.1-.32.15-.73.15-1.22 0-.47-.05-.86-.15-1.19l.18.09-.03-.43.18-.64-.18-1.06v-.7l.21-1.06 1.19-.64.58.42.63.24.09.67.27.39c-.1.28-.19.58-.27.88.06.32.09.67.09 1.03 0 .57-.07 1.12-.21 1.66l.27.58-.3.42v.36l.27.09h1.25l.82-.09.24.09h1.21c.02 0 .18-.01.47-.03.29-.02.59-.03.9-.03l.49-.25.46.25.46.03.15.03h.55l3.22-.36.46.03.15-.09-.22-.52.21-.46-.21-1.25.21-.4-.55-1.46-.06-.22-.12-.15c.02-.04.06-.13.12-.28l.06-.12v-.12c0-.16.16-.32.47-.46l.29-.86.82.16.35.23.82-.18v.43l.46-.09v1.43l-.15.24.24.61v.4l.15.49-.24.58.09.4-.15 1.4v.21l.64-.03 1.19-.27.58.06.36-.06h.67c.16-.08.33-.12.52-.12.12 0 .27.04.46.12h.77z" id="path4"/><path class="st0" d="M110.21 17.29l-.12.73-.33.36-.24.61-.36.33-.36.58c-.1.1-.15.26-.15.49l-.12.24c-.08.26-.27.52-.58.76-.12.51-.42.9-.88 1.19l-.21.3-.73.73-.43.88-.61.67-.36.64-.3.24-.27.4-1.09 1.22-.52.82-.58.43-.03.21-.27.36.12.94-.27.58c-.35.28-.65.43-.91.43-.2 0-.39-.04-.55-.12.08.14.14.25.18.33-.2-.24-.62-.9-1.25-1.98l-.24-.58-.46-.58-.24-.52-.33-.85-.36-.61-.03-.61-.43-1.03-.73-1.22-.82-1.22-.3-.79-.4-.24-.46-.82-.24-.18-.52-.82c-.16-.16-.28-.33-.36-.52-.49-.28-.94-.68-1.37-1.19l-.09-.61.12-.52.27-.46.49-.15h.43c.26 0 .53.06.79.18l.21.24.15-.06.09.18.12.03.09.12.21.46.3.24.43.64c.12.1.3.35.55.76l.27.24.09.24.3.24.06.43.52.85.06.24.27.43c.28.26.46.57.52.91l-.06.09.12.03c.06.22.16.41.3.55l.24.52.21.58.55.88-.06.33.21.24.36 1.06c.06.2.2.48.43.82.12-.1.26-.24.43-.43l.4-.21.4-.46c.18-.2.41-.53.7-.97l.21-.15v-.12l.37-.09.03-.18c.1-.16.22-.39.37-.7l.4-.39.19-.47.34-.39.34-.55.43-.36.46-.49c.08-.04.17-.28.28-.73l.15-.15.09-.3.37-.21-.06-.43.21-.24v-.43l.33-.3.15-.36.18-.24.15-.79.24-.39v-.43c.16-.22.36-.38.61-.49l.73-.3.12.03c.44 0 .77.15.97.46.22.1.33.27.33.52v.18c.01.1.02.18.04.24" id="path6"/><path class="st0" d="M130.12 20.79c0 .47-.14.89-.43 1.28-.55.22-1 .33-1.37.33-.08 0-.19-.02-.33-.06-.14-.04-.23-.06-.27-.06l-.79.4-.73-.06-.43.15-.21-.06-.55.3-.46-.12h-1.31.12l-.55.15h-.09l-.21.21-.43-.15-.24.15-.67-.21-.4.21c-.49-.12-.77-.18-.85-.18-.22 0-.5.07-.82.21l-1.37.12-.12-.15-.52.13-.03.18.27 1.52-.07.15.09.3v.39c.1.3.17.61.21.91l.36.36-.06.18.61.76c.63.45 1.1.67 1.43.67h.06c.04 0 .09-.01.15-.03h.12c.08 0 .19.03.33.09l.27-.03c.26-.06.64-.13 1.12-.21l.33-.18.06-.12.21-.03.24-.15.15.09.49-.15.4-.24.15-.21.52-.4.4-.06.73-.55c.51-.08.87-.49 1.09-1.22l.09.03.03-.09.4-.03.58-.49.21-.03c.06-.02.13-.03.21-.03.38 0 .62.38.7 1.13l-1.34 1.58-.33.09-.12.18-.58.61-.82.49-.67.64-.21-.03-.24.24-1.37.52-.55.61-.4-.15-.15.27-.27-.09-.13.15-1-.18-1.03.43-1.03-.33-1.31-.61c-1.11-.53-1.98-1.99-2.58-4.38v-.33l-.24-.7.24-.3-.15-.85-.03-.27-.52-.58v-.36c0-.59.16-.99.49-1.22.06-.16.17-.31.33-.46l-.12-.09v-1.28l.37-.97.09-.49-.3.03h-.12c-.28 0-.53-.1-.73-.29-.2-.19-.3-.42-.3-.68 0-.3.19-.65.58-1.03l.21-.21.27-.12c.32-.14.58-.21.76-.21h.57l.3-.52 1.37.09.09.09c.18-.03.46-.05.82-.05l.61-.13h.15c.26-.08.52-.24.76-.49l.46.27h.76l3.04-.27.3.18.43-.11.24-.29.61.4.21-.18.67.27.46-.09.24.09.97-.09.21.15.49.09c.47.08.7.3.7.67 0 .24-.09.46-.26.64s-.35.27-.53.27h-.12l-.33.18-.61-.18-.27.03a.78.78 0 01-.24.03c-.2 0-.39-.04-.55-.12l-.09-.12c-.2.04-.33.06-.4.06-.08 0-.18-.02-.3-.06-.2.14-.58.26-1.12.36-.28 0-.6-.01-.94-.03 0-.02.04-.09.12-.21l-.79.24h-.06c-.14 0-.41.14-.79.43l-.4-.18-.18.12-.73-.21-.43.21h-.61l-.91.18-.76.33-.21-.12-.4.27h-.4l-.09.15.09.36-.52.61.24.03v.85l.33.37-.27.24c-.2.34-.3.58-.3.7 0 .08.06.14.18.18l.37-.12c.1-.02.2-.03.3-.03.3.04.53.08.67.12l.55-.21.49.09h1.49c.08 0 .24-.07.49-.21.16.08.39.12.7.12.04 0 .11-.01.21-.03h.3c-.04 0-.08-.01-.12-.03h.09c.12 0 .49.05 1.09.15.06-.03.38-.07.94-.1.32-.03.53-.05.61-.05.3 0 .6.01.88.03l.27-.03c.28-.16.55-.24.79-.24.18 0 .36.03.55.09l.43-.09.36.15 1.22-.3v.27z" id="path8"/><path class="st0" d="M153.22 31.22c-.02.51-.35.86-1 1.06l-1.15-.55h-.33l-.4-.3h-.49l-.36-.61-.3-.15-.4-.7-.55-.58v-.24l-.24-.21-.06-.49-.4-.36-.64-1.43-.27-.33-.12-.85-.4-.52-.64-.09-.7.4-.15-.15-.49.3-.15-.33c-.1.02-.25.03-.46.03-.22 0-.39-.01-.49-.03h-.24l-.64.33-.7-.09h-.12l-.49.27-.4-.15c-.38 0-.67-.04-.85-.12h-.15l-.79.36-.3-.33-.55-.15-.12.09c-.45.59-.77 1-.97 1.25l-.49.12c-.77 1.12-1.26 1.71-1.46 1.79l-.12.03-.97 1.19h-.12l-.61.94-1.15.64c-.2.04-.36.06-.49.06-.38 0-.75-.14-1.09-.43l.36-.76v-.46l.12-.15.06-.61.94-.12.24-.15c.24-.14.38-.35.43-.64.37-.1.59-.3.67-.61.55-.28.9-.73 1.06-1.34l.52-.18.76-1.13c-.16-.22-.28-.51-.36-.85l.64-.52v-.58l1.19.09.3-.15c.1-.34.3-.59.61-.73l.06-.58.64-.33c.06-.04.17-.09.33-.15v-.18c0-.18.04-.34.12-.49.43-.3.65-.72.67-1.25l.43-.09.15-.27.21-.03.58-1.09h.15l.24-.11v-.77h.21c.51-.55.76-.9.76-1.06l.15-.12-.15-.46c.49-.59.88-.89 1.19-.91l.58-.49.67.67.85.46.09.79c.1.12.18.24.24.36.28.34.45.7.49 1.06l.18.76.46.67.27 1 .06.49.55.67-.12.21.24.21v.61l.06.46c-.06.3-.09.42-.09.33l.15.15.18.24c.26-.02.46-.05.58-.09h.91c.16.04.28.06.36.06.12 0 .25-.05.38-.14.13-.09.34-.14.62-.14.2 0 .51.1.91.3l.91.06c.04.16.06.28.06.36 0 .3-.15.54-.46.7l-.46-.15-.85.61-.7-.09-.3.15-.67.06v-.12l-.79.18-.03.18.06.7.4.55.06.55.7.97-.04.35.27.27.73 1.12.52.52.12.24.55.27.21.49zm-7.5-8.21h-.03l-.33-.33.36-.3c-.16-.14-.25-.35-.25-.64l-.22-.12-.16-1.24-.36-.52-.09-.52-.06-.12h-.21l-.09-1.09-.27-.4-.15-.06-.09-.12-.12.21-.73.91-.24.52-.61.55-.12.55-.7.3c-.1.61-.41 1.04-.91 1.31l-.21.61-.39.4h.26c.36.12.67.18.91.18h.12c.12-.06.24-.09.36-.09.14 0 .3.04.49.12l.12.03c.12-.02.31-.03.58-.03.32 0 .57.01.73.03l1.06-.12.7.36c.34-.14.55-.28.61-.43 0 .02.01.03.03.03v.02z" id="path10"/><g id="g30"><path class="st0" d="M89.54 20.79c0 .47-.14.89-.43 1.28-.55.22-1 .33-1.37.33-.08 0-.19-.02-.33-.06-.14-.04-.23-.06-.27-.06l-.79.4-.73-.06-.43.15-.21-.06-.55.3-.46-.12h-1.31.12l-.55.15h-.09l-.21.21-.43-.15-.24.15-.67-.21-.4.21c-.49-.12-.77-.18-.85-.18-.22 0-.5.07-.82.21l-1.37.12-.12-.15-.52.13-.03.18.27 1.52-.07.15.09.3v.39c.1.3.17.61.21.91l.36.36-.06.18.61.76c.63.45 1.1.67 1.43.67h.06c.04 0 .09-.01.15-.03h.12c.08 0 .19.03.33.09l.27-.03c.26-.06.64-.13 1.12-.21l.33-.18.06-.12.24-.02.24-.15.15.09.49-.15.4-.24.15-.21.52-.4.39-.06.73-.55c.51-.08.87-.49 1.09-1.22l.09.03.03-.09.4-.03.58-.49.21-.03c.06-.02.13-.03.21-.03.38 0 .62.38.7 1.13l-1.34 1.58-.33.09-.12.18-.58.61-.82.49-.67.64-.21-.03-.24.24-1.37.52-.55.61-.4-.15-.15.27-.27-.09-.15.14-1-.18-1.03.43-1.03-.33-1.32-.62c-1.11-.53-1.98-1.99-2.58-4.38v-.33l-.24-.7.24-.3-.15-.85-.03-.27-.52-.58v-.36c0-.59.16-.99.49-1.22.06-.16.17-.31.33-.46l-.12-.09v-1.28l.37-.97.09-.49-.3.03h-.12c-.28 0-.53-.1-.73-.29-.2-.19-.3-.42-.3-.68 0-.3.19-.65.58-1.03l.21-.21.27-.12c.32-.14.58-.21.76-.21h.57l.3-.52 1.37.09.09.09c.18-.03.46-.05.82-.05l.61-.13h.15c.26-.08.52-.24.76-.49l.46.27h.76l3.04-.27.3.18.43-.11.24-.29.61.4.21-.18.67.27.46-.09.24.09.97-.09.21.15.49.09c.47.08.7.3.7.67 0 .24-.09.46-.26.64s-.35.27-.53.27h-.12l-.33.18-.61-.18-.27.03a.78.78 0 01-.24.03c-.2 0-.39-.04-.55-.12l-.09-.12c-.2.04-.33.06-.4.06-.08 0-.18-.02-.3-.06-.2.14-.58.26-1.12.36-.28 0-.6-.01-.94-.03 0-.02.04-.09.12-.21l-.79.24H83c-.14 0-.41.14-.79.43l-.4-.18-.18.12-.73-.21-.43.21h-.61l-.91.18-.76.33-.21-.12-.4.27h-.4l-.09.15.09.36-.52.61.24.03v.85l.33.37-.27.24c-.2.34-.3.58-.3.7 0 .08.06.14.18.18l.36-.12c.1-.02.2-.03.3-.03.3.04.53.08.67.12l.55-.21.49.09h1.49c.08 0 .24-.07.49-.21.16.08.4.12.7.12.04 0 .11-.01.21-.03h.3c-.04 0-.08-.01-.12-.03h.09c.12 0 .49.05 1.09.15.06-.03.38-.07.94-.1.32-.03.53-.05.61-.05.3 0 .6.01.88.03l.27-.03c.28-.16.55-.24.79-.24.18 0 .36.03.55.09l.43-.09.36.15 1.22-.3v.28z" id="path12"/><path class="st0" d="M154.02 14.47a2.13 2.13 0 01-.6 1.51c-.18.19-.4.34-.66.44-.25.11-.53.16-.82.16-.31 0-.58-.05-.84-.16-.25-.11-.47-.25-.65-.44-.18-.19-.32-.41-.42-.67-.1-.26-.15-.54-.15-.84 0-.3.05-.58.15-.83.1-.26.24-.48.42-.67.18-.19.4-.33.65-.44.25-.11.53-.16.84-.16a2 2 0 01.82.16c.25.11.47.25.66.44.18.19.33.41.43.67.12.25.17.53.17.83m-.45 0c0-.24-.04-.47-.12-.68-.08-.21-.19-.39-.34-.54a1.541 1.541 0 00-1.16-.49 1.541 1.541 0 00-1.16.49c-.15.15-.26.34-.34.54-.08.21-.12.43-.12.68 0 .24.04.47.12.68.08.21.19.39.34.55.14.15.31.28.51.36.2.09.41.13.65.13a1.541 1.541 0 001.16-.49c.14-.15.26-.34.34-.55.08-.22.12-.44.12-.68m-1.15 1.15c-.09-.15-.17-.29-.25-.41-.07-.12-.13-.22-.18-.31-.05-.08-.1-.15-.14-.19-.04-.05-.07-.07-.1-.07h-.13v.98h-.4v-2.36h.64c.26 0 .46.06.59.18.13.12.2.28.2.46a.618.618 0 01-.17.43.61.61 0 01-.16.12c-.06.03-.12.06-.17.07h.01c.02.01.06.05.1.1.04.06.1.13.16.23s.13.21.21.34c.08.13.16.27.25.42h-.46zm-.17-1.67c0-.23-.14-.34-.42-.34h-.19v.7h.16c.12 0 .23-.03.32-.09.08-.06.13-.15.13-.27" id="path14"/><g id="g28"><path class="st1" d="M38.98 28.17c.56.71.64-.97.65-1.1.48-3.69.44-7.77-.42-11.45-.13-.54-.43-1.03-.86-1.38 0 0-.01 0-.01-.01a.108.108 0 00-.17.11c.39 1.56.6 3.17.71 4.59.18 2.31.32 4.64.18 6.95-.01.48-.42 1.86-.08 2.29" id="path16"/><path class="st1" d="M40.51 26.36c-.29 1.97-1.47 3.48-1.92 5.37-.39 1.64-.85 3.18-1.75 4.56-.89 1.37-2.09 2.48-3.48 3.29-.33.2-1.35.96-1.79.76-.79-.34.22-.76.42-.87 6.97-3.54 6.36-12.19 6.07-19.37-.08-1.84-.25-3.84-.74-5.71l-.06-.23c-.17-.59-.56-1.1-1.09-1.41-.08-.05-.16-.09-.24-.14-.06-.03-.12.03-.1.09.2.46.71 1.64.9 2.32.23.84.4 1.71.5 2.58.13 1.09-.18 2.14-.02 3.26.14 1 .24 2.01.28 3.03.09 2.01-.01 4.03-.3 6.01-.58 3.98-2.12 6.67-5.34 8.79-.8.53-1.51.96-2.29 1.22-.77.26-1.6.33-2.63.14-1.96-.31-3.75-1.57-4.73-3.2-.33-.49-.6-1.02-.81-1.56-.87-2.17-.93-4.65-.62-6.81.43-2.92 1.05-6.85 4.24-8.24 1.26-.54 2.84-.98 3.97-.02 1.34 1.14 1.81 2.79 2.15 4.49.42 2.09.52 4.25.5 6.38-.01 1.58-.3 3.31-1.28 4.54a2.955 2.955 0 01-3.98.59c-1.45-.98-2-2.65-2.19-4.22-.24-2-.01-3.99.48-5.94.19-.74.99-4.61 2.24-4.39 1 .18 1.09 4.09 1.25 4.9.4 1.97.23 3.77.09 5.75-.05.69-.56 1.53-.69.39-.11-.91-.07-1.83-.03-2.74.04-.9.05-1.79.03-2.69-.02-.86-.57-1.05-.67-.12-.2 1.9-.48 4.27.08 6.15.16.53.54 1.22 1.22.99.67-.23.77-1.36.84-1.94.26-2.09.16-4.22-.15-6.3-.23-1.56-.31-3.42-1.53-4.48-.31-.27.27-.59.54-.41.29.19.52.45.7.75.46.74.66 1.59.84 2.43.4 1.91.59 3.88.57 5.84-.02 1.39.13 4.04-1.39 4.74-1.81.83-2.52-1.68-2.59-2.86-.11-1.95-.31-4.01.36-5.88.33-.91.47-1.7.57-2.66.07-.66-.52-.67-.68-.07-.51 1.91-1.11 3.76-1.18 5.73-.06 1.59-.22 3.7.66 5.14.79 1.3 2.4 2 3.67.98 1.3-1.05 1.35-3.11 1.4-4.68.07-2.12-.16-4.25-.59-6.32-.28-1.37-.8-3.41-2.31-3.88-3.93-1.04-8 15.06-.87 17 1.43.4 2.99-.21 3.96-1.19 1.09-1.1 1.22-2.71 1.43-4.21.29-2.08-.05-3.92-.26-6-.18-1.76-.47-3.57-1.44-5.07-.93-1.44-2-2.12-3.73-2.08-1.26.03-2.52.39-3.54 1.18-2.62 2.02-3.16 6.14-3.48 9.02-.18 1.63-.14 3.45.28 5.18.14.58.32 1.15.55 1.7 1.08 3.49 5.14 5.62 8.8 5.29.62-.03 1.23-.1 1.81-.22.58-.12 1.14-.28 1.65-.49 2.82-1.12 4.84-3.46 5.76-6.45.6-1.95 1.42-3.83 1.99-5.8.54-1.89.65-3.97.63-5.96-.01-1.51-.12-3.03-.29-4.54-.06-.55-.3-1.08-.66-1.49-.09-.11-.27-.02-.24.12.61 3.24.71 6.81.25 9.94" id="path18"/><path class="st1" d="M10.4 27.2c-.02.88.03 1.75.13 2.6v.03l.03.18c.1.62.22 1.23.36 1.84.19.76.69 2.08.91 2.61.06.14.2.23.35.21.17-.02.27-.18.22-.34-.07-.23-.16-.51-.19-.62a20.6 20.6 0 01-.71-2.86c-.17-.96-.27-1.93-.31-2.9-.05-1.56-.07-3.13.09-4.71.02-.2-.27-.26-.32-.06-.33 1.29-.53 2.63-.56 4.02" id="path20"/><path class="st1" d="M18.1 37.26c.11.2.32 1.46-.26.8-.54-.61-1.02-1.27-1.44-1.97-.42-.7-.77-1.44-1.04-2.19-.55-1.49-.81-3.05-.79-4.51 0 .2-.01.25 0-.06.06-2.7.02-.97 0-.14.18-5.89 2.44-12.9 9.2-15.29 2.33-.82 5.7.09 7.19 2.01.39.51-.04.8-.5.44-.62-.48-1.27-.9-1.97-1.23-1.35-.64-2.88-.91-4.39-.5-2.97.83-5.69 3.4-6.85 6.07-1.27 2.94-2.08 6.51-1.83 9.6.14 1.75.56 3.26 1.49 4.83.42.69.81 1.41 1.19 2.14m-5.5-4.92l.34 1.5c.16.71.3 1.44.63 2.08l.42.9c.18.34.39.74.62 1.04l.62.84c.29.4.94 1.24 1.05 1.36.34.36.99.87 1.24.63.11-.1-.11-.39-.3-.59-.22-.24-.67-.84-.86-1.1-.19-.27-.38-.51-.55-.74l-.08-.1c-.41-.54-.77-1.12-1.07-1.74l-.24-.49c-.06-.11-.38-1.01-.61-1.64-.15-.41-.26-.83-.34-1.26l-.34-1.84c-.31-1.86-.43-3.8-.09-5.66.3-1.68 1.3-3.33 1.87-4.99.52-1.5 1.36-2.91 2.53-4.09 1.18-1.2 2.63-1.96 4.01-2.94.79-.56-.08-.55-.59-.28-.69.36-1.37.75-2.02 1.19-1.29.87-2.43 1.93-3.28 3.18-.98 1.45-1.59 3.23-2.01 4.85-.18.69-.74.23-.63-.32a16 16 0 01.54-2c.94-2.68 2.79-5 5.4-6.59 2.89-1.76 7.05-2.03 10.08-.85 3.03 1.17 5.19 4.72 6.33 7.84 1.35 3.7.7 8.12-.3 11.77-.12.43-.36 2.2-.84 2.34-.84.25-.21-1.54-.17-1.75.41-1.93.92-3.88 1.14-5.87.44-4.03-.98-7.64-3.13-10.84-1.85-2.77-5.77-4.22-8.98-2.79-2.79 1.24-5.48 3.53-6.85 6.12-.76 1.44-1.18 3.08-1.71 4.57-.57 1.59-.78 3.27-.73 4.92.05 1.93.54 3.82 1.07 5.7.21.73.29 1.2.72 1.67.3.33.59.66.82 1.04.35.57.73 1.12 1.15 1.65.58.73 1.23 1.42 1.93 2.06 2.43 2.41 5.73 3.65 8.99 3.63 3.87-.19 7.42-1.66 10.21-4.01 1.52-1.41 2.8-3.11 3.99-4.88.01-.01.01-.02.02-.03.01-.01.02-.03.02-.04.28-.51-.45-.96-.79-.5-.11.15-.22.29-.33.44-2.18 2.94-4.16 5.67-7.59 7.09-.75.31-1.52.54-2.32.69-.8.15-1.61.23-2.44.23-2.91.27-6.05-.53-8.34-2.58-.52-.49-.96-1.05-1.29-1.68-.23-.45-.41-.94-.53-1.47-.09-.44-.21-.87-.38-1.29-.15-.37-.28-.75-.4-1.12-.89-2.93-.69-5.92-.19-8.94.5-3.04 1.19-6.4 3.99-8.48 1.47-1.1 3.26-1.83 5.05-1.26.5.16.67.84.01.68a4.84 4.84 0 00-2.27.03c-3.81.95-5.04 4.71-5.77 7.86-.7 3.02-.98 6.06-.29 9.07.14.6.31 1.19.53 1.79 0 .01.01.02.01.03.18.77.47 1.48.86 2.13.39.65.88 1.25 1.44 1.77 2.3 2.23 5.85 3.12 8.81 2.56.59-.06 1.17-.17 1.74-.31 1.71-.43 3.29-1.22 4.63-2.34 1.31-1.11 2.37-2.43 3.25-3.95.84-1.45 2.16-2.4 2.91-3.98.52-1.11.86-2.23 1.06-3.46.21-1.27.62-3.75.32-4.94-.08-.33-.56-.29-.58.05-.1 1.51-.2 3.04-.42 4.48-.28 1.85-1.12 3.48-1.93 5.07-.05.1-.66 1.13-.81.34-.06-.32.21-.78.31-1.06.3-.84.71-1.62 1.02-2.47.69-1.9.83-3.93.96-5.98.06-1 .17-1.96.23-2.92a3.57 3.57 0 00-.44-1.95l-.01-.02c-.15-.28-.57-.16-.55.16.13 1.76.18 3.52.03 5.31-.17 2.01-.49 4.01-1.25 5.83-.64 1.55-.98 3.16-1.58 4.71-1.08 2.8-3.25 4.76-5.91 5.87-.7.29-1.47.51-2.29.65-.81.14-1.66.2-2.51.17-1.67.03-3.43-.35-4.88-1.25-.73-.43-1.38-.95-1.93-1.57a7.03 7.03 0 01-1.3-2.11c-.36-.73-.63-1.5-.84-2.27-.21-.77-.35-1.54-.44-2.27-.41-3.42.31-7.36 1.75-10.59.57-1.28 1.51-2.42 2.82-3.08 1.19-.61 3.14-1.03 4.44-.87 3.45.4 4.56 5.13 4.77 8 .01.15-.03 2.38.5 1.87.39-.38.2-1.78.19-2.29-.04-1.83-.42-3.69-1.33-5.27-1.39-2.44-5.14-5.23-8.05-4.29-2.95.95-5.23 3.58-6.05 6.33-.55 1.84-.98 3.74-1.2 5.62-.21 1.76.1 3.35.21 5.1.02.36-.52.41-.63.07-.11-.34-.16-.72-.23-1.07-.17-.86-.29-1.72-.29-2.59 0-1.76.42-3.49.84-5.22.78-3.17 1.98-5.93 5.02-7.92 3.38-2.22 7.04-.84 9.74 1.64 2.66 2.44 3.07 6.66 2.45 10.09-.37 2.01-.96 3.95-1.21 5.97-.17 1.42-.92 2.57-2.07 3.34-3.04 2.01-6.57.41-7.97-2.85-1.27-2.97-.67-6.84.35-9.78.33-.93.74-1.83 1.26-2.69.48-.81.13-1.27-.56-.46-1.1 1.29-1.55 3.16-1.93 4.72-.81 3.3-1.07 6.9.93 9.97.45.69.99 1.32 1.63 1.82.64.5 1.38.87 2.23 1.07 1.56.36 2.79-.16 4.06-.88 2.78-1.57 4.58-3.85 5.24-7.11.73-3.61 1.13-7.74-.12-11.31-1.12-3.22-3.63-6.65-6.61-7.95-3.17-1.38-6.96-.98-10.15.61-1.71.95-3.24 2.18-4.52 3.64l-.02.02c-.32.41-.61.84-.87 1.29-.8 1.4-1.23 2.86-1.47 4.33-.12.74-.19 1.49-.23 2.23-.04.75-.05 1.5-.06 2.25 0 1.02.01 2.01.09 3 .1.96.24 1.94.47 2.95" id="path22"/><path class="st1" d="M14.57 29.33v.06c0-.06 0-.13.01-.21-.01.06-.01.1-.01.15" id="path24"/><path class="st1" d="M34.11 14.92c.61.77 1.15 1.6 1.59 2.5.08.16.49 1.49.86.76.22-.44-.37-1.52-.51-1.91-.31-.85-.35-1.66-.56-2.52-.06-.22-.12-.44-.2-.64-.28-.73-.88-1.14-1.56-1.53-.38-.22-.77-.42-.83-.31-.11.22.55.5.8.79.46.54.9 1.16 1.24 1.8.11.22-.04.55-.33.49-.24-.05-.55-.57-.66-.7-.56-.69-1.11-1.29-1.7-1.81a5.85 5.85 0 00-3.36-1.38c-.3-.02-.61-.04-.92-.05-.56-.01-.83-.01-.83.13 0 .29.87.15 1.64.4 2.08.7 3.77 2.01 5.33 3.98" id="path26"/></g></g></g><g id="g84" transform="translate(-10.396 -10.406)"><path class="st0" d="M49.82 39.5l.34-.32c.28.3.6.54 1.05.54.67 0 1.2-.51 1.28-1.16H50.9v-.44h1.58c-.07-.62-.59-1.13-1.25-1.13-.48 0-.8.22-1.08.52l-.3-.34c.32-.36.75-.63 1.41-.63 1.02 0 1.76.84 1.76 1.83 0 .98-.77 1.8-1.78 1.8-.66 0-1.07-.26-1.42-.67z" id="path34"/><path class="st0" d="M53.98 36.61h.52v2l1.9-2h.64l-1.45 1.51 1.49 1.97h-.61l-1.24-1.59-.73.75v.84h-.52z" id="path36"/><path class="st0" d="M57.38 38.35c0-.98.77-1.82 1.82-1.82 1.04 0 1.81.82 1.81 1.82 0 .98-.77 1.82-1.82 1.82s-1.81-.82-1.81-1.82zm3.1 0c0-.75-.56-1.36-1.29-1.36-.75 0-1.27.61-1.27 1.36 0 .75.55 1.35 1.29 1.35s1.27-.6 1.27-1.35z" id="path38"/><path class="st0" d="M61.29 40.09l.06-.44c.07.02.19.05.25.05.42 0 .77-.18.77-2.79v-.29h2.46v3.48h-.52v-3.02h-1.45v.08c0 2.71-.49 2.99-1.15 2.99-.11-.01-.31-.03-.42-.06z" id="path40"/><path class="st0" d="M65.78 38.35c0-.98.77-1.82 1.82-1.82 1.04 0 1.81.82 1.81 1.82 0 .98-.77 1.82-1.82 1.82s-1.81-.82-1.81-1.82zm3.1 0c0-.75-.56-1.36-1.29-1.36-.75 0-1.27.61-1.27 1.36 0 .75.55 1.35 1.29 1.35s1.27-.6 1.27-1.35z" id="path42"/><path class="st0" d="M70.35 36.61h2.36v.46h-1.84v3.02h-.52z" id="path44"/><path class="st0" d="M73.46 36.61h.52v2.75l2.07-2.75h.5v3.48h-.52v-2.75l-2.07 2.75h-.5z" id="path46"/><path class="st0" d="M79.92 38.65c-.25.14-.75.32-1.16.32-.69 0-1.15-.36-1.15-1.04v-1.32h.52v1.24c0 .41.26.67.7.67.37 0 .81-.13 1.1-.33v-1.58h.52v3.48h-.52v-1.44z" id="path48"/><path class="st0" d="M81.38 38.35c0-1.01.71-1.82 1.67-1.82 1.03 0 1.62.82 1.62 1.84 0 .05 0 .1-.01.18H81.9c.07.73.61 1.16 1.22 1.16.48 0 .81-.2 1.1-.49l.32.29c-.35.39-.77.65-1.43.65-.94.01-1.73-.72-1.73-1.81zm2.77-.21c-.06-.63-.42-1.17-1.11-1.17-.6 0-1.06.5-1.13 1.17z" id="path50"/><path class="st0" d="M85.37 38.35c0-.98.77-1.82 1.78-1.82.66 0 1.07.28 1.39.62l-.33.35c-.28-.29-.6-.51-1.07-.51-.71 0-1.24.6-1.24 1.36 0 .75.55 1.35 1.28 1.35.44 0 .77-.23 1.05-.52l.34.32c-.35.39-.77.67-1.42.67-1.01 0-1.78-.83-1.78-1.82z" id="path52"/><path class="st0" d="M89.43 36.61h.52v2l1.9-2h.64l-1.45 1.51 1.49 1.97h-.61l-1.24-1.59-.73.75v.84h-.52z" id="path54"/><path class="st0" d="M93.25 36.61h.52v2.75l2.07-2.75h.5v3.48h-.52v-2.75l-2.07 2.75h-.5z" id="path56"/><path class="st0" d="M101.73 38.65c-.25.14-.75.32-1.16.32-.69 0-1.15-.36-1.15-1.04v-1.32h.52v1.24c0 .41.26.67.7.67.37 0 .81-.13 1.1-.33v-1.58h.52v3.48h-.52v-1.44z" id="path58"/><path class="st0" d="M103.41 36.61h.52v2.75l2.07-2.75h.5v3.48h-.52v-2.75l-2.07 2.75h-.5z" id="path60"/><path class="st0" d="M107.44 38.35c0-.98.77-1.82 1.78-1.82.66 0 1.07.28 1.39.62l-.33.35c-.28-.29-.6-.51-1.07-.51-.71 0-1.25.6-1.25 1.36 0 .75.55 1.35 1.28 1.35.44 0 .77-.23 1.05-.52l.34.32c-.35.39-.77.67-1.42.67-1 0-1.77-.83-1.77-1.82z" id="path62"/><path class="st0" d="M112.34 37.07h-1.25v-.46h3.01v.46h-1.25v3.02h-.52v-3.02z" id="path64"/><path class="st0" d="M114.87 36.61h.52v1.3h.93c.75 0 1.37.31 1.37 1.04 0 .69-.52 1.13-1.31 1.13h-1.51zm1.46 3.02c.52 0 .83-.22.83-.66 0-.4-.32-.61-.85-.61h-.92v1.27zm1.99-3.02h.52v3.48h-.52z" id="path66"/><path class="st0" d="M120 36.61h.52v2.75l2.07-2.75h.5v3.48h-.52v-2.75l-2.07 2.75h-.5zm.57-1.32l.36-.07c.08.29.26.47.59.47.33 0 .51-.18.59-.47l.36.07c-.08.48-.44.82-.95.82s-.86-.34-.95-.82z" id="path68"/><path class="st0" d="M126.27 36.61h3.01v3.48h-.52v-3.02h-1.98v3.02h-.52v-3.48z" id="path70"/><path class="st0" d="M130.44 36.61h.52v.7c.28-.42.69-.77 1.33-.77.83 0 1.66.66 1.66 1.82 0 1.14-.82 1.81-1.66 1.81-.65 0-1.06-.35-1.33-.74v1.74h-.52zm2.98 1.73c0-.82-.57-1.35-1.22-1.35s-1.26.54-1.26 1.35.61 1.35 1.26 1.35c.67.01 1.22-.49 1.22-1.35z" id="path72"/><path class="st0" d="M134.7 38.35c0-.98.77-1.82 1.82-1.82 1.04 0 1.81.82 1.81 1.82 0 .98-.77 1.82-1.82 1.82s-1.81-.82-1.81-1.82zm3.09 0c0-.75-.56-1.36-1.29-1.36-.75 0-1.27.61-1.27 1.36 0 .75.55 1.35 1.29 1.35.75 0 1.27-.6 1.27-1.35z" id="path74"/><path class="st0" d="M138.69 39.63h.38c.28-.52.46-1.24.46-2.42v-.61H142v3.02h.52l-.08 1.33h-.43v-.87h-2.81l-.09.87h-.42zm2.79 0v-2.56h-1.46v.48c0 .86-.17 1.63-.41 2.08z" id="path76"/><path class="st0" d="M143.04 41.01l.17-.41c.17.09.32.13.54.13.31 0 .5-.16.71-.65l-1.58-3.46h.57l1.26 2.9 1.12-2.9h.55l-1.46 3.59c-.3.72-.63.98-1.16.98a1.78 1.78 0 01-.72-.18z" id="path78"/><path class="st0" d="M147.23 36.61h.52v2l1.9-2h.64l-1.45 1.51 1.49 1.97h-.61l-1.24-1.59-.73.75v.84h-.52z" id="path80"/><path class="st0" d="M151.88 37.07h-1.25v-.46h3.01v.46h-1.25v3.02h-.52v-3.02z" id="path82"/></g></svg>