<svg xmlns="http://www.w3.org/2000/svg" version="1.1" id="Слой_1" x="0" y="0" xml:space="preserve" width="91.02" height="22"><style type="text/css" id="style2">.st0{fill:#005ca9}</style><g id="g40" transform="translate(-25.7 -59.85)"><g id="g34"><path class="st0" d="M48.74 81.84L50 78.77c1.9-.37 4.16-1 6.52-1.67l-1.95 4.75h-5.83z" id="path4"/><path class="st0" d="M57.91 81.72l2.34-5.71c2.27-.64 4.41-1.31 6.49-1.61l-3 7.31h-5.83z" id="path6"/><path class="st0" d="M76.44 74.76l-2.86 6.97h-5.83l3.15-7.68c1.75-.02 3.63.33 5.54.71z" id="path8"/><path class="st0" d="M108.44 60.02c1.29 0 1.86.98 1.28 2.21-.58 1.23-2.07 2.21-3.37 2.21-1.29 0-1.86-.98-1.28-2.21.59-1.23 2.08-2.21 3.37-2.21z" id="path10"/><path class="st0" d="M96.48 81.72l2.56-6.23c2.06-.69 4.67-.43 4.67-.43s-1.41-1.46-3.01-3.62l2.42-5.91h5.83l-6.64 16.18h-5.83z" id="path12"/><path class="st0" d="M60.7 60.14c1.01 0 1.58.6 1.5 1.44a22.25 22.25 0 00-5.01 2.16c-.14-.38-.1-.86.15-1.39.58-1.23 2.07-2.21 3.36-2.21z" id="path14"/><path class="st0" d="M101.5 60.82l-2.99 7.29-.07-.11c-1.19-2.12-1.7-4.99-1.92-7.18z" id="path16"/><path class="st0" d="M94.9 76.89l-1.99 4.84h-9.33c-3.99 0-5.71-2.53-4.73-6.44 4.16.79 7.9 2.13 9.6 2.3 2.39.22 4.52-.15 6.45-.7z" id="path18"/><path class="st0" d="M25.7 81.72l.66-4.78c1.51.25 5.17.59 7.58.94l-2.75 3.84z" id="path20"/><path class="st0" d="M42.89 78.95l-2.14 2.78h-4.03l.64-3.38c1.91.24 3.82.45 5.53.6z" id="path22"/><path d="M26.87 74.37l1.75-13.67h7.78l-2.12 9.43h.06l6.74-9.43h4.88l-1.67 9.54 6.35-9.54h6.31l-6.62 8.52c-.99.63-1.94 1.08-3.25 1.62-2.42 1.01-5.57 2.16-8.68 2.47l.31-2h-.06l-1.67 2.31c-3.66.63-7.57.99-10.11.75z" id="path24" fill-rule="evenodd" clip-rule="evenodd" fill="#005ca9"/><path d="M89.35 76.21l2.2-5.36c-.67-.22-1.29-.34-1.93-.34-1.85 0-3.61 1.22-4.37 3.06-.73 1.78.12 2.91 2.14 2.91.59.01 1.13-.09 1.96-.27zm7.18-15.39c.21 2.19.79 4.96 1.92 7.18l.06.11-3.6 8.77c-1.94.55-4.06.93-6.45.7-1.7-.17-5.5-1.34-9.6-2.3.14-.56.34-1.15.59-1.77 2.02-4.93 6.41-8.24 10.9-8.24 1.23 0 2.14.18 3.23.67l2.1-5.12zm-69.7 13.47c2.22.07 6.23.06 10.2-.78l-3.08 4.37c-2.49-.22-6-.53-7.58-.94zm11.57-1.02c3.57-.76 6.08-1.4 8.64-2.43 1.32-.53 2.37-1.12 3.37-1.74l-7.52 9.85c-1.72-.14-3.62-.36-5.53-.6zm18.79-9.53c1.39-.95 2.94-1.63 5.01-2.16-.02.24-.09.5-.22.77-.58 1.23-2.07 2.21-3.37 2.21-.73 0-1.23-.32-1.42-.82zm43.51 7.71c1.72 2.12 3.16 3.67 3.16 3.67s-2.76-.32-4.82.37zm-44.18 5.64c-2.36.67-4.62 1.3-6.52 1.67l5.38-13.11h5.83zm19.92-2.33c-1.91-.38-3.82-.66-5.53-.71l.48-1.17c.67-1.63.44-2.36-.71-2.36-.93 0-1.91.55-3.04 1.75l-.89 2.16c-1.97.37-4.21.97-6.49 1.61l4.3-10.48h5.83l-.87 2.12c2.3-1.72 3.9-2.39 5.75-2.39 3.25 0 4.18 2.18 2.7 5.76z" id="path28" fill-rule="evenodd" clip-rule="evenodd" fill="#7da9db"/></g><g id="g38"><path class="st0" d="M112.13 61.21c.13-.29.3-.53.53-.73.22-.2.47-.36.76-.47.29-.11.59-.16.91-.16.32 0 .62.05.91.16a2.327 2.327 0 011.29 1.2c.13.28.19.61.19.96 0 .36-.07.68-.19.97-.13.29-.3.53-.53.74-.22.2-.48.36-.76.47-.29.11-.59.16-.91.16-.31 0-.62-.05-.91-.16-.29-.11-.54-.26-.76-.47-.22-.21-.4-.45-.53-.74s-.2-.61-.2-.97c0-.35.07-.67.2-.96zm.57 1.7c.09.22.22.42.37.58.16.16.34.29.56.38a1.736 1.736 0 001.37 0c.21-.09.4-.22.56-.38.16-.17.28-.36.38-.58.09-.22.14-.47.14-.73 0-.27-.05-.51-.14-.73a1.88 1.88 0 00-.38-.58 1.76 1.76 0 00-1.24-.52c-.24 0-.47.05-.69.14-.21.09-.4.22-.56.38-.16.16-.28.35-.37.58-.09.22-.14.47-.14.73.01.26.05.51.14.73zm1.68-2.04c.33 0 .58.06.76.18.18.11.26.31.26.6 0 .12-.02.22-.05.31-.04.09-.08.16-.15.21-.06.06-.14.1-.22.12-.08.03-.17.05-.27.06l.7 1.14h-.54l-.63-1.12h-.31v1.12h-.53v-2.61h.98zm-.01 1.09c.14 0 .26-.02.36-.06.1-.04.14-.14.14-.3 0-.07-.01-.13-.05-.17a.294.294 0 00-.12-.1c-.05-.03-.11-.04-.17-.05-.06-.01-.12-.01-.18-.01h-.42v.69z" id="path36"/></g></g></svg>