<svg xmlns="http://www.w3.org/2000/svg" version="1.1" id="Слой_1" x="0" y="0" xml:space="preserve" width="118.74" height="23.91"><style type="text/css" id="style2">.st0{fill:#0069b4}</style><g id="g88" transform="translate(-11.83 -58.89)"><path class="st0" d="M32.43 71.29c-.09.39.16.79.56.88.4.09.8-.15.89-.54a.744.744 0 00-.56-.88.74.74 0 00-.89.54" id="path4"/><path class="st0" d="M37.67 72.72c-.09.39.16.78.56.88.4.09.8-.15.89-.54a.744.744 0 00-.56-.88.74.74 0 00-.89.54" id="path6"/><path class="st0" d="M38.63 70.16c0-.15 1.59-.11 2.19.37.6.48.57.94.35 1.05-.27.14-.34-.49-.86-.79-.79-.45-1.68-.63-1.68-.63" id="path8"/><path class="st0" d="M35.33 68.25c.1-.06-.56-.9-1.75-.73-1.19.17-1.68.8-1.42 1.1.27.31.97-.56 1.65-.67.97-.15 1.52.3 1.52.3" id="path10"/><path class="st0" d="M34.24 73.04c-.08-.04.25-.8 1.08-.6.83.2.96.99.73 1.11-.36.18-.48-.58-.87-.67-.7-.17-.94.16-.94.16" id="path12"/><path class="st0" d="M31.68 73.82c-.14-.03-.5 2.36 2.01 2.96 1.72.41 2.74-.36 2.51-.81-.35-.66-1.02.6-2.49.25-2.05-.48-2.03-2.4-2.03-2.4" id="path14"/><g id="g86"><path class="st0" d="M97.82 62.37c0 1.07-.87 1.94-1.94 1.94-1.07 0-1.94-.87-1.94-1.94 0-1.07.87-1.94 1.94-1.94 1.07 0 1.94.87 1.94 1.94" id="path16"/><g id="g84"><path class="st0" d="M92.34 79.24v3.37l-.07.07h-.32l-.07-.07v-3.37h-.83l-.07-.07v-.25c0-.04.02-.07.08-.07h2.19l.07.04-.02.07-.08.21-.09.06h-.79z" id="path18"/><path class="st0" id="polygon20" d="M94.37 82.68h-.33l-.07-.07v-3.69l.07-.07h.33l.06.07v1.57h1.44v-1.57l.07-.07h.32l.07.07v3.69l-.07.07h-.32l-.07-.07v-1.73h-1.44v1.73z"/><path class="st0" d="M99.36 82.6c0 .07-.02.08-.08.08h-1.72l-.07-.07v-3.69l.07-.07h1.74c.06 0 .07.02.07.03l-.02.07-.08.24c-.02.05-.03.05-.08.05h-1.24v1.24h1.09c.06 0 .07.01.07.07v.25c0 .06-.01.07-.07.07h-1.09v1.41h1.34l.07.06z" id="path22"/><path class="st0" d="M102.98 82.75c-.9 0-1.26-.8-1.26-1.99 0-1.2.37-1.99 1.26-1.99s1.26.8 1.26 1.99c.01 1.19-.36 1.99-1.26 1.99m.76-1.99c0-.97-.13-1.61-.76-1.61-.62 0-.76.64-.76 1.61 0 .98.13 1.62.76 1.62s.76-.64.76-1.62" id="path24"/><path class="st0" d="M107.39 82.59l.02.06-.06.04-.35.06-.08-.04-.92-1.78h-.4v1.68l-.07.07h-.32l-.07-.07v-3.69l.07-.07h.87c.43 0 1.13.03 1.13 1.02 0 .61-.43.93-.74 1.03zm-1.44-2.02c.41 0 .79-.1.79-.69 0-.62-.4-.64-.72-.64h-.43v1.33z" id="path26"/><path class="st0" id="polygon28" d="M107.95 82.68l-.06-.07v-.23l.06-.07h.51v-3.1h-.51l-.06-.06v-.23l.06-.07h1.48l.06.07v.23l-.06.06h-.51v3.1h.51l.06.07v.23l-.06.07z"/><path class="st0" d="M112.35 82.31c0 .15 0 .19-.08.24-.21.12-.56.21-.9.21-.99 0-1.34-.87-1.34-2.03 0-1.06.37-1.95 1.35-1.95.51 0 .93.26.93.34l-.03.07-.08.16-.07.08c-.06 0-.28-.27-.73-.27-.61 0-.86.58-.86 1.52 0 1.03.24 1.71.85 1.71.26 0 .41-.06.51-.11V81.1h-.45l-.07-.07v-.23l.07-.07h.84l.07.07v1.51z" id="path30"/><path class="st0" id="polygon32" d="M113.14 82.68l-.07-.07v-.23l.07-.07h.51v-3.1h-.51l-.07-.06v-.23l.07-.07h1.47l.07.07v.23l-.07.06h-.5v3.1h.5l.07.07v.23l-.07.07z"/><path class="st0" d="M117.77 82.61l-.07.07h-.31l-.09-.06-1.28-2.76c-.07-.15-.12-.33-.15-.49l-.01.01c.05.21.06.37.06.5v2.73l-.07.07h-.29l-.07-.07v-3.69l.07-.07h.38l.08.05 1.23 2.6c.07.14.08.26.13.43l.01-.01c-.02-.12-.05-.24-.05-.34v-2.66l.07-.07h.29l.07.07z" id="path34"/><path class="st0" d="M121.26 82.55l.03.09c0 .03-.02.03-.08.03h-.35c-.07 0-.09-.02-.1-.06l-.31-1.08h-1.15l-.28 1.08c-.01.04-.03.06-.1.06h-.35c-.06 0-.08-.01-.08-.03l.03-.09 1.12-3.64c.02-.06.02-.06.08-.06h.33c.05 0 .06 0 .08.06zm-1.25-2.64c-.05-.17-.1-.37-.13-.53h-.01c-.02.13-.08.38-.12.53l-.34 1.23h.93z" id="path36"/><path class="st0" id="polygon38" d="M124 82.4l-.08.21-.09.07h-1.69l-.06-.07v-3.69l.06-.07h.33l.06.07v3.36h1.42l.07.05z"/><g id="g82"><path class="st0" d="M127.99 63h.51c.26 0 .55.06.55.4 0 .41-.31.43-.66.43h-.41V63zm-.39 2.29h.39v-1.13h.41l.68 1.13h.42l-.72-1.16c.37-.04.66-.24.66-.72 0-.51-.28-.75-.87-.75h-.97zm-.93-1.32c0-1.08.77-1.91 1.77-1.91.99 0 1.75.83 1.75 1.91 0 1.1-.77 1.93-1.75 1.93-1 0-1.77-.83-1.77-1.93m-.39 0c0 1.29.98 2.26 2.15 2.26s2.14-.97 2.14-2.26c0-1.27-.98-2.24-2.14-2.24-1.16 0-2.15.97-2.15 2.24" id="path40"/><path class="st0" d="M27.37 61.45v14.84h-3.82l-9-13.04v10.56c0 1.2.11 1.56.96 2.48h-3.68c.79-.89.98-1.3.98-2.48V61.53c0-1.28-.05-1.59-.84-2.63h4.71l8.97 13.22v-10.7c0-1.23-.03-1.54-.82-2.53h3.41c-.7.94-.87 1.38-.87 2.56" id="path42"/><path class="st0" d="M50.81 76.61c-1.8 0-3.3-.24-4.93-.81v-3c1.09 1.25 2.34 2.7 4.63 2.7 1.42 0 2.43-.63 2.43-1.68 0-1.25-1.69-1.75-2.97-2.24-1.96-.75-4.09-1.65-4.09-3.47 0-2.32 3.05-3.23 5.81-3.23 1.58 0 2.83.22 4.3.59v2.64c-.95-1.03-2.21-2.14-4.09-2.14-1.17 0-2.21.59-2.21 1.49 0 2.16 7.17 1.94 7.17 5.53 0 2.41-3.05 3.62-6.05 3.62" id="path44"/><path class="st0" d="M61.37 69.31c-.03.36-.05.71-.05 1.07 0 2.16 1.17 4.5 4.66 4.5 1.72 0 3.76-.73 4.96-1.59l-.6 1.73c-1.64.99-3.38 1.57-5.53 1.57-4.66 0-7.5-2.64-7.5-5.89 0-3.23 3-5.79 7.58-5.79 1.99 0 3.87.5 5.15 1.65 1.01.91 1.2 1.63 1.31 2.76h-9.98zm3.54-3.43c-.95 0-1.74.28-2.37.79-.65.54-.82 1.09-1.01 1.76h4.71c.79 0 1.31-.14 1.31-.77.01-1.03-1.27-1.78-2.64-1.78" id="path46"/><path class="st0" d="M79.02 60.38h-2.35v5.95h1.63c1.44 0 2.86-.21 3.6-1.57v4.62c-.98-1.33-1.86-1.56-3.49-1.56h-1.74v6c0 1.23.03 1.56.95 2.48h-6.16c.84-.88 1.03-1.28 1.03-2.48V61.47c0-1.3-.03-1.59-.95-2.58h11.88v3.55c-1.08-1.83-2.33-2.06-4.4-2.06" id="path48"/><path class="st0" d="M90.25 67.03c-1.8 0-2.29 1.33-2.29 2.4v5.04c0 .89.08 1.13.84 1.84h-5.53c.79-.67.95-.95.95-1.84V67.1c0-.87-.11-1.17-.77-1.9h4.5v1.51c1.58-1.17 2.51-1.53 4.77-1.68v3.47c-.56-.77-1.13-1.47-2.47-1.47" id="path50"/><path class="st0" d="M92.97 76.31c.82-.65 1.04-.95 1.04-1.84V66.7c0-.67-.16-.97-.74-1.51h4.47v9.28c0 .89.08 1.15.87 1.84z" id="path52"/><path class="st0" d="M109.42 76.31v-1.29c-.19.18-.38.34-.6.49-1.03.73-2.64 1.07-4.06 1.07-3.98 0-6.05-2.52-6.05-5.15 0-3.8 3.44-6.22 8.64-6.22.68 0 1.39.02 2.07.02v-4.34c0-.85-.19-1.25-.82-1.96h4.55v15.54c0 .85.14 1.17.87 1.84zm0-7.39c0-1.15-.11-2.74-2.21-2.74-3.3 0-4.6 2.7-4.6 4.7 0 1.77.92 4.36 3.92 4.36.96 0 1.75-.3 2.29-.85.57-.55.6-1.17.6-1.82z" id="path54"/><path class="st0" d="M123.09 76.31l-.08-1.31c-.25.18-.49.38-.74.54-1.06.69-2.64 1.05-4.06 1.05-2.04 0-4.03-.95-4.03-2.56 0-1.05.68-1.69 1.85-2.24 1.11-.54 2.31-.91 3.52-1.33 1.12-.4 2.21-.81 3.3-1.25v-1.43c0-1.01-.22-1.78-1.85-1.78-2.37 0-4.14 1.63-5.4 2.89l-.03-2.97c1.91-.57 3.71-.97 5.8-.97 1.23 0 2.86.16 3.93.63 1.34.59 1.31 1.47 1.31 2.48v6.4c0 .85.16 1.17.9 1.84h-4.42zm-.22-5.97c-1.74.71-4.82 1.37-4.82 3.15 0 .89.9 1.55 2.12 1.55.43 0 .85-.1 1.23-.24 1.25-.5 1.47-1.29 1.47-2.24z" id="path56"/><path class="st0" d="M43.09 74.75c-2.77 3.94-7.52 5.44-10.95 3.6-.23-.12-.45-.26-.67-.41-2.06-1.45-3.04-3.95-2.87-6.63.12-1.81.76-3.7 1.96-5.39.04-.06.08-.11.12-.16 2.45-2.93 6.46-3.91 9.84-2.54 2.93-.42 4.23 2.64 4.47 4.32.32 2.32-.3 4.94-1.9 7.21m-3.18-10.21c-1.71.22-2.57 1.97-2.57 3.01 0 1.05 1 1.47 1.55 1.25.55-.22 1.01-.76.57-2.15 2.2 1.28-.06 3.9-1.93 2.96-3.11-1.68-.27-5.21 1.11-5.8-2.24-.07-4.83 1.36-6.6 3.88-2.45 3.48-2.42 7.73.08 9.48 2.49 1.76 6.5.36 8.95-3.12 1.83-2.6 2.27-5.62 1.34-7.72-.36-.79-1.17-1.97-2.5-1.79" id="path58"/><path class="st0" id="polygon60" d="M92.3 82.59l-.04.04h-.29l-.05-.04V79.2h-.85l-.05-.04v-.24l.01-.02.03-.01h2.18l.03.02-.02.04-.07.2-.07.05h-.81v.04h.04v.04h.8l.1-.07h.01l.08-.23.03-.07.01-.03-.1-.06-.01-.01h-2.2l-.09.03-.03.08v.27l.08.08.01.01h.81v3.35l.08.08.01.01h.36l.08-.08.01-.01v-3.39h-.04v.04-.04h-.04z"/><path class="st0" id="polygon62" d="M94.39 82.59l-.04.04h-.29l-.04-.04v-3.65l.04-.05h.29l.04.05v1.6h1.52v-1.6l.04-.05h.29l.04.05v3.65l-.04.04h-.29l-.04-.04v-1.75h-1.52v.04h.04v.05h1.4v1.7l.08.08.01.01h.36l.08-.08.01-.01V78.9l-.08-.08-.01-.01h-.36l-.08.08-.01.01v1.55h-1.35V78.9l-.08-.08-.02-.01h-.35l-.09.08-.01.01v3.73l.08.08.02.01h.35l.08-.08.02-.01v-1.75h-.05v.05-.05h-.04z"/><path class="st0" id="polygon64" d="M99.32 82.63v.01-.01.01-.01h-1.74l-.04-.04v-3.65l.04-.05h1.72l.04.01.01-.02h-.02l.01.02.01-.02h-.02.05l-.05-.01-.01.07-.08.24-.01.02h-1.32v1.32h1.14l.03.01.01-.01h-.01v.01l.01-.01h-.01v.31h.01-.01.01-1.18v1.5h1.37l.04.03v.24h.09v-.27l-.08-.08-.02-.01H98v-1.33h1.05l.09-.02.03-.09v-.25l-.03-.08-.09-.03H98v-1.16h1.2l.07-.01.05-.07.08-.23.02-.08v-.01l-.04-.06-.08-.01h-1.75l-.08.08-.01.01v3.73l.08.08.01.01h1.74l.09-.03.03-.09h-.09z"/><path class="st0" d="M102.98 82.75v-.04c-.44 0-.73-.19-.93-.53-.2-.34-.29-.83-.29-1.42s.09-1.08.29-1.42c.2-.34.5-.52.93-.52.43 0 .73.19.93.53.2.34.29.83.29 1.42s-.09 1.08-.29 1.42c-.2.34-.5.53-.93.53v.07c.46 0 .79-.21 1-.57.21-.36.3-.87.3-1.46 0-.6-.09-1.1-.3-1.46-.21-.36-.54-.57-1-.57-.46 0-.79.21-1 .57-.21.36-.3.86-.3 1.46s.09 1.1.3 1.46c.21.36.54.57 1.01.57v-.04zm.76-1.99h.04c0-.49-.03-.89-.15-1.19-.11-.29-.33-.47-.65-.47-.33 0-.54.18-.65.47-.12.29-.15.7-.15 1.19s.03.9.15 1.19c.11.29.33.47.66.47s.54-.18.66-.47c.11-.29.15-.7.15-1.19h-.1c0 .49-.03.89-.14 1.16-.11.27-.28.41-.58.42-.3 0-.47-.14-.58-.42-.11-.27-.14-.67-.14-1.16 0-.48.04-.88.14-1.16.11-.27.28-.41.57-.42.3 0 .46.14.57.42.11.27.14.67.14 1.16z" id="path66"/><path class="st0" d="M107.39 82.59l-.04.01.01.03-.03.02-.33.06-.06-.03-.93-1.79h-.47v1.7l-.04.04h-.29l-.04-.04v-3.66l.04-.04h.85c.21 0 .49.01.71.13.22.12.38.36.38.84 0 .59-.41.89-.71.99l-.05.02.95 1.74.05-.02-.04.01.04-.01.04-.02-.93-1.69-.04.02.01.04c.32-.1.77-.43.77-1.07 0-.5-.18-.78-.43-.92-.24-.14-.53-.14-.75-.14h-.88l-.08.08-.01.01v3.73l.08.08.01.01h.36l.08-.08.01-.01v-1.65h.33l.92 1.76.1.05.01.01.37-.07h.01l.07-.04.03-.02-.03-.09zm-1.44-2.02v.04c.21 0 .41-.02.57-.13.16-.11.26-.3.26-.61 0-.32-.11-.5-.26-.59-.15-.09-.34-.09-.5-.09h-.47v1.41h.4v-.07h-.32v-1.24h.39c.16 0 .33.01.46.08.12.07.22.21.22.51 0 .29-.09.45-.22.54-.13.09-.32.12-.53.11z" id="path68"/><path class="st0" id="polygon70" d="M109.41 82.63h-1.44l-.04-.04v-.19l.04-.04h.53v-3.19h-.53l-.04-.04v-.2l.04-.04h1.44l.04.05v.19l-.04.04h-.53v3.19h.53l.04.04v.21h.04l-.03-.03.03.03h.05v-.25l-.08-.08-.02-.01h-.48v-3.01h.48l.08-.08.02-.02v-.26l-.08-.08-.02-.01h-1.5l-.08.08-.02.01v.26l.08.08.02.02h.48v3.01h-.48l-.08.08-.02.01v.27l.08.08.02.01h1.5l.08-.08.02-.01v-.02h-.05l-.03-.03z"/><path class="st0" d="M112.35 82.31h-.04c0 .07 0 .12-.01.14l-.05.05c-.2.11-.55.2-.88.2-.48 0-.8-.21-1-.56-.21-.35-.29-.85-.29-1.43 0-.53.09-1.01.3-1.35.21-.35.53-.56 1.01-.56.25 0 .48.06.64.14.08.04.15.08.19.11l.05.04.01.01h.01-.01.01-.01.04l-.04-.02-.03.07-.08.15-.07.07.03.03v-.04.02-.02.02-.02l-.07-.04c-.11-.08-.33-.23-.67-.23-.32 0-.56.16-.7.43-.14.27-.2.66-.2 1.14 0 .52.06.95.2 1.26.14.31.37.49.69.49.26 0 .42-.06.53-.11l.02-.01v-1.24h-.47l-.04-.04v-.19l.04-.04h.8l.04.04v1.49h.09v-1.53l-.08-.08-.01-.01h-.87l-.08.08-.01.01v.27l.08.08.01.01h.42v1.13h.04l-.02-.04c-.1.05-.24.1-.5.1-.29 0-.48-.15-.61-.44-.13-.29-.19-.71-.19-1.22 0-.47.06-.84.2-1.1.13-.25.33-.38.62-.39.21 0 .38.07.49.13.06.03.1.07.14.09l.1.05h.02l.08-.09.09-.16.03-.08v-.02c-.01-.05-.04-.08-.09-.12a1.58 1.58 0 00-.88-.26c-.5 0-.86.23-1.08.6-.22.37-.31.86-.31 1.4 0 .58.09 1.1.31 1.47.22.37.57.6 1.08.6.35 0 .71-.09.93-.21l.09-.11c.01-.05.01-.09.01-.17h-.05z" id="path72"/><path class="st0" id="polygon74" d="M114.6 82.63h-1.44l-.04-.04v-.19l.04-.04h.53v-3.19h-.53l-.04-.04v-.19l.04-.05h1.44l.04.05v.19l-.04.04h-.53v3.19h.53l.04.04v.21h.04l-.03-.03.03.03h.04v-.25l-.08-.08-.01-.01h-.48v-3.01h.48l.08-.08.01-.02v-.26l-.08-.08-.01-.01h-1.51l-.08.08-.01.01v.26l.08.08.01.02h.49v3.01h-.49l-.08.08-.01.01v.27l.08.08.01.01h1.51l.08-.08.01-.01v-.02h-.04l-.03-.03z"/><path class="st0" d="M117.77 82.61l-.03-.03-.05.05h-.28l-.07-.04-1.28-2.75c-.07-.14-.12-.32-.15-.48l-.01-.08-.07.07-.02.02v.02c.04.21.06.37.06.49v2.71l-.04.04h-.26l-.04-.04v-3.66l.04-.04h.35l.06.04 1.23 2.59c.06.13.08.25.13.42l.02.07.06-.07.01-.01v-.02c-.02-.12-.05-.24-.05-.33v-2.65l.04-.04h.26l.04.04v3.67h.05l-.03-.03.03.04h.04V78.9l-.08-.08-.01-.01h-.33l-.08.08-.01.01v2.68c0 .11.04.23.05.35l.04-.01-.03-.03-.01.01.03.03.04-.01c-.05-.16-.07-.29-.14-.44l-1.24-2.61-.1-.06-.01-.01h-.41l-.08.08-.01.01v3.73l.08.08.01.01h.33l.08-.08.01-.01v-2.74c0-.13-.01-.29-.06-.51l-.04.01.03.03.01-.01-.03-.03-.04.01c.03.16.09.35.16.5l1.29 2.77.1.06.01.01h.34l.08-.08.01-.01v-.02z" id="path76"/><path class="st0" d="M121.26 82.55l-.04.01.03.09.04-.01h-.04.01l-.01-.01v.01h.01l-.01-.01.01.01-.01-.02-.01.01.01.01-.01-.02h-.39c-.06-.01-.05 0-.06-.03l-.32-1.11h-1.21l-.29 1.11c-.01.02 0 .02-.06.03h-.39l-.01.01.01-.01-.01-.01-.01.01.01-.01-.01.01h.01v-.01l-.01.01h.01-.04l.04.01.03-.09 1.12-3.64.01-.03h.39l.01.03.04-.01-.04.01 1.12 3.64.07.01.04-.01-1.12-3.64-.05-.08-.07-.01h-.33l-.08.02-.04.07-1.12 3.64-.03.1v.02l.05.07.07.01h.35c.07.01.13-.04.14-.09l.28-1.05h1.08l.3 1.05c.01.05.07.1.14.09h.35l.08-.01.05-.07v-.01l-.03-.1zm-1.25-2.64l.04-.01c-.05-.17-.1-.37-.13-.53l-.01-.04h-.09l-.01.04c-.02.13-.08.38-.12.53l-.36 1.29h1.04l-.35-1.29-.01.01-.04.01.32 1.18h-.82l.33-1.18c.04-.15.09-.4.12-.54l-.04-.01v.04h.01v-.04l-.04.01c.03.16.09.36.13.53z" id="path78"/><path class="st0" id="polygon80" d="M123.97 82.35l-.01.04-.08.2-.06.04h-1.66l-.04-.04v-3.66l.04-.04h.29l.04.04v3.4h1.46v-.05l-.02.04.02-.04v-.04h-1.37V78.9l-.08-.08-.01-.01h-.37l-.07.08-.02.01v3.73l.08.08.01.01h1.72l.1-.07.01-.01.09-.22.02-.08.01-.03-.1-.06-.01-.01h-.01v.04l-.02.04z"/></g></g></g></g></svg>