<svg xmlns="http://www.w3.org/2000/svg" xmlns:xlink="http://www.w3.org/1999/xlink" version="1.1" id="Слой_1" x="0" y="0" xml:space="preserve" width="119.23" height="31.32"><defs id="defs381"><clipPath id="SVGID_2_"><use xlink:href="#SVGID_1_" id="use359" x="0" y="0" width="100%" height="100%" overflow="visible"/></clipPath><defs id="defs357"><path id="SVGID_1_" d="M79.93 74.19h48.43v13.42H79.93z"/></defs></defs><style type="text/css" id="style334">.st0{fill:#1f3b71}.st1{clip-path:url(#SVGID_2_);fill:#94c11f}</style><g id="g376" transform="translate(-11.59 -54.09)"><g id="g455"><g id="g430"><path class="st0" d="M11.59 54.89h4.11c2.65 0 4.62.33 5.91.99 1.29.66 2.35 1.72 3.18 3.2.83 1.48 1.25 3.2 1.25 5.18 0 1.4-.23 2.7-.7 3.87-.47 1.18-1.11 2.15-1.93 2.93-.82.78-1.71 1.31-2.67 1.61-.96.3-2.62.45-4.98.45h-4.17zm3.45 3.35v11.5h1.61c1.59 0 2.74-.18 3.45-.55.71-.36 1.3-.98 1.75-1.84.45-.86.68-1.92.68-3.18 0-1.93-.54-3.44-1.62-4.5-.97-.96-2.54-1.44-4.7-1.44h-1.17z" id="path336"/><path class="st0" d="M42.49 67.36H31.62c.16.96.58 1.72 1.26 2.29.68.57 1.55.85 2.61.85 1.26 0 2.35-.44 3.26-1.33l2.85 1.34c-.71 1.01-1.56 1.75-2.55 2.24-.99.48-2.17.72-3.53.72-2.12 0-3.84-.67-5.17-2s-2-3-2-5.01c0-2.06.66-3.77 1.99-5.12 1.33-1.36 2.99-2.04 4.99-2.04 2.12 0 3.85.68 5.18 2.04 1.33 1.36 2 3.15 2 5.39zm-3.38-2.67c-.22-.75-.66-1.36-1.32-1.83s-1.42-.71-2.29-.71c-.94 0-1.77.26-2.48.79-.45.33-.86.91-1.24 1.75z" id="path338"/><path class="st0" d="M45.23 59.64h3.38v1.38c.77-.65 1.46-1.1 2.08-1.35.62-.25 1.26-.38 1.91-.38 1.34 0 2.47.47 3.4 1.4.78.79 1.18 1.97 1.18 3.52v8.91h-3.35v-5.9c0-1.61-.07-2.68-.22-3.21-.14-.53-.4-.93-.75-1.21-.36-.28-.8-.41-1.33-.41-.68 0-1.27.23-1.76.69-.49.46-.83 1.09-1.02 1.9-.1.42-.15 1.33-.15 2.74v5.41h-3.38V59.64z" id="path340"/><path id="polygon342" d="M60.87 59.64v-4.97h3.38v4.97h2.01v2.91h-2.01v10.57h-3.38V62.55h-1.74v-2.91z" class="st0" fill="#1f3b71"/><path class="st0" d="M69.39 54.09c.59 0 1.1.21 1.53.64.42.43.64.95.64 1.56 0 .6-.21 1.12-.63 1.54-.42.43-.92.64-1.51.64-.6 0-1.11-.22-1.54-.65a2.19 2.19 0 01-.64-1.58c0-.6.21-1.1.63-1.52.42-.42.92-.63 1.52-.63m-1.69 5.55h3.38v13.48H67.7z" id="path344"/><path class="st0" d="M74.15 59.64h3.38v1.38c.77-.65 1.46-1.1 2.08-1.35.62-.25 1.26-.38 1.91-.38 1.34 0 2.47.47 3.4 1.4.78.79 1.18 1.97 1.18 3.52v8.91h-3.35v-5.9c0-1.61-.07-2.68-.22-3.21-.14-.53-.4-.93-.75-1.21-.36-.28-.8-.41-1.33-.41-.68 0-1.27.23-1.76.69-.49.46-.83 1.09-1.02 1.9-.1.42-.15 1.33-.15 2.74v5.41h-3.38V59.64z" id="path346"/><path class="st0" d="M99.33 59.64h3.38v13.48h-3.38V71.7c-.66.63-1.32 1.08-1.99 1.36-.66.28-1.38.42-2.16.42-1.74 0-3.25-.68-4.52-2.03-1.27-1.35-1.91-3.03-1.91-5.04 0-2.08.62-3.79 1.84-5.12 1.23-1.33 2.72-1.99 4.48-1.99.81 0 1.57.15 2.28.46.71.31 1.37.76 1.97 1.38v-1.5zm-3.55 2.77c-1.05 0-1.91.37-2.61 1.11-.69.74-1.04 1.69-1.04 2.84 0 1.16.35 2.12 1.06 2.87.7.75 1.57 1.13 2.6 1.13 1.06 0 1.94-.37 2.64-1.11.7-.74 1.05-1.71 1.05-2.91 0-1.17-.35-2.12-1.05-2.85-.7-.71-1.58-1.08-2.65-1.08" id="path348"/><path id="rect350" d="M105.77 54.43h3.38v18.69h-3.38z" class="st0" fill="#1f3b71"/><path class="st0" d="M125.73 67.36h-10.87c.16.96.58 1.72 1.26 2.29.68.57 1.55.85 2.61.85 1.26 0 2.35-.44 3.26-1.33l2.85 1.34c-.71 1.01-1.56 1.75-2.55 2.24-.99.49-2.17.72-3.53.72-2.12 0-3.84-.67-5.17-2s-2-3-2-5.01c0-2.06.66-3.77 1.99-5.12 1.33-1.36 2.99-2.04 4.99-2.04 2.12 0 3.85.68 5.18 2.04 1.33 1.36 2 3.15 2 5.39zm-3.38-2.67c-.22-.75-.66-1.36-1.32-1.83s-1.42-.71-2.29-.71c-.94 0-1.77.26-2.48.79-.45.33-.86.91-1.24 1.75z" id="path352"/><path class="st0" d="M130.82 57.31c0 .47-.12.9-.35 1.3-.23.4-.55.72-.96.95a2.623 2.623 0 01-2.62 0c-.41-.23-.72-.55-.96-.95a2.623 2.623 0 01.96-3.58 2.623 2.623 0 013.93 2.28m-.54.01c0-.58-.2-1.07-.61-1.48-.4-.4-.89-.61-1.47-.61s-1.07.2-1.47.6c-.4.4-.61.89-.61 1.46 0 .37.09.71.27 1.03.18.32.44.57.76.75.32.18.67.28 1.04.28s.72-.09 1.04-.28c.32-.18.58-.43.76-.75.2-.3.29-.64.29-1m-3.16-1.44h1.27c.27 0 .46.03.59.09.13.06.23.15.3.28.08.13.11.28.11.46 0 .15-.02.28-.07.37-.05.1-.13.19-.27.29.11.06.18.13.22.2.04.07.06.2.07.39.02.36.03.56.05.62.02.06.06.11.12.17h-.72c-.03-.08-.05-.14-.06-.19-.01-.05-.01-.14-.02-.27-.01-.25-.02-.41-.04-.47a.237.237 0 00-.11-.13c-.05-.03-.15-.04-.31-.04h-.51v1.11h-.63v-2.88zm.63.55v.68h.53c.2 0 .34-.03.4-.08.07-.06.1-.14.1-.26s-.03-.21-.1-.26c-.06-.05-.2-.08-.4-.08z" id="path354"/><path class="st1" d="M80.93 77.3h1.98v.81c.45-.38.86-.64 1.22-.79.36-.15.74-.22 1.12-.22.78 0 1.45.27 2 .82.46.46.69 1.15.69 2.06v5.22h-1.96v-3.46c0-.94-.04-1.57-.13-1.88-.08-.31-.23-.55-.44-.71-.21-.16-.47-.24-.78-.24-.4 0-.75.13-1.03.4-.29.27-.49.64-.6 1.11-.06.25-.09.78-.09 1.6v3.17h-1.98z" clip-path="url(#SVGID_2_)" id="path362"/><path class="st1" d="M95.69 77.3h1.98v7.9h-1.98v-.84c-.39.37-.77.63-1.16.8-.39.16-.81.24-1.27.24-1.02 0-1.9-.4-2.65-1.19-.74-.79-1.12-1.78-1.12-2.95 0-1.22.36-2.22 1.08-3 .72-.78 1.6-1.17 2.63-1.17.47 0 .92.09 1.33.27.42.18.8.45 1.15.81v-.87zm-2.08 1.62c-.61 0-1.12.22-1.53.65-.41.43-.61.99-.61 1.67 0 .68.21 1.24.62 1.69a2 2 0 001.52.66c.62 0 1.14-.22 1.55-.65.41-.43.62-1 .62-1.7 0-.69-.2-1.24-.62-1.67-.41-.43-.92-.65-1.55-.65" clip-path="url(#SVGID_2_)" id="path364"/><path id="polygon366" clip-path="url(#SVGID_2_)" d="M101.9 74.38v2.92h1.18V79h-1.18v6.2h-1.98V79H98.9v-1.7h1.02v-2.92z" class="st1" fill="#94c11f"/><path class="st1" d="M104.13 77.3h2.01v3.81c0 .74.05 1.25.15 1.54.1.29.27.51.49.67.23.16.5.24.83.24.33 0 .61-.08.84-.24.23-.16.4-.39.51-.69.08-.23.12-.72.12-1.46V77.3h1.98v3.35c0 1.38-.11 2.32-.33 2.83-.27.62-.66 1.1-1.18 1.43-.52.33-1.18.5-1.98.5-.87 0-1.57-.19-2.1-.58-.53-.39-.91-.93-1.13-1.62-.16-.48-.23-1.35-.23-2.61v-3.3z" clip-path="url(#SVGID_2_)" id="path368"/><path class="st1" d="M112.6 77.3h1.7v1c.18-.39.43-.69.73-.89.3-.2.64-.3 1-.3.26 0 .53.07.81.2l-.61 1.69c-.23-.12-.42-.17-.57-.17-.3 0-.56.19-.77.57-.21.38-.32 1.12-.32 2.22l.01.39v3.2h-1.97V77.3z" clip-path="url(#SVGID_2_)" id="path370"/><path class="st1" d="M123.66 77.3h1.98v7.9h-1.98v-.84c-.39.37-.77.63-1.16.8-.39.16-.81.24-1.27.24-1.02 0-1.9-.4-2.65-1.19-.74-.79-1.12-1.78-1.12-2.95 0-1.22.36-2.22 1.08-3 .72-.78 1.6-1.17 2.63-1.17.47 0 .92.09 1.33.27.42.18.8.45 1.15.81v-.87zm-2.08 1.62c-.61 0-1.12.22-1.53.65-.41.43-.61.99-.61 1.67 0 .68.21 1.24.62 1.69a2 2 0 001.52.66c.62 0 1.14-.22 1.55-.65.41-.43.62-1 .62-1.7 0-.69-.2-1.24-.62-1.67-.41-.43-.93-.65-1.55-.65" clip-path="url(#SVGID_2_)" id="path372"/></g></g></g></svg>