<svg xmlns="http://www.w3.org/2000/svg" version="1.1" id="Слой_1" x="0" y="0" xml:space="preserve" width="362.55" height="141.213"><style type="text/css" id="style2">.st0{fill:#002169}</style><g id="g34" transform="translate(-18.63 -25.317)"><g id="g28"><g id="g26"><g id="g20"><g id="g6"><path class="st0" d="M270.59 165.99c-8.09-1.33-9.22-4.17-9.22-16.48v-46.24h3.1c4.2 0 8.54 2.76 8.54 8.16v54.42c-.08.01-1.55.29-2.42.14z" id="path4"/></g><path class="st0" d="M43.19 128.57c20.94 21.35 26.89 27.49 33.92 32.6v.64h-8.85c-4.92 0-8.44-1.28-9.84-2.55-7.31-6.27-18.49-17.01-27.48-27.36l.06 33.35h-4.08c-5.63 0-8.29-2.94-8.29-9.2V73.23h3.93c5.48 0 8.44 2.56 8.44 7.67v46.01c8.99-10.36 20.24-21.09 27.55-27.36 1.41-1.28 4.92-2.55 9.84-2.55h8.86v.64c-7.03 5.11-13.12 9.58-34.06 30.93" id="path8"/><path class="st0" d="M83.82 109.39v-7.95c0-.63-.11-1.7 1.17-2.54 4.24-1.76 11.36-3.31 18.53-3.31 19.12 0 29.24 9.08 29.24 25.69v21.47c0 13.8-8.15 23.77-29.24 23.77-15.33 0-27.39-8.05-27.39-20.2 0-14.7 10.31-24.16 32.82-24.16h11.03v-1.78c0-9.97-5.48-14.05-17.72-14.05-6.41 0-13.23 1.49-17.54 3.58-.52.25-.9-.19-.9-.52zm36.3 23.91h-10.26c-15.05 0-21.94 4.22-21.94 11.76 0 6 6.47 10.73 16.17 10.73 11.39 0 16.03-4.09 16.03-13.93z" id="path10"/><path class="st0" d="M332.23 109.39v-7.95c0-.63-.11-1.7 1.16-2.54 4.24-1.76 11.36-3.31 18.54-3.31 19.12 0 29.25 9.08 29.25 25.69v21.47c0 13.8-8.16 23.77-29.25 23.77-15.33 0-27.39-8.05-27.39-20.2 0-14.7 10.32-24.16 32.81-24.16h11.03v-1.78c0-9.97-5.48-14.05-17.72-14.05-6.41 0-13.23 1.49-17.54 3.58-.52.25-.89-.19-.89-.52zm36.28 23.91h-10.27c-15.04 0-21.93 4.22-21.93 11.76 0 6 6.47 10.73 16.16 10.73 11.39 0 16.03-4.09 16.03-13.93v-8.56z" id="path12"/><path class="st0" d="M172.95 166.53c-20.95 0-33.32-13.93-33.32-33.87V73.23h6.04c3.38 0 7.03 2.3 7.03 7.92v22.47c4.66-5.16 13.51-8.62 24.03-8.03 17.27.97 30.55 12.15 30.55 34.38.01 23.99-12.96 36.56-34.33 36.56zm.42-60.07c-12.09 0-21.73 9.97-21.73 24.8 0 17.13 9.92 23.44 22.99 23.44 12.51 0 20.66-8.74 20.66-23.44.01-18.54-9.69-24.8-21.92-24.8z" id="path14"/><path class="st0" d="M251.51 111.31c-2.39-1.91-6.46-2.68-11.53-2.68-9.98 0-13.77 6.83-13.77 18.27v38.34h-5.49c-4.64 0-7.31-3.32-7.31-7.79v-31.44c0-18.91 10.12-29.01 24.75-29.01 10.26 0 14.06 4.11 14.06 6.2v8.11z" id="path16"/><path class="st0" d="M296.89 97h25.88v3.83c0 4.22-3.1 7.03-9.85 7.03h-15.88v33.87c0 9.71 4.21 13.81 12.37 13.81 4.63 0 9.13-.39 11.8-1.92h.7v4.09c0 5.75-4.92 8.82-13.63 8.82-16.74 0-24.04-7.92-24.04-23.64V98.41c0-3.96 1.12-7.8 3.23-10.61 1.84-2.43 6.05-4.85 7.87-4.85h1.55z" id="path18"/></g><g id="g24"><path class="st0" d="M286.78 47.44c-.09-.19-.04-.48.06-.71.09-.23-.1-.74-.23-.96-.13-.23-.71-.94-.93-1.13-.22-.19-.83-.45-1.13-.67-.29-.23-.39-.46-.87-.91-.28-.26-.9-.77-1.48-1.22l-.13-.21c-.04-1.18-.25-1.95-.78-2.52-.53-.57-.64-.79-.94-1.34-.29-.55-.08-1.4-.74-1.72-.66-.32-.75-.15-1.04-.53-.3-.38.04-1.17-.7-1.06-.74.1-.61 0-.59-.38.01-.38-.37-.26-.7.58-.08.19.06-.24.02-.73-.15-1.64.35-3.22.35-3.59 0 0 .56-3.58.14-4.24-.13-.22-.06-.39-.03-.58.01-.11-.09-.12-.15-.16-.31-.17-.95.18-1.25.85-.37.83-.3.78-.37 1.35-.07.57-.59 1.1-.71 1.27-.53.78-1.3 2.4-1.72 3.23-.39.78-.65 1.24-.84 1.95-.27.1-.27.28-.63.54-.51.39-1.03.9-1.03.9l.16-.51-.52.58s.1-.48-.13-.16c-.22.32-.22.61-.22.61-1.24.16-2.32 1.29-2.32 1.29l.41-.06c-.81.54-1.2.67-1.84 1.81-.44-.29-1.03-.7-1.19-1.01-.23-.44-.6-.81-1.02-.19-.09.14-.16.21-.44.39-.23.14-1.15.33-1.19.99-.04.66.3 1.17.45 1.32.15.15.28.41.28.41s.1.49.25.94c.15.45.72 1.51 1.38 1.7.19.06.36.13.52.21-.03.05-.06.12-.11.15-1.37.82-1.32 2-1.32 2 .57-.33.44.07.33.19-.48.52-.19.8-.19.8.64-.61-.58.68-.87 1.87 0 0 .47-.47.73-.74-.06.07-.19.24-.32.58-.15.43-.28.61-.48 1.09 0 0 .87-.68.77-.42-.04.1.11-.4.03-.06-.32.03-.87.81-1.16.73-.68-.2-1.41-.7-2.04-1-.9-.43-1.52-.48-2.45-.66-1.87-.35-3.43-2.74-4.82-3.87-1.26-1.03-5.71-4.03-9.25-4.59-.06-.01-.14-.02-.22-.03-2.22-.31-2.74-.52-2.98-.93a.219.219 0 01-.03-.05c-.23-.43.04.62.7 1.02h-.01a4.91 4.91 0 00-2.23-.39s.64.11 1.13.54c-3.39.54-7.27 1.82-7.61 2.11l-.04.04c-.08-.04-2.69-.76-3.54-2.27-.6-1.07-1.78-1.88-3-1.61-1.1-.46-1.41-.72-1.53-1.07 0-.02-.01-.04-.02-.06-.14-.49-.09.76.59 1.24 0 0-.56.18-1.9-.01 0 0 .85.39 1.19 1.13-.31.05-.64.22-.94.69v.01s.33-.13.7-.16c-.39 1-.44 2.25.02 2.96.82 1.24 2.15.66 3.6 2.35.2.24.72.85 1.37 1.5-.59 3.38 1.68 4.78.88 8.1-.39 1.62-1 3.13-2.08 4.41-.19.23-.66.54-1.19.89-1.26.76-2.21.41-2.21.41-.05.18-.05.33.43.6-.49.23-1.03.48-1.66.73 0 0 .75.31 1.49-.02-.04.08-.07.16-.08.24-.36 2.11 1.87 4.7.7 6.71-1.05 1.82-.48 1.96-.6 2.8-.08.55-.65.66-.49 1.27.13.49.87.72 1.08 1.18-.61.35-.8.73-.88 1.37-.02.19.01.47.1.8-.06-.12-.12-.25-.18-.39-.32 1.59.45 2.93 1.65 3.89.85.68 2.15-.89 2.16-1.62 0 0-.04.03-.11.07.36-.61.64-1.42.72-2.35 0 0-.61-4.81.27-6.67.6-1.29.53-3.15 1.55-4.24.82-.9 1.97-1.31 2.95-2-.98.92-1.96 1.87-2.47 2.7-.15.13-1.52 1.38-.84 2.5v.02s.08-.79.48-1.15c.02 1.4-.42 1.45.3 2.87 0 .16 2.3 4.9 2.45 5.88.11.7-.52 1.26-.4 1.97.13.81.88.93 1.36 1.47-.41.56-.44 1.24-.23 1.92-.31.94.97 3.18 1.74 3.55 1.78.85 1.78-1.08 1.78-1.08.8-1.46.35-3.34.05-4.78-.12-.56-.7-3.35-.8-3.92-.04-.5-.17-3.14.02-3.83.86-3.04 2.45-3.53 3.43-3.54-.08.22-.27.4-.49.59 0 0 .51-.14.88-.55-.18.43-.16.84-.16.84.21-.5.42-.9 1.05-.79.12.02.34.03.52.48 0 0 .14-.59-.15-.98 1.93-1.23 3.91-4.57 4.48-3.92 0 .01.01.02.01.03.12.56.85.74 1.1.78.03.01.06.03.08.04.04.29-1.24.08-1.24.08.76.68 3.18.55 3.18.55-.39-.01-1.52.84-1.52.84 1.74-.59 3.44 1.43 4.97 1.81 1.53.38 3.4.91 4.12 1.21l-.08-.04c.03.01.05.03.09.04.33 1.63.83 3.91 1.09 4.7.34 1.04-.45 2.85-.74 4.37l-.01-.02c-.15.63-.47 1.03-.95 1.14 0 0 .43.11.87-.05v.01c-.26.22-.52.59-.46 1.12 0 0 .23-.28.61-.42.01.03.03.06.04.1.35.65 1.03 1.09 1.5 1.66.55.67 2.52 4.9 2.92 6.48.15.59.71 2.72 1.48 2.78 0 0 .07 0 .17-.01 0 .04-.01.1-.01.16-.05 1.07.4.92 1.2 1.5.55.39.47 1.76.78 2.05.02.03.06.05.1.07-.08.13.08.26.69.42 1.55.38 2.18 0 3.69.12.12-.98-.14-2.16-.85-2.67l-.04.04c-.13-.91-.53-1.77-1.8-2.98-.61-.58-.61-2.23-.5-3.04.05-.3.2-3.96.3-4.22.34-.38-.74-2.68-.78-4.32-.07-1.92 1.17-2.74 1.35-4.61.18-1.86-.02-3.32.78-5.1.75-1.65 1.93-3.06 2.68-4.71.46-1.02.61-1.88.97-2.62 1.51-1.46 1.65-3.33 1.93-3.76.88-1.35 1.04-1.65 1.74-3.32.66-1.61.76-1.85 1.11-2.34.36-.48 1.87-.42 2.52-.35.64.07.9 0 1.7-.03.8-.03 1.48-.13 2.09-.13.61 0 1.57-.1 2.41-.55.84-.45.73-.68.67-1.16l-.05-.08c.08-.06.16-.13.24-.2.38-.37.18-1.01.09-1.21z" id="path22"/></g></g></g><g id="g32"><path class="st0" d="M380.48 83.96c0 1.21-.3 2.33-.9 3.37a6.627 6.627 0 01-2.47 2.46c-1.04.6-2.17.91-3.39.91-1.21 0-2.33-.3-3.38-.91a6.653 6.653 0 01-2.48-2.46c-.6-1.04-.9-2.17-.9-3.38s.3-2.33.9-3.37a6.802 6.802 0 012.47-2.47c1.04-.6 2.17-.9 3.39-.9a6.727 6.727 0 015.86 3.37c.6 1.04.9 2.16.9 3.38zm-1.4.01c0-1.5-.52-2.77-1.57-3.81s-2.31-1.57-3.78-1.57c-1.49 0-2.76.52-3.81 1.56-1.05 1.04-1.58 2.3-1.58 3.77 0 .95.24 1.84.71 2.66.47.82 1.13 1.46 1.97 1.94.84.48 1.73.72 2.69.72.95 0 1.85-.24 2.69-.71.84-.47 1.49-1.12 1.97-1.93.48-.81.71-1.69.71-2.63zm-8.16-3.7h3.28c.69 0 1.19.08 1.52.23.32.15.58.39.78.72.2.33.3.73.3 1.19 0 .39-.06.72-.18.97s-.35.5-.68.74c.27.15.46.33.56.52.1.19.16.53.19 1.01.04.92.08 1.45.12 1.6.04.15.14.29.31.43h-1.85c-.08-.2-.14-.37-.16-.5-.02-.14-.04-.37-.05-.7-.02-.66-.05-1.06-.1-1.21a.595.595 0 00-.28-.34c-.13-.08-.4-.11-.8-.11h-1.32v2.87h-1.63v-7.42zm1.62 1.42v1.76h1.36c.52 0 .87-.07 1.04-.21.17-.14.26-.37.26-.68 0-.31-.08-.53-.25-.67-.17-.13-.51-.2-1.04-.2z" id="path30"/></g></g></svg>