<svg xmlns="http://www.w3.org/2000/svg" id="nabuhanie_desen" width="64" height="64"><circle id="bg" cx="32" cy="32" r="32" fill="#fff"/><path id="icon" d="M10.887 19h4.889c6.149 0 10.276-2 16.224-2s10.719 3 16.333 3h4.777" fill-rule="evenodd" fill="none" stroke="#0e1f56" stroke-linecap="round" stroke-width="2"/><path id="icon-2" data-name="icon" d="M42.815 27.671c-1.344-1.8-2.757-2.641-4.445-2.641a10.334 10.334 0 00-3.178.685l-.034.011a10.42 10.42 0 01-3.237.694 10.546 10.546 0 01-3.274-.72 10.447 10.447 0 00-3.2-.7c-1.7 0-3.076.856-4.34 2.693-1.989 2.881-.861 5.966.051 8.454a10.008 10.008 0 01.789 2.942c0 4.053.86 10.911 4.08 10.911 2.2 0 2.883-2.547 3.484-4.8.636-2.373 1.187-4.052 2.493-4.052 1.124 0 1.554 1.087 2.149 3.694.518 2.277 1.16 5.111 3.87 5.111 3.78 0 4.075-8.319 4.075-10.869a10.1 10.1 0 01.763-2.883l.015-.043c.898-2.542 2.024-5.702-.061-8.487zm-1.892 7.8l-.014.041a11.328 11.328 0 00-.883 3.571 26.605 26.605 0 01-.7 6.436c-.526 1.949-1.12 2.381-1.307 2.381-.831 0-1.23-.754-1.855-3.518-.51-2.236-1.21-5.292-4.164-5.292-2.991 0-3.858 3.223-4.493 5.587-.347 1.3-.87 3.266-1.484 3.266-.095 0-.7-.412-1.245-2.37a25.37 25.37 0 01-.77-6.487 11.144 11.144 0 00-.918-3.654c-.823-2.246-1.672-4.57-.283-6.579 1.091-1.586 1.944-1.8 2.635-1.8a8.91 8.91 0 012.554.6 12.267 12.267 0 003.924.825 12.337 12.337 0 003.881-.8l.035-.011a8.748 8.748 0 012.533-.583c.709 0 1.595.216 2.785 1.812 1.429 1.904.587 4.28-.23 6.574z" fill="#0e1f56" fill-rule="evenodd"/></svg>