<svg version="1.1" id="_6_12" xmlns="http://www.w3.org/2000/svg" x="0" y="0" viewBox="0 0 386.1 580" xml:space="preserve"><style>.st1,.st2{fill-rule:evenodd;clip-rule:evenodd;fill:#fff;stroke:#000;stroke-width:2}.st2{stroke-linecap:round}</style><path d="M193.1 73.5v-44s83.5-3.8 137.5 69c40.3 54.3 65.7 132.3 51.7 157-13.9 24.6-54.7 22.3-66 2.3-9.1-16.1.8-48.7-13.2-83.2-7.7-19.1-11.5-45.6-27.7-63.5-34.7-38.5-82.3-37.6-82.3-37.6zm0 0v-44s-83.5-3.8-137.5 69c-40.3 54.3-65.7 132.3-51.7 157 13.9 24.6 54.7 22.3 66 2.3 9.1-16.1-2.4-49.4 13.2-83.2C94 151 94.6 129 110.7 111.1c34.8-38.5 82.4-37.6 82.4-37.6zm0 433v46s-83.5 3.8-137.5-69.1C15.3 429-10.1 349 3.9 324.2c13.9-24.6 54.7-22.3 66-2.4 9.1 16.1-.8 48.7 13.2 83.3 7.7 19.1 11.5 45.6 27.6 63.5 34.8 38.8 82.4 37.9 82.4 37.9zm0 0v46s83.5 3.8 137.5-69.1c40.3-54.4 65.7-134.4 51.7-159.1-13.9-24.6-54.7-22.3-66-2.4-9.1 16.1 2.4 49.4-13.2 83.3-10.9 23.7-11.5 45.6-27.7 63.5-34.7 38.7-82.3 37.8-82.3 37.8z" fill-rule="evenodd" clip-rule="evenodd" fill="#f8c5c9"/><path class="st1" d="M224.4 28.1c25.3 2.2 29.7 15.7 18 27.4-11.6 11.6-16.6 18.2-26.6 16.4-10-1.9-15-11-19.3-21.5-4.3-10.6-6.3-15.5.3-20 6.7-4.7 19.8-3 27.6-2.3z"/><path class="st2" d="M238.1 44.2c-3.4-2.8-7.7-4.4-12.2-4.5"/><path class="st1" d="M160.6 28.1c-25.3 2.2-29.7 15.7-18 27.4 11.6 11.6 16.6 18.2 26.6 16.4 10-1.9 15-11 19.3-21.5 4.3-10.6 6.3-15.5-.3-20-6.7-4.7-19.7-3-27.6-2.3z"/><path class="st2" d="M146.9 43.1c3.4-2.8 7.7-4.4 12.2-4.5"/><path class="st1" d="M161.7 551.9c-25.3-2.2-29.7-15.7-18-27.4 11.6-11.6 16.6-18.2 26.6-16.4s15 11 19.3 21.6c4.3 10.7 6.3 15.5-.3 20-6.7 4.6-19.7 2.9-27.6 2.2z"/><path class="st2" d="M148 535.8c3.4 2.8 7.7 4.4 12.2 4.5"/><path class="st1" d="M225.5 551.9c25.3-2.2 29.7-15.7 18-27.4-11.5-11.6-16.5-18.2-26.5-16.4s-15 11-19.3 21.6c-4.3 10.7-6.3 15.5.3 20 6.6 4.6 19.7 2.9 27.5 2.2z"/><path class="st2" d="M239.2 536.9c-3.4 2.8-7.7 4.4-12.2 4.5"/></svg>