<svg xmlns="http://www.w3.org/2000/svg" id="vidavit_2" width="136" height="136"><defs><style>.cls-2{fill:none;stroke:#0e1f56;stroke-linecap:round;stroke-linejoin:round;stroke-width:2px;fill-rule:evenodd}</style></defs><circle cx="68" cy="68" r="67" fill="none" stroke="#0e1f56" stroke-linecap="round" stroke-linejoin="round" stroke-width="2"/><path class="cls-2" d="M3609.95 2992l-3.2 5.61-34.51 40.73s-1.82 3.35 2.41 7.22 7.22 2.41 7.22 2.41l38.52-36.33 6.61-4.2zm-1.2 5.02l7.62 7.42m-48.85 51.22l2.12-2.12 2.13 2.12a3.009 3.009 0 11-4.25 0z" transform="translate(-3509 -2971)"/><path class="cls-2" d="M3572 3043l-3 5 4 4 5-4m-39 13s21.42 1.77 26.43 2.8 6.67 2.92 7.22 4.81-.2 4.32-1 4.61c-1.31.49-13.59-1.15-18.25-1.2s-28.4.98-28.4.98m-3.89-13.61a28.974 28.974 0 016.02-3.61 50.087 50.087 0 01-3.61-12.03c-2.22-2.57-3.8-5.24-3.61-8.43a5.352 5.352 0 016.02-4.81c1.5.87 6.17 11.67 9.62 16.85s4.29 9.92 3.61 12.03-14.81 13.15-17.16 15.61" transform="translate(-3509 -2971)"/><path class="cls-2" d="M3512.49 3026.9c.1-.03.21-.07.32-.1 4.56-1.45 12.03-3.43 14.12-4.71 2.13-1.32 5.62-3.79 8.42-3.61s3.63 3.82 2.41 7.22-6.23 6.9-9.63 8.42m-17.05 7.3c1.84 1.57 1.87 2.05 4.42 4.73 4.12 4.32 5.54 3.75 6.02 7.22.44 3.18-4.52 14.63-4.52 14.63m3.11-28.07l-7.22 2.61" transform="translate(-3509 -2971)"/></svg>