<?xml version="1.0" encoding="UTF-8" standalone="no"?>
<svg
   xmlns:dc="http://purl.org/dc/elements/1.1/"
   xmlns:cc="http://creativecommons.org/ns#"
   xmlns:rdf="http://www.w3.org/1999/02/22-rdf-syntax-ns#"
   xmlns:svg="http://www.w3.org/2000/svg"
   xmlns="http://www.w3.org/2000/svg"
   xmlns:sodipodi="http://sodipodi.sourceforge.net/DTD/sodipodi-0.dtd"
   xmlns:inkscape="http://www.inkscape.org/namespaces/inkscape"
   version="1.1"
   id="Слой_1"
   x="0px"
   y="0px"
   viewBox="0 0 362.54999 141.2126"
   xml:space="preserve"
   sodipodi:docname="logo_kabrita.svg"
   width="362.54999"
   height="141.2126"
   inkscape:version="1.0.1 (3bc2e813f5, 2020-09-07)"><metadata
   id="metadata41"><rdf:RDF><cc:Work
       rdf:about=""><dc:format>image/svg+xml</dc:format><dc:type
         rdf:resource="http://purl.org/dc/dcmitype/StillImage" /><dc:title></dc:title></cc:Work></rdf:RDF></metadata><defs
   id="defs39" /><sodipodi:namedview
   pagecolor="#ffffff"
   bordercolor="#666666"
   borderopacity="1"
   objecttolerance="10"
   gridtolerance="10"
   guidetolerance="10"
   inkscape:pageopacity="0"
   inkscape:pageshadow="2"
   inkscape:window-width="2560"
   inkscape:window-height="1369"
   id="namedview37"
   showgrid="false"
   fit-margin-top="0"
   fit-margin-left="0"
   fit-margin-right="0"
   fit-margin-bottom="0"
   inkscape:zoom="3.7325"
   inkscape:cx="181.37"
   inkscape:cy="69.517599"
   inkscape:window-x="0"
   inkscape:window-y="34"
   inkscape:window-maximized="1"
   inkscape:current-layer="Слой_1" />
<style
   type="text/css"
   id="style2">
	.st0{fill:#002169;}
</style>
<g
   id="g34"
   transform="translate(-18.63,-25.3174)">
	<g
   id="g28">
		<g
   id="g26">
			<g
   id="g20">
				<g
   id="g6">
					<path
   class="st0"
   d="m 270.59,165.99 c -8.09,-1.33 -9.22,-4.17 -9.22,-16.48 v -46.24 h 3.1 c 4.2,0 8.54,2.76 8.54,8.16 v 54.42 c -0.08,0.01 -1.55,0.29 -2.42,0.14 z"
   id="path4" />
				</g>
				<path
   class="st0"
   d="m 43.19,128.57 c 20.94,21.35 26.89,27.49 33.92,32.6 v 0.64 h -8.85 c -4.92,0 -8.44,-1.28 -9.84,-2.55 C 51.11,152.99 39.93,142.25 30.94,131.9 L 31,165.25 h -4.08 c -5.63,0 -8.29,-2.94 -8.29,-9.2 V 73.23 h 3.93 c 5.48,0 8.44,2.56 8.44,7.67 v 46.01 C 39.99,116.55 51.24,105.82 58.55,99.55 59.96,98.27 63.47,97 68.39,97 h 8.86 v 0.64 c -7.03,5.11 -13.12,9.58 -34.06,30.93"
   id="path8" />
				<path
   class="st0"
   d="m 83.82,109.39 c 0,0 0,-7.31 0,-7.95 0,-0.63 -0.11,-1.7 1.17,-2.54 4.24,-1.76 11.36,-3.31 18.53,-3.31 19.12,0 29.24,9.08 29.24,25.69 v 21.47 c 0,13.8 -8.15,23.77 -29.24,23.77 -15.33,0 -27.39,-8.05 -27.39,-20.2 0,-14.7 10.31,-24.16 32.82,-24.16 h 11.03 v -1.78 c 0,-9.97 -5.48,-14.05 -17.72,-14.05 -6.41,0 -13.23,1.49 -17.54,3.58 -0.52,0.25 -0.9,-0.19 -0.9,-0.52 z m 36.3,23.91 h -10.26 c -15.05,0 -21.94,4.22 -21.94,11.76 0,6 6.47,10.73 16.17,10.73 11.39,0 16.03,-4.09 16.03,-13.93 z"
   id="path10" />
				<path
   class="st0"
   d="m 332.23,109.39 c 0,0 0,-7.31 0,-7.95 0,-0.63 -0.11,-1.7 1.16,-2.54 4.24,-1.76 11.36,-3.31 18.54,-3.31 19.12,0 29.25,9.08 29.25,25.69 v 21.47 c 0,13.8 -8.16,23.77 -29.25,23.77 -15.33,0 -27.39,-8.05 -27.39,-20.2 0,-14.7 10.32,-24.16 32.81,-24.16 h 11.03 v -1.78 c 0,-9.97 -5.48,-14.05 -17.72,-14.05 -6.41,0 -13.23,1.49 -17.54,3.58 -0.52,0.25 -0.89,-0.19 -0.89,-0.52 z m 36.28,23.91 h -10.27 c -15.04,0 -21.93,4.22 -21.93,11.76 0,6 6.47,10.73 16.16,10.73 11.39,0 16.03,-4.09 16.03,-13.93 v -8.56 z"
   id="path12" />
				<path
   class="st0"
   d="m 172.95,166.53 c -20.95,0 -33.32,-13.93 -33.32,-33.87 V 73.23 h 6.04 c 3.38,0 7.03,2.3 7.03,7.92 v 22.47 c 4.66,-5.16 13.51,-8.62 24.03,-8.03 17.27,0.97 30.55,12.15 30.55,34.38 0.01,23.99 -12.96,36.56 -34.33,36.56 z m 0.42,-60.07 c -12.09,0 -21.73,9.97 -21.73,24.8 0,17.13 9.92,23.44 22.99,23.44 12.51,0 20.66,-8.74 20.66,-23.44 0.01,-18.54 -9.69,-24.8 -21.92,-24.8 z"
   id="path14" />
				<path
   class="st0"
   d="m 251.51,111.31 c -2.39,-1.91 -6.46,-2.68 -11.53,-2.68 -9.98,0 -13.77,6.83 -13.77,18.27 v 38.34 h -5.49 c -4.64,0 -7.31,-3.32 -7.31,-7.79 v -31.44 c 0,-18.91 10.12,-29.01 24.75,-29.01 10.26,0 14.06,4.11 14.06,6.2 v 8.11 z"
   id="path16" />
				<path
   class="st0"
   d="m 296.89,97 h 25.88 v 3.83 c 0,4.22 -3.1,7.03 -9.85,7.03 h -15.88 v 33.87 c 0,9.71 4.21,13.81 12.37,13.81 4.63,0 9.13,-0.39 11.8,-1.92 h 0.7 v 4.09 c 0,5.75 -4.92,8.82 -13.63,8.82 -16.74,0 -24.04,-7.92 -24.04,-23.64 V 98.41 c 0,-3.96 1.12,-7.8 3.23,-10.61 1.84,-2.43 6.05,-4.85 7.87,-4.85 h 1.55 z"
   id="path18" />
			</g>
			<g
   id="g24">
				<path
   class="st0"
   d="m 286.78,47.44 c -0.09,-0.19 -0.04,-0.48 0.06,-0.71 0.09,-0.23 -0.1,-0.74 -0.23,-0.96 -0.13,-0.23 -0.71,-0.94 -0.93,-1.13 -0.22,-0.19 -0.83,-0.45 -1.13,-0.67 -0.29,-0.23 -0.39,-0.46 -0.87,-0.91 -0.28,-0.26 -0.9,-0.77 -1.48,-1.22 l -0.13,-0.21 c -0.04,-1.18 -0.25,-1.95 -0.78,-2.52 -0.53,-0.57 -0.64,-0.79 -0.94,-1.34 -0.29,-0.55 -0.08,-1.4 -0.74,-1.72 -0.66,-0.32 -0.75,-0.15 -1.04,-0.53 -0.3,-0.38 0.04,-1.17 -0.7,-1.06 -0.74,0.1 -0.61,0 -0.59,-0.38 0.01,-0.38 -0.37,-0.26 -0.7,0.58 -0.08,0.19 0.06,-0.24 0.02,-0.73 -0.15,-1.64 0.35,-3.22 0.35,-3.59 0,0 0.56,-3.58 0.14,-4.24 -0.13,-0.22 -0.06,-0.39 -0.03,-0.58 0.01,-0.11 -0.09,-0.12 -0.15,-0.16 -0.31,-0.17 -0.95,0.18 -1.25,0.85 -0.37,0.83 -0.3,0.78 -0.37,1.35 -0.07,0.57 -0.59,1.1 -0.71,1.27 -0.53,0.78 -1.3,2.4 -1.72,3.23 -0.39,0.78 -0.65,1.24 -0.84,1.95 -0.27,0.1 -0.27,0.28 -0.63,0.54 -0.51,0.39 -1.03,0.9 -1.03,0.9 l 0.16,-0.51 -0.52,0.58 c 0,0 0.1,-0.48 -0.13,-0.16 -0.22,0.32 -0.22,0.61 -0.22,0.61 -1.24,0.16 -2.32,1.29 -2.32,1.29 l 0.41,-0.06 c -0.81,0.54 -1.2,0.67 -1.84,1.81 -0.44,-0.29 -1.03,-0.7 -1.19,-1.01 -0.23,-0.44 -0.6,-0.81 -1.02,-0.19 -0.09,0.14 -0.16,0.21 -0.44,0.39 -0.23,0.14 -1.15,0.33 -1.19,0.99 -0.04,0.66 0.3,1.17 0.45,1.32 0.15,0.15 0.28,0.41 0.28,0.41 0,0 0.1,0.49 0.25,0.94 0.15,0.45 0.72,1.51 1.38,1.7 0.19,0.06 0.36,0.13 0.52,0.21 -0.03,0.05 -0.06,0.12 -0.11,0.15 -1.37,0.82 -1.32,2 -1.32,2 0.57,-0.33 0.44,0.07 0.33,0.19 -0.48,0.52 -0.19,0.8 -0.19,0.8 0.64,-0.61 -0.58,0.68 -0.87,1.87 0,0 0.47,-0.47 0.73,-0.74 -0.06,0.07 -0.19,0.24 -0.32,0.58 -0.15,0.43 -0.28,0.61 -0.48,1.09 0,0 0.87,-0.68 0.77,-0.42 -0.04,0.1 0.11,-0.4 0.03,-0.06 -0.32,0.03 -0.87,0.81 -1.16,0.73 -0.68,-0.2 -1.41,-0.7 -2.04,-1 -0.9,-0.43 -1.52,-0.48 -2.45,-0.66 -1.87,-0.35 -3.43,-2.74 -4.82,-3.87 -1.26,-1.03 -5.71,-4.03 -9.25,-4.59 -0.06,-0.01 -0.14,-0.02 -0.22,-0.03 -2.22,-0.31 -2.74,-0.52 -2.98,-0.93 -0.01,-0.01 -0.02,-0.03 -0.03,-0.05 -0.23,-0.43 0.04,0.62 0.7,1.02 0,0 -0.01,0 -0.01,0 -0.32,-0.14 -1.17,-0.46 -2.23,-0.39 0,0 0.64,0.11 1.13,0.54 -3.39,0.54 -7.27,1.82 -7.61,2.11 -0.01,0.01 -0.02,0.02 -0.04,0.04 -0.08,-0.04 -2.69,-0.76 -3.54,-2.27 -0.6,-1.07 -1.78,-1.88 -3,-1.61 -1.1,-0.46 -1.41,-0.72 -1.53,-1.07 0,-0.02 -0.01,-0.04 -0.02,-0.06 -0.14,-0.49 -0.09,0.76 0.59,1.24 0,0 -0.56,0.18 -1.9,-0.01 0,0 0.85,0.39 1.19,1.13 -0.31,0.05 -0.64,0.22 -0.94,0.69 0,0 0,0.01 0,0.01 0,0 0.33,-0.13 0.7,-0.16 -0.39,1 -0.44,2.25 0.02,2.96 0.82,1.24 2.15,0.66 3.6,2.35 0.2,0.24 0.72,0.85 1.37,1.5 -0.59,3.38 1.68,4.78 0.88,8.1 -0.39,1.62 -1,3.13 -2.08,4.41 -0.19,0.23 -0.66,0.54 -1.19,0.89 -1.26,0.76 -2.21,0.41 -2.21,0.41 -0.05,0.18 -0.05,0.33 0.43,0.6 -0.49,0.23 -1.03,0.48 -1.66,0.73 0,0 0.75,0.31 1.49,-0.02 -0.04,0.08 -0.07,0.16 -0.08,0.24 -0.36,2.11 1.87,4.7 0.7,6.71 -1.05,1.82 -0.48,1.96 -0.6,2.8 -0.08,0.55 -0.65,0.66 -0.49,1.27 0.13,0.49 0.87,0.72 1.08,1.18 -0.61,0.35 -0.8,0.73 -0.88,1.37 -0.02,0.19 0.01,0.47 0.1,0.8 -0.06,-0.12 -0.12,-0.25 -0.18,-0.39 -0.32,1.59 0.45,2.93 1.65,3.89 0.85,0.68 2.15,-0.89 2.16,-1.62 0,0 -0.04,0.03 -0.11,0.07 0.36,-0.61 0.64,-1.42 0.72,-2.35 0,0 -0.61,-4.81 0.27,-6.67 0.6,-1.29 0.53,-3.15 1.55,-4.24 0.82,-0.9 1.97,-1.31 2.95,-2 -0.98,0.92 -1.96,1.87 -2.47,2.7 -0.15,0.13 -1.52,1.38 -0.84,2.5 0,0.01 0,0.01 0,0.02 0,0 0.08,-0.79 0.48,-1.15 0.02,1.4 -0.42,1.45 0.3,2.87 0,0.16 2.3,4.9 2.45,5.88 0.11,0.7 -0.52,1.26 -0.4,1.97 0.13,0.81 0.88,0.93 1.36,1.47 -0.41,0.56 -0.44,1.24 -0.23,1.92 -0.31,0.94 0.97,3.18 1.74,3.55 1.78,0.85 1.78,-1.08 1.78,-1.08 0.8,-1.46 0.35,-3.34 0.05,-4.78 -0.12,-0.56 -0.7,-3.35 -0.8,-3.92 -0.04,-0.5 -0.17,-3.14 0.02,-3.83 0.86,-3.04 2.45,-3.53 3.43,-3.54 -0.08,0.22 -0.27,0.4 -0.49,0.59 0,0 0.51,-0.14 0.88,-0.55 -0.18,0.43 -0.16,0.84 -0.16,0.84 0.21,-0.5 0.42,-0.9 1.05,-0.79 0.12,0.02 0.34,0.03 0.52,0.48 0,0 0.14,-0.59 -0.15,-0.98 1.93,-1.23 3.91,-4.57 4.48,-3.92 0,0.01 0.01,0.02 0.01,0.03 v 0 c 0.12,0.56 0.85,0.74 1.1,0.78 0.03,0.01 0.06,0.03 0.08,0.04 0.04,0.29 -1.24,0.08 -1.24,0.08 0.76,0.68 3.18,0.55 3.18,0.55 -0.39,-0.01 -1.52,0.84 -1.52,0.84 1.74,-0.59 3.44,1.43 4.97,1.81 1.53,0.38 3.4,0.91 4.12,1.21 l -0.08,-0.04 c 0.03,0.01 0.05,0.03 0.09,0.04 0.33,1.63 0.83,3.91 1.09,4.7 0.34,1.04 -0.45,2.85 -0.74,4.37 l -0.01,-0.02 c -0.15,0.63 -0.47,1.03 -0.95,1.14 0,0 0.43,0.11 0.87,-0.05 0,0 0,0.01 0,0.01 -0.26,0.22 -0.52,0.59 -0.46,1.12 0,0 0.23,-0.28 0.61,-0.42 0.01,0.03 0.03,0.06 0.04,0.1 0.35,0.65 1.03,1.09 1.5,1.66 0.55,0.67 2.52,4.9 2.92,6.48 0.15,0.59 0.71,2.72 1.48,2.78 0,0 0.07,0 0.17,-0.01 0,0.04 -0.01,0.1 -0.01,0.16 -0.05,1.07 0.4,0.92 1.2,1.5 0.55,0.39 0.47,1.76 0.78,2.05 0.02,0.03 0.06,0.05 0.1,0.07 -0.08,0.13 0.08,0.26 0.69,0.42 1.55,0.38 2.18,0 3.69,0.12 0.12,-0.98 -0.14,-2.16 -0.85,-2.67 0,0 -0.02,0.02 -0.04,0.04 -0.13,-0.91 -0.53,-1.77 -1.8,-2.98 -0.61,-0.58 -0.61,-2.23 -0.5,-3.04 0.05,-0.3 0.2,-3.96 0.3,-4.22 0.34,-0.38 -0.74,-2.68 -0.78,-4.32 -0.07,-1.92 1.17,-2.74 1.35,-4.61 0.18,-1.86 -0.02,-3.32 0.78,-5.1 0.75,-1.65 1.93,-3.06 2.68,-4.71 0.46,-1.02 0.61,-1.88 0.97,-2.62 1.51,-1.46 1.65,-3.33 1.93,-3.76 0.88,-1.35 1.04,-1.65 1.74,-3.32 0.66,-1.61 0.76,-1.85 1.11,-2.34 0.36,-0.48 1.87,-0.42 2.52,-0.35 0.64,0.07 0.9,0 1.7,-0.03 0.8,-0.03 1.48,-0.13 2.09,-0.13 0.61,0 1.57,-0.1 2.41,-0.55 0.84,-0.45 0.73,-0.68 0.67,-1.16 l -0.05,-0.08 c 0.08,-0.06 0.16,-0.13 0.24,-0.2 0.38,-0.37 0.18,-1.01 0.09,-1.21 z"
   id="path22" />
			</g>
		</g>
	</g>
	<g
   id="g32">
		<path
   class="st0"
   d="m 380.48,83.96 c 0,1.21 -0.3,2.33 -0.9,3.37 -0.6,1.04 -1.43,1.86 -2.47,2.46 -1.04,0.6 -2.17,0.91 -3.39,0.91 -1.21,0 -2.33,-0.3 -3.38,-0.91 -1.05,-0.6 -1.87,-1.42 -2.48,-2.46 -0.6,-1.04 -0.9,-2.17 -0.9,-3.38 0,-1.21 0.3,-2.33 0.9,-3.37 0.61,-1.04 1.43,-1.86 2.47,-2.47 1.04,-0.6 2.17,-0.9 3.39,-0.9 1.21,0 2.34,0.3 3.39,0.9 1.04,0.61 1.87,1.43 2.47,2.47 0.6,1.04 0.9,2.16 0.9,3.38 z m -1.4,0.01 c 0,-1.5 -0.52,-2.77 -1.57,-3.81 -1.05,-1.04 -2.31,-1.57 -3.78,-1.57 -1.49,0 -2.76,0.52 -3.81,1.56 -1.05,1.04 -1.58,2.3 -1.58,3.77 0,0.95 0.24,1.84 0.71,2.66 0.47,0.82 1.13,1.46 1.97,1.94 0.84,0.48 1.73,0.72 2.69,0.72 0.95,0 1.85,-0.24 2.69,-0.71 0.84,-0.47 1.49,-1.12 1.97,-1.93 0.48,-0.81 0.71,-1.69 0.71,-2.63 z m -8.16,-3.7 h 3.28 c 0.69,0 1.19,0.08 1.52,0.23 0.32,0.15 0.58,0.39 0.78,0.72 0.2,0.33 0.3,0.73 0.3,1.19 0,0.39 -0.06,0.72 -0.18,0.97 -0.12,0.25 -0.35,0.5 -0.68,0.74 0.27,0.15 0.46,0.33 0.56,0.52 0.1,0.19 0.16,0.53 0.19,1.01 0.04,0.92 0.08,1.45 0.12,1.6 0.04,0.15 0.14,0.29 0.31,0.43 h -1.85 c -0.08,-0.2 -0.14,-0.37 -0.16,-0.5 -0.02,-0.14 -0.04,-0.37 -0.05,-0.7 -0.02,-0.66 -0.05,-1.06 -0.1,-1.21 -0.05,-0.15 -0.15,-0.27 -0.28,-0.34 -0.13,-0.08 -0.4,-0.11 -0.8,-0.11 h -1.32 v 2.87 h -1.63 v -7.42 z m 1.62,1.42 v 1.76 h 1.36 c 0.52,0 0.87,-0.07 1.04,-0.21 0.17,-0.14 0.26,-0.37 0.26,-0.68 0,-0.31 -0.08,-0.53 -0.25,-0.67 -0.17,-0.13 -0.51,-0.2 -1.04,-0.2 z"
   id="path30" />
	</g>
</g>
</svg>
