<?xml version="1.0" encoding="UTF-8" standalone="no"?>
<svg
   xmlns:dc="http://purl.org/dc/elements/1.1/"
   xmlns:cc="http://creativecommons.org/ns#"
   xmlns:rdf="http://www.w3.org/1999/02/22-rdf-syntax-ns#"
   xmlns:svg="http://www.w3.org/2000/svg"
   xmlns="http://www.w3.org/2000/svg"
   xmlns:xlink="http://www.w3.org/1999/xlink"
   xmlns:sodipodi="http://sodipodi.sourceforge.net/DTD/sodipodi-0.dtd"
   xmlns:inkscape="http://www.inkscape.org/namespaces/inkscape"
   version="1.1"
   id="Слой_1"
   x="0px"
   y="0px"
   viewBox="0 0 119.23 31.320001"
   xml:space="preserve"
   sodipodi:docname="logo_dentinale-test.svg"
   width="119.23"
   height="31.32"
   inkscape:version="1.0.1 (3bc2e813f5, 2020-09-07)"><metadata
   id="metadata383"><rdf:RDF><cc:Work
       rdf:about=""><dc:format>image/svg+xml</dc:format><dc:type
         rdf:resource="http://purl.org/dc/dcmitype/StillImage" /><dc:title></dc:title></cc:Work></rdf:RDF></metadata><defs
   id="defs381">
		<defs
   id="defs357">
			<rect
   id="SVGID_1_"
   x="79.93"
   y="74.190002"
   width="48.43"
   height="13.42" />
		</defs>
		<clipPath
   id="SVGID_2_">
			<use
   xlink:href="#SVGID_1_"
   style="overflow:visible"
   id="use359"
   x="0"
   y="0"
   width="100%"
   height="100%" />
		</clipPath>
		
		
		
		
		
		
	</defs><sodipodi:namedview
   pagecolor="#ffffff"
   bordercolor="#666666"
   borderopacity="1"
   objecttolerance="10"
   gridtolerance="10"
   guidetolerance="10"
   inkscape:pageopacity="0"
   inkscape:pageshadow="2"
   inkscape:window-width="2560"
   inkscape:window-height="1369"
   id="namedview379"
   showgrid="false"
   fit-margin-top="0"
   fit-margin-left="0"
   fit-margin-right="0"
   fit-margin-bottom="0"
   inkscape:zoom="11.313709"
   inkscape:cx="57.047282"
   inkscape:cy="17.084213"
   inkscape:window-x="0"
   inkscape:window-y="34"
   inkscape:window-maximized="1"
   inkscape:current-layer="g430" />
<style
   type="text/css"
   id="style334">
	.st0{fill:#1F3B71;}
	.st1{clip-path:url(#SVGID_2_);fill:#94C11F;}
</style>
<g
   id="g376"
   transform="translate(-11.59,-54.09)">
	
	
	
	
	
	
	
	
	
	
	<g
   id="g455"><g
     id="g430"><path
       class="st0"
       d="m 11.59,54.89 h 4.11 c 2.65,0 4.62,0.33 5.91,0.99 1.29,0.66 2.35,1.72 3.18,3.2 0.83,1.48 1.25,3.2 1.25,5.18 0,1.4 -0.23,2.7 -0.7,3.87 -0.47,1.18 -1.11,2.15 -1.93,2.93 -0.82,0.78 -1.71,1.31 -2.67,1.61 -0.96,0.3 -2.62,0.45 -4.98,0.45 h -4.17 z m 3.45,3.35 v 11.5 h 1.61 c 1.59,0 2.74,-0.18 3.45,-0.55 0.71,-0.36 1.3,-0.98 1.75,-1.84 0.45,-0.86 0.68,-1.92 0.68,-3.18 0,-1.93 -0.54,-3.44 -1.62,-4.5 -0.97,-0.96 -2.54,-1.44 -4.7,-1.44 h -1.17 z"
       id="path336" /><path
       class="st0"
       d="M 42.49,67.36 H 31.62 c 0.16,0.96 0.58,1.72 1.26,2.29 0.68,0.57 1.55,0.85 2.61,0.85 1.26,0 2.35,-0.44 3.26,-1.33 l 2.85,1.34 c -0.71,1.01 -1.56,1.75 -2.55,2.24 -0.99,0.48 -2.17,0.72 -3.53,0.72 -2.12,0 -3.84,-0.67 -5.17,-2 -1.33,-1.33 -2,-3 -2,-5.01 0,-2.06 0.66,-3.77 1.99,-5.12 1.33,-1.36 2.99,-2.04 4.99,-2.04 2.12,0 3.85,0.68 5.18,2.04 1.33,1.36 2,3.15 2,5.39 z m -3.38,-2.67 c -0.22,-0.75 -0.66,-1.36 -1.32,-1.83 -0.66,-0.47 -1.42,-0.71 -2.29,-0.71 -0.94,0 -1.77,0.26 -2.48,0.79 -0.45,0.33 -0.86,0.91 -1.24,1.75 z"
       id="path338" /><path
       class="st0"
       d="m 45.23,59.64 h 3.38 v 1.38 c 0.77,-0.65 1.46,-1.1 2.08,-1.35 0.62,-0.25 1.26,-0.38 1.91,-0.38 1.34,0 2.47,0.47 3.4,1.4 0.78,0.79 1.18,1.97 1.18,3.52 v 8.91 h -3.35 v -5.9 c 0,-1.61 -0.07,-2.68 -0.22,-3.21 -0.14,-0.53 -0.4,-0.93 -0.75,-1.21 -0.36,-0.28 -0.8,-0.41 -1.33,-0.41 -0.68,0 -1.27,0.23 -1.76,0.69 -0.49,0.46 -0.83,1.09 -1.02,1.9 -0.1,0.42 -0.15,1.33 -0.15,2.74 v 5.41 H 45.22 V 59.64 Z"
       id="path340" /><path
       id="polygon342"
       style="fill:#1f3b71"
       d="m 60.87,59.64 v -4.97 h 3.38 v 4.97 h 2.01 v 2.91 H 64.25 V 73.12 H 60.87 V 62.55 h -1.74 v -2.91 z"
       class="st0" /><path
       class="st0"
       d="m 69.39,54.09 c 0.59,0 1.1,0.21 1.53,0.64 0.42,0.43 0.64,0.95 0.64,1.56 0,0.6 -0.21,1.12 -0.63,1.54 -0.42,0.43 -0.92,0.64 -1.51,0.64 -0.6,0 -1.11,-0.22 -1.54,-0.65 -0.42,-0.43 -0.64,-0.96 -0.64,-1.58 0,-0.6 0.21,-1.1 0.63,-1.52 0.42,-0.42 0.92,-0.63 1.52,-0.63 m -1.69,5.55 h 3.38 V 73.12 H 67.7 Z"
       id="path344" /><path
       class="st0"
       d="m 74.15,59.64 h 3.38 v 1.38 c 0.77,-0.65 1.46,-1.1 2.08,-1.35 0.62,-0.25 1.26,-0.38 1.91,-0.38 1.34,0 2.47,0.47 3.4,1.4 0.78,0.79 1.18,1.97 1.18,3.52 v 8.91 h -3.35 v -5.9 c 0,-1.61 -0.07,-2.68 -0.22,-3.21 -0.14,-0.53 -0.4,-0.93 -0.75,-1.21 -0.36,-0.28 -0.8,-0.41 -1.33,-0.41 -0.68,0 -1.27,0.23 -1.76,0.69 -0.49,0.46 -0.83,1.09 -1.02,1.9 -0.1,0.42 -0.15,1.33 -0.15,2.74 v 5.41 H 74.14 V 59.64 Z"
       id="path346" /><path
       class="st0"
       d="m 99.33,59.64 h 3.38 V 73.12 H 99.33 V 71.7 c -0.66,0.63 -1.32,1.08 -1.99,1.36 -0.66,0.28 -1.38,0.42 -2.16,0.42 -1.74,0 -3.25,-0.68 -4.52,-2.03 -1.27,-1.35 -1.91,-3.03 -1.91,-5.04 0,-2.08 0.62,-3.79 1.84,-5.12 1.23,-1.33 2.72,-1.99 4.48,-1.99 0.81,0 1.57,0.15 2.28,0.46 0.71,0.31 1.37,0.76 1.97,1.38 v -1.5 z m -3.55,2.77 c -1.05,0 -1.91,0.37 -2.61,1.11 -0.69,0.74 -1.04,1.69 -1.04,2.84 0,1.16 0.35,2.12 1.06,2.87 0.7,0.75 1.57,1.13 2.6,1.13 1.06,0 1.94,-0.37 2.64,-1.11 0.7,-0.74 1.05,-1.71 1.05,-2.91 0,-1.17 -0.35,-2.12 -1.05,-2.85 -0.7,-0.71 -1.58,-1.08 -2.65,-1.08"
       id="path348" /><path
       id="rect350"
       style="fill:#1f3b71"
       d="m 105.77,54.43 h 3.38 v 18.690001 h -3.38 z"
       class="st0" /><path
       class="st0"
       d="m 125.73,67.36 h -10.87 c 0.16,0.96 0.58,1.72 1.26,2.29 0.68,0.57 1.55,0.85 2.61,0.85 1.26,0 2.35,-0.44 3.26,-1.33 l 2.85,1.34 c -0.71,1.01 -1.56,1.75 -2.55,2.24 -0.99,0.49 -2.17,0.72 -3.53,0.72 -2.12,0 -3.84,-0.67 -5.17,-2 -1.33,-1.33 -2,-3 -2,-5.01 0,-2.06 0.66,-3.77 1.99,-5.12 1.33,-1.36 2.99,-2.04 4.99,-2.04 2.12,0 3.85,0.68 5.18,2.04 1.33,1.36 2,3.15 2,5.39 z m -3.38,-2.67 c -0.22,-0.75 -0.66,-1.36 -1.32,-1.83 -0.66,-0.47 -1.42,-0.71 -2.29,-0.71 -0.94,0 -1.77,0.26 -2.48,0.79 -0.45,0.33 -0.86,0.91 -1.24,1.75 z"
       id="path352" /><path
       class="st0"
       d="m 130.82,57.31 c 0,0.47 -0.12,0.9 -0.35,1.3 -0.23,0.4 -0.55,0.72 -0.96,0.95 -0.41,0.23 -0.84,0.35 -1.31,0.35 -0.47,0 -0.9,-0.12 -1.31,-0.35 -0.41,-0.23 -0.72,-0.55 -0.96,-0.95 -0.23,-0.4 -0.35,-0.84 -0.35,-1.31 0,-0.47 0.12,-0.9 0.35,-1.31 0.23,-0.4 0.55,-0.72 0.96,-0.96 0.41,-0.23 0.84,-0.35 1.31,-0.35 0.47,0 0.91,0.12 1.31,0.35 0.4,0.23 0.72,0.55 0.96,0.96 0.24,0.41 0.35,0.85 0.35,1.32 m -0.54,0.01 c 0,-0.58 -0.2,-1.07 -0.61,-1.48 -0.4,-0.4 -0.89,-0.61 -1.47,-0.61 -0.58,0 -1.07,0.2 -1.47,0.6 -0.4,0.4 -0.61,0.89 -0.61,1.46 0,0.37 0.09,0.71 0.27,1.03 0.18,0.32 0.44,0.57 0.76,0.75 0.32,0.18 0.67,0.28 1.04,0.28 0.37,0 0.72,-0.09 1.04,-0.28 0.32,-0.18 0.58,-0.43 0.76,-0.75 0.2,-0.3 0.29,-0.64 0.29,-1 m -3.16,-1.44 h 1.27 c 0.27,0 0.46,0.03 0.59,0.09 0.13,0.06 0.23,0.15 0.3,0.28 0.08,0.13 0.11,0.28 0.11,0.46 0,0.15 -0.02,0.28 -0.07,0.37 -0.05,0.1 -0.13,0.19 -0.27,0.29 0.11,0.06 0.18,0.13 0.22,0.2 0.04,0.07 0.06,0.2 0.07,0.39 0.02,0.36 0.03,0.56 0.05,0.62 0.02,0.06 0.06,0.11 0.12,0.17 h -0.72 c -0.03,-0.08 -0.05,-0.14 -0.06,-0.19 -0.01,-0.05 -0.01,-0.14 -0.02,-0.27 -0.01,-0.25 -0.02,-0.41 -0.04,-0.47 -0.02,-0.06 -0.06,-0.1 -0.11,-0.13 -0.05,-0.03 -0.15,-0.04 -0.31,-0.04 h -0.51 v 1.11 h -0.63 v -2.88 z m 0.63,0.55 v 0.68 h 0.53 c 0.2,0 0.34,-0.03 0.4,-0.08 0.07,-0.06 0.1,-0.14 0.1,-0.26 0,-0.12 -0.03,-0.21 -0.1,-0.26 -0.06,-0.05 -0.2,-0.08 -0.4,-0.08 z"
       id="path354" /><path
       class="st1"
       d="m 80.93,77.3 h 1.98 v 0.81 c 0.45,-0.38 0.86,-0.64 1.22,-0.79 0.36,-0.15 0.74,-0.22 1.12,-0.22 0.78,0 1.45,0.27 2,0.82 0.46,0.46 0.69,1.15 0.69,2.06 v 5.22 h -1.96 v -3.46 c 0,-0.94 -0.04,-1.57 -0.13,-1.88 -0.08,-0.31 -0.23,-0.55 -0.44,-0.71 -0.21,-0.16 -0.47,-0.24 -0.78,-0.24 -0.4,0 -0.75,0.13 -1.03,0.4 -0.29,0.27 -0.49,0.64 -0.6,1.11 -0.06,0.25 -0.09,0.78 -0.09,1.6 v 3.17 h -1.98 z"
       clip-path="url(#SVGID_2_)"
       id="path362" /><path
       class="st1"
       d="m 95.69,77.3 h 1.98 v 7.9 h -1.98 v -0.84 c -0.39,0.37 -0.77,0.63 -1.16,0.8 -0.39,0.16 -0.81,0.24 -1.27,0.24 -1.02,0 -1.9,-0.4 -2.65,-1.19 -0.74,-0.79 -1.12,-1.78 -1.12,-2.95 0,-1.22 0.36,-2.22 1.08,-3 0.72,-0.78 1.6,-1.17 2.63,-1.17 0.47,0 0.92,0.09 1.33,0.27 0.42,0.18 0.8,0.45 1.15,0.81 V 77.3 Z m -2.08,1.62 c -0.61,0 -1.12,0.22 -1.53,0.65 -0.41,0.43 -0.61,0.99 -0.61,1.67 0,0.68 0.21,1.24 0.62,1.69 0.41,0.44 0.92,0.66 1.52,0.66 0.62,0 1.14,-0.22 1.55,-0.65 0.41,-0.43 0.62,-1 0.62,-1.7 0,-0.69 -0.2,-1.24 -0.62,-1.67 -0.41,-0.43 -0.92,-0.65 -1.55,-0.65"
       clip-path="url(#SVGID_2_)"
       id="path364" /><path
       id="polygon366"
       clip-path="url(#SVGID_2_)"
       style="fill:#94c11f"
       d="m 101.9,74.38 v 2.92 h 1.18 V 79 h -1.18 v 6.2 H 99.92 V 79 H 98.9 v -1.7 h 1.02 v -2.92 z"
       class="st1" /><path
       class="st1"
       d="m 104.13,77.3 h 2.01 v 3.81 c 0,0.74 0.05,1.25 0.15,1.54 0.1,0.29 0.27,0.51 0.49,0.67 0.23,0.16 0.5,0.24 0.83,0.24 0.33,0 0.61,-0.08 0.84,-0.24 0.23,-0.16 0.4,-0.39 0.51,-0.69 0.08,-0.23 0.12,-0.72 0.12,-1.46 V 77.3 h 1.98 v 3.35 c 0,1.38 -0.11,2.32 -0.33,2.83 -0.27,0.62 -0.66,1.1 -1.18,1.43 -0.52,0.33 -1.18,0.5 -1.98,0.5 -0.87,0 -1.57,-0.19 -2.1,-0.58 -0.53,-0.39 -0.91,-0.93 -1.13,-1.62 -0.16,-0.48 -0.23,-1.35 -0.23,-2.61 v -3.3 z"
       clip-path="url(#SVGID_2_)"
       id="path368" /><path
       class="st1"
       d="m 112.6,77.3 h 1.7 v 1 c 0.18,-0.39 0.43,-0.69 0.73,-0.89 0.3,-0.2 0.64,-0.3 1,-0.3 0.26,0 0.53,0.07 0.81,0.2 L 116.23,79 c -0.23,-0.12 -0.42,-0.17 -0.57,-0.17 -0.3,0 -0.56,0.19 -0.77,0.57 -0.21,0.38 -0.32,1.12 -0.32,2.22 l 0.01,0.39 v 3.2 h -1.97 V 77.3 Z"
       clip-path="url(#SVGID_2_)"
       id="path370" /><path
       class="st1"
       d="m 123.66,77.3 h 1.98 v 7.9 h -1.98 v -0.84 c -0.39,0.37 -0.77,0.63 -1.16,0.8 -0.39,0.16 -0.81,0.24 -1.27,0.24 -1.02,0 -1.9,-0.4 -2.65,-1.19 -0.74,-0.79 -1.12,-1.78 -1.12,-2.95 0,-1.22 0.36,-2.22 1.08,-3 0.72,-0.78 1.6,-1.17 2.63,-1.17 0.47,0 0.92,0.09 1.33,0.27 0.42,0.18 0.8,0.45 1.15,0.81 V 77.3 Z m -2.08,1.62 c -0.61,0 -1.12,0.22 -1.53,0.65 -0.41,0.43 -0.61,0.99 -0.61,1.67 0,0.68 0.21,1.24 0.62,1.69 0.41,0.44 0.92,0.66 1.52,0.66 0.62,0 1.14,-0.22 1.55,-0.65 0.41,-0.43 0.62,-1 0.62,-1.7 0,-0.69 -0.2,-1.24 -0.62,-1.67 -0.41,-0.43 -0.93,-0.65 -1.55,-0.65"
       clip-path="url(#SVGID_2_)"
       id="path372" /></g></g>
</g>
</svg>
