<?xml version="1.0" encoding="UTF-8" standalone="no"?>
<svg
   xmlns:dc="http://purl.org/dc/elements/1.1/"
   xmlns:cc="http://creativecommons.org/ns#"
   xmlns:rdf="http://www.w3.org/1999/02/22-rdf-syntax-ns#"
   xmlns:svg="http://www.w3.org/2000/svg"
   xmlns="http://www.w3.org/2000/svg"
   xmlns:sodipodi="http://sodipodi.sourceforge.net/DTD/sodipodi-0.dtd"
   xmlns:inkscape="http://www.inkscape.org/namespaces/inkscape"
   width="257.98401"
   height="36.014206"
   viewBox="0 0 257.88082 36.000192"
   version="1.1"
   id="svg7"
   sodipodi:docname="logo.svg"
   inkscape:version="1.0.1 (3bc2e813f5, 2020-09-07)">
  <metadata
     id="metadata11">
    <rdf:RDF>
      <cc:Work
         rdf:about="">
        <dc:format>image/svg+xml</dc:format>
        <dc:type
           rdf:resource="http://purl.org/dc/dcmitype/StillImage" />
        <dc:title></dc:title>
      </cc:Work>
    </rdf:RDF>
  </metadata>
  <sodipodi:namedview
     pagecolor="#ffffff"
     bordercolor="#666666"
     borderopacity="1"
     objecttolerance="10"
     gridtolerance="10"
     guidetolerance="10"
     inkscape:pageopacity="0"
     inkscape:pageshadow="2"
     inkscape:window-width="2560"
     inkscape:window-height="1369"
     id="namedview9"
     showgrid="false"
     fit-margin-top="0"
     fit-margin-left="0"
     fit-margin-right="0"
     fit-margin-bottom="0"
     inkscape:zoom="5.7423077"
     inkscape:cx="128.9918"
     inkscape:cy="18.003506"
     inkscape:window-x="0"
     inkscape:window-y="34"
     inkscape:window-maximized="1"
     inkscape:current-layer="svg7" />
  <defs
     id="defs4">
    <style
       id="style2"> .cls-1 { fill: #0e1f56; fill-rule: evenodd; } </style>
  </defs>
  <path
     id="babykit_logo"
     class="cls-1"
     d="m 174.63219,9.528 a 3.089,3.089 0 0 0 -1.494,0.354 2.461,2.461 0 0 0 -1,0.978 2.067,2.067 0 0 0 -0.87,-1 2.7,2.7 0 0 0 -1.374,-0.336 2.95,2.95 0 0 0 -1.38,0.312 2.277,2.277 0 0 0 -0.936,0.888 V 9.576 h -0.816 v 6.312 h 0.852 v -3.312 a 2.347,2.347 0 0 1 0.57,-1.674 2.016,2.016 0 0 1 1.542,-0.606 1.742,1.742 0 0 1 1.35,0.516 2.143,2.143 0 0 1 0.474,1.5 v 3.576 h 0.852 v -3.312 a 2.362,2.362 0 0 1 0.564,-1.674 2.011,2.011 0 0 1 1.548,-0.606 1.726,1.726 0 0 1 1.338,0.516 2.143,2.143 0 0 1 0.474,1.5 v 3.576 h 0.852 v -3.66 a 2.748,2.748 0 0 0 -0.678,-2.016 2.509,2.509 0 0 0 -1.866,-0.684 v 0 z m 9.415,0.048 v 3.312 a 2.349,2.349 0 0 1 -0.576,1.686 2.065,2.065 0 0 1 -1.572,0.606 1.848,1.848 0 0 1 -1.4,-0.516 2.11,2.11 0 0 1 -0.492,-1.512 V 9.576 h -0.852 v 3.66 a 2.444,2.444 0 0 0 2.664,2.712 2.779,2.779 0 0 0 1.344,-0.318 2.336,2.336 0 0 0 0.924,-0.894 v 1.152 h 0.816 V 9.576 h -0.852 z m 4.864,6.372 a 3.285,3.285 0 0 0 1.914,-0.486 1.528,1.528 0 0 0 0.689,-1.314 1.354,1.354 0 0 0 -0.323,-0.96 1.79,1.79 0 0 0 -0.781,-0.492 11.074,11.074 0 0 0 -1.211,-0.288 9.244,9.244 0 0 1 -0.96,-0.21 1.436,1.436 0 0 1 -0.583,-0.318 0.746,0.746 0 0 1 -0.234,-0.576 0.882,0.882 0 0 1 0.414,-0.756 2.158,2.158 0 0 1 1.231,-0.288 3.183,3.183 0 0 1 1.859,0.54 l 0.373,-0.684 a 3.393,3.393 0 0 0 -1.008,-0.426 4.777,4.777 0 0 0 -1.224,-0.162 2.965,2.965 0 0 0 -1.837,0.5 1.561,1.561 0 0 0 -0.66,1.3 1.414,1.414 0 0 0 0.331,1 1.8,1.8 0 0 0 0.8,0.51 10.5,10.5 0 0 0 1.235,0.294 8.286,8.286 0 0 1 0.925,0.2 1.519,1.519 0 0 1 0.575,0.3 0.685,0.685 0 0 1 0.228,0.546 0.859,0.859 0 0 1 -0.414,0.762 2.381,2.381 0 0 1 -1.278,0.27 3.957,3.957 0 0 1 -1.248,-0.2 3.214,3.214 0 0 1 -1,-0.51 l -0.385,0.672 a 3.173,3.173 0 0 0 1.1,0.558 4.834,4.834 0 0 0 1.47,0.222 v 0 z m 7.349,-1.056 a 1.264,1.264 0 0 1 -0.426,0.24 1.565,1.565 0 0 1 -0.51,0.084 1.07,1.07 0 0 1 -0.81,-0.294 1.192,1.192 0 0 1 -0.282,-0.858 v -3.768 h 1.92 v -0.72 h -1.92 v -1.38 h -0.852 v 1.38 h -1.128 v 0.72 h 1.128 v 3.816 a 1.672,1.672 0 0 0 1.848,1.836 2.4,2.4 0 0 0 0.738,-0.114 1.612,1.612 0 0 0 0.594,-0.33 z m 8.208,-5.364 a 3.152,3.152 0 0 0 -1.4,0.3 2.311,2.311 0 0 0 -0.96,0.852 v -3.7 h -0.852 v 8.9 h 0.852 v -3.304 a 2.289,2.289 0 0 1 0.594,-1.674 2.157,2.157 0 0 1 1.614,-0.606 1.849,1.849 0 0 1 1.4,0.516 2.092,2.092 0 0 1 0.492,1.5 v 3.576 h 0.852 v -3.66 a 2.7,2.7 0 0 0 -0.7,-2.01 2.58,2.58 0 0 0 -1.89,-0.69 v 0 z m 6.91,0 a 4.488,4.488 0 0 0 -1.416,0.222 3.409,3.409 0 0 0 -1.152,0.63 l 0.384,0.632 a 2.9,2.9 0 0 1 0.948,-0.546 3.386,3.386 0 0 1 1.152,-0.2 1.884,1.884 0 0 1 1.332,0.426 1.618,1.618 0 0 1 0.456,1.242 v 0.384 h -2 a 2.849,2.849 0 0 0 -1.854,0.492 1.734,1.734 0 0 0 0.042,2.628 2.6,2.6 0 0 0 1.68,0.5 2.96,2.96 0 0 0 1.326,-0.276 1.952,1.952 0 0 0 0.846,-0.768 v 0.984 h 0.816 v -3.902 a 2.388,2.388 0 0 0 -0.66,-1.83 2.673,2.673 0 0 0 -1.9,-0.618 z m -0.3,5.748 a 1.911,1.911 0 0 1 -1.176,-0.318 1.032,1.032 0 0 1 -0.42,-0.87 q 0,-1.128 1.62,-1.128 h 1.98 v 1.032 a 1.97,1.97 0 0 1 -0.768,0.954 2.245,2.245 0 0 1 -1.236,0.33 z m 9.3,-5.7 -2.388,5.376 -2.364,-5.376 h -0.888 l 2.8,6.312 h 0.88 l 2.808,-6.312 h -0.84 z m 7.35,3.156 a 3.415,3.415 0 0 0 -0.4,-1.662 2.894,2.894 0 0 0 -1.092,-1.134 3.051,3.051 0 0 0 -1.572,-0.408 3.083,3.083 0 0 0 -1.578,0.408 2.912,2.912 0 0 0 -1.1,1.14 3.383,3.383 0 0 0 -0.4,1.656 3.267,3.267 0 0 0 0.42,1.656 2.984,2.984 0 0 0 1.17,1.146 3.5,3.5 0 0 0 1.722,0.414 3.549,3.549 0 0 0 1.386,-0.264 2.7,2.7 0 0 0 1.05,-0.768 l -0.48,-0.552 a 2.357,2.357 0 0 1 -0.852,0.618 2.721,2.721 0 0 1 -1.08,0.21 2.509,2.509 0 0 1 -1.728,-0.606 2.256,2.256 0 0 1 -0.756,-1.59 h 5.28 z m -3.06,-2.472 a 2.162,2.162 0 0 1 1.542,0.582 2.286,2.286 0 0 1 0.7,1.518 h -4.476 a 2.286,2.286 0 0 1 0.7,-1.518 2.147,2.147 0 0 1 1.53,-0.582 v 0 z m -52.712,18.884 v -5.568 h -4.656 l -0.082,2.112 a 13.7,13.7 0 0 1 -0.312,2.52 1.012,1.012 0 0 1 -0.864,0.936 h -0.36 v 2.268 h 0.8 v -1.524 h 5.652 v 1.524 h 0.8 v -2.268 h -0.984 z m -3.96,-3.408 0.072,-1.4 h 3.036 v 4.812 h -3.936 a 1.883,1.883 0 0 0 0.6,-1.194 15.725,15.725 0 0 0 0.228,-2.214 v 0 z m 7.507,-2.16 -0.108,2.256 q -0.06,1.1 -0.144,1.776 a 3.123,3.123 0 0 1 -0.336,1.128 0.8,0.8 0 0 1 -0.744,0.456 1.644,1.644 0 0 1 -0.3,-0.048 l -0.06,0.732 a 2.448,2.448 0 0 0 0.612,0.1 1.319,1.319 0 0 0 1.284,-1.056 11.594,11.594 0 0 0 0.456,-3.024 l 0.084,-1.56 h 3.024 v 5.556 h 0.852 v -6.316 z m 9.1,0 a 3.161,3.161 0 0 0 -1.968,0.552 1.9,1.9 0 0 0 -0.72,1.608 1.927,1.927 0 0 0 0.4,1.248 2.13,2.13 0 0 0 1.128,0.7 l -1.572,2.208 h 0.924 l 1.464,-2.088 h 2.22 v 2.088 h 0.78 v -6.316 h -2.652 z m -1.824,2.184 q 0,-1.428 1.848,-1.428 h 1.848 v 2.832 h -1.908 q -1.788,0 -1.788,-1.4 v 0 z m 12.684,4.188 a 3.25,3.25 0 0 0 1.452,-0.318 2.412,2.412 0 0 0 1.02,-0.93 l -0.636,-0.432 a 1.944,1.944 0 0 1 -0.792,0.7 2.4,2.4 0 0 1 -1.044,0.228 2.472,2.472 0 0 1 -1.23,-0.306 2.16,2.16 0 0 1 -0.852,-0.864 2.859,2.859 0 0 1 0,-2.574 2.151,2.151 0 0 1 0.852,-0.87 2.472,2.472 0 0 1 1.23,-0.306 2.35,2.35 0 0 1 1.044,0.234 1.99,1.99 0 0 1 0.792,0.7 l 0.636,-0.432 a 2.422,2.422 0 0 0 -1.014,-0.93 3.243,3.243 0 0 0 -1.458,-0.318 3.4,3.4 0 0 0 -1.674,0.408 2.966,2.966 0 0 0 -1.158,1.14 3.487,3.487 0 0 0 0,3.318 2.953,2.953 0 0 0 1.158,1.146 3.4,3.4 0 0 0 1.674,0.408 v 0 z m 8.779,-6.372 -2.376,5.364 -2.376,-5.364 h -0.888 l 2.82,6.3 -0.276,0.612 a 2.179,2.179 0 0 1 -0.57,0.816 1.16,1.16 0 0 1 -0.738,0.24 1.572,1.572 0 0 1 -1.152,-0.48 l -0.4,0.636 a 1.846,1.846 0 0 0 0.684,0.432 2.474,2.474 0 0 0 0.852,0.144 1.985,1.985 0 0 0 1.212,-0.372 3.018,3.018 0 0 0 0.888,-1.26 l 3.156,-7.068 h -0.84 z m 2.131,0 v 6.312 h 0.852 v -5.556 h 3.96 v 5.556 h 0.852 v -6.312 z m 13.535,3.156 a 3.415,3.415 0 0 0 -0.4,-1.662 2.894,2.894 0 0 0 -1.092,-1.134 3.051,3.051 0 0 0 -1.572,-0.408 3.083,3.083 0 0 0 -1.578,0.408 2.912,2.912 0 0 0 -1.1,1.14 3.383,3.383 0 0 0 -0.4,1.656 3.267,3.267 0 0 0 0.42,1.656 2.984,2.984 0 0 0 1.17,1.146 3.5,3.5 0 0 0 1.722,0.414 3.549,3.549 0 0 0 1.386,-0.264 2.7,2.7 0 0 0 1.05,-0.768 l -0.48,-0.552 a 2.357,2.357 0 0 1 -0.852,0.618 2.721,2.721 0 0 1 -1.08,0.21 2.509,2.509 0 0 1 -1.728,-0.606 2.256,2.256 0 0 1 -0.756,-1.59 h 5.28 z m -3.06,-2.472 a 2.162,2.162 0 0 1 1.542,0.582 2.286,2.286 0 0 1 0.7,1.518 h -4.472 a 2.286,2.286 0 0 1 0.7,-1.518 2.147,2.147 0 0 1 1.53,-0.582 z m 8.015,-0.732 a 2.975,2.975 0 0 0 -1.422,0.336 2.626,2.626 0 0 0 -1.014,0.96 v -1.248 h -0.816 v 8.636 h 0.852 V 28.7 a 2.626,2.626 0 0 0 1.014,0.93 2.983,2.983 0 0 0 1.386,0.318 3.231,3.231 0 0 0 1.614,-0.4 2.885,2.885 0 0 0 1.122,-1.134 3.638,3.638 0 0 0 0,-3.348 2.876,2.876 0 0 0 -1.128,-1.134 3.243,3.243 0 0 0 -1.608,-0.4 v 0 z m -0.06,5.664 a 2.382,2.382 0 0 1 -1.206,-0.306 2.173,2.173 0 0 1 -0.84,-0.87 2.649,2.649 0 0 1 -0.306,-1.284 2.614,2.614 0 0 1 0.306,-1.278 2.226,2.226 0 0 1 0.84,-0.87 2.475,2.475 0 0 1 2.406,0 2.213,2.213 0 0 1 0.846,0.87 2.614,2.614 0 0 1 0.306,1.278 2.649,2.649 0 0 1 -0.308,1.28 2.161,2.161 0 0 1 -0.846,0.87 2.391,2.391 0 0 1 -1.2,0.306 v 0 z m 4.76,-2.18 h 3.144 v -0.748 h -3.144 z m 11.309,-3.432 -2.724,4.548 -2.676,-4.548 h -0.864 v 6.312 h 0.78 v -5 l 2.556,4.236 h 0.384 l 2.556,-4.224 v 4.992 h 0.78 v -6.32 h -0.792 z m 5.279,-0.048 a 4.488,4.488 0 0 0 -1.416,0.222 3.409,3.409 0 0 0 -1.152,0.63 l 0.384,0.628 a 2.9,2.9 0 0 1 0.948,-0.546 3.386,3.386 0 0 1 1.152,-0.2 1.884,1.884 0 0 1 1.332,0.426 1.618,1.618 0 0 1 0.456,1.242 v 0.384 h -2 a 2.849,2.849 0 0 0 -1.854,0.492 1.734,1.734 0 0 0 0.042,2.628 2.6,2.6 0 0 0 1.68,0.5 2.96,2.96 0 0 0 1.326,-0.276 1.952,1.952 0 0 0 0.846,-0.768 v 0.984 h 0.816 v -3.902 a 2.388,2.388 0 0 0 -0.66,-1.83 2.673,2.673 0 0 0 -1.9,-0.618 v 0 z m -0.3,5.748 a 1.911,1.911 0 0 1 -1.176,-0.318 1.032,1.032 0 0 1 -0.42,-0.87 q 0,-1.128 1.62,-1.128 h 1.98 v 1.028 a 1.97,1.97 0 0 1 -0.768,0.954 2.245,2.245 0 0 1 -1.236,0.33 v 0 z m 11.239,-5.7 -2.724,4.548 -2.676,-4.548 h -0.864 v 6.312 h 0.78 v -5 l 2.556,4.236 h 0.384 l 2.556,-4.224 v 4.992 h 0.78 v -6.32 h -0.792 z M 147.01819,8.012 h 1 v 24 h -1 z M 11.978194,5.669 c 0.02,-0.341 0,-0.673 0.008,-1.015 a 1.506,1.506 0 0 1 1.632,-1.647 l 7.031,0.005 c 0.319,0 0.625,0 0.942,0 a 1.519,1.519 0 0 1 1.6,1.6 c 0.01,0.373 0,0.736 0.011,1.107 0.01,0.211 -0.049,0.281 -0.276,0.281 -1.778,-0.011 -3.557,-0.013 -5.348,-0.015 -1.759,0 -3.517,-0.013 -5.286,0.005 -0.274,0.011 -0.334,-0.071 -0.314,-0.321 z m 23.429,1.691 a 3.167,3.167 0 0 0 -2.7,-1.364 q -3.014,0 -6.025,-0.006 c -0.431,0 -0.421,0 -0.431,-0.415 -0.022,-0.937 0.036,-1.875 -0.043,-2.811 a 3.111,3.111 0 0 0 -2.03,-2.533 c -0.225,-0.078 -0.441,-0.155 -0.654,-0.219 l -12,-0.012 a 7.291,7.291 0 0 0 -0.808,0.327 2.9,2.9 0 0 0 -1.6279997,2.685 c -0.017,0.9 -0.007,1.8 0.007,2.7 a 0.221,0.221 0 0 1 -0.274,0.271 c -1.86,-0.012 -3.736,0 -5.6,-0.015 a 3.229,3.229 0 0 0 -2.136,0.753 3.167,3.167 0 0 0 -1.08300003,2.539 c 0.008,3.594 0.016,7.178 0.022,10.771 0.006,3.778 0.013,7.545 0.019,11.324 a 2.378,2.378 0 0 0 1.34000003,2.271 1.563,1.563 0 0 0 0.752,0.193 c 0.234,0 0.263,0.107 0.253,0.3 -0.01,0.193 0.01,0.4 0.022,0.6 a 1.454,1.454 0 0 0 1.446,1.258 c 1.628,-0.027 3.265,-0.006 4.893,-0.005 a 1.368,1.368 0 0 0 1.4209997,-1.264 c 0.02,-0.223 0.019,-0.445 0.019,-0.657 0,-0.146 0.04,-0.213 0.2,-0.2 a 0.624,0.624 0 0 0 0.144,0 l 15.309,0.014 c 0.643,0 0.654,0 0.655,0.638 a 1.413,1.413 0 0 0 1.356,1.49 c 1.688,0 3.385,0.012 5.071,0.005 a 1.364,1.364 0 0 0 1.354,-1.3 c 0,-0.01 0,-0.019 0,-0.029 a 0.676,0.676 0 0 1 0.623,-0.927 1.4,1.4 0 0 0 1.07,-1.284 2.745,2.745 0 0 0 0.028,-0.483 q -0.021,-11.318 -0.042,-22.635 a 3.24,3.24 0 0 0 -0.55,-1.98 z m -10.18,15.063 -4.8,-0.006 0.009,4.81 a 0.8,0.8 0 0 1 -0.8,0.8 h -3.2 a 0.806,0.806 0 0 1 -0.8,-0.8 l -0.018,-4.815 h -4.806 a 0.8,0.8 0 0 1 -0.8,-0.8 l -0.006,-3.2 a 0.8,0.8 0 0 1 0.8,-0.8 h 4.8 l -0.01,-4.808 a 0.8,0.8 0 0 1 0.8,-0.8 h 3.2 a 0.8,0.8 0 0 1 0.8,0.8 l 0.022,4.808 h 4.806 a 0.8,0.8 0 0 1 0.8,0.8 l 0.007,3.205 a 0.8,0.8 0 0 1 -0.804,0.806 z m 30.691,-5.39 h 3 l -4.51,-10.105 h -2.84 l -4.495,10.105 h 2.939 l 0.8,-1.963 h 4.3 z m -4.261,-4.071 1.309,-3.234 1.31,3.234 z m 8.31,-6.035 v 10.106 h 2.835 V 9.194 h 3.871 v 7.839 h 2.852 V 6.927 h -9.559 z m 19.757,0 h -9.08 v 2.267 h 3.129 v 7.839 h 2.835 V 9.194 h 3.115 V 6.927 Z m 3.979,7.9 v -1.851 h 4.525 V 10.84 h -4.526 v -1.7 h 5.136 V 6.927 h -7.987 v 10.106 h 8.177 v -2.209 h -5.326 z m 12.789,-7.9 v 4.385 a 4.3,4.3 0 0 1 -1.8,0.346 1.71,1.71 0 0 1 -1.925,-1.946 V 6.927 h -2.838 v 3.1 a 3.758,3.758 0 0 0 1.128,2.939 4.721,4.721 0 0 0 3.261,1.022 6.938,6.938 0 0 0 2.168,-0.391 v 3.436 h 2.838 V 6.927 h -2.833 z m 11.344996,10.105 h 3.245 l -3.216,-5.226 3.188,-4.879 h -3.026 l -2.431,3.927 h -1.379 V 6.927 h -2.87 v 10.106 h 2.87 v -3.869 h 1.311 z m 12.662,0 h 3 l -4.511,-10.105 h -2.837 l -4.5,10.105 h 2.939 l 0.8,-1.963 h 4.308 z m -4.263,-4.071 1.311,-3.234 1.308,3.234 z m -57.499996,18.516 -0.03,-10.105 h -2.376 l -3.491,5.832 -3.578,-5.832 h -2.372 v 10.106 h 2.647 v -5.24 l 2.618,4.245 h 1.282 l 2.617,-4.36 0.015,5.356 h 2.663 z m 10.458,0 h 3 l -4.51,-10.105 h -2.847 l -4.495,10.106 h 2.94 l 0.8,-1.963 h 4.307 z m -4.269,-4.065 1.309,-3.234 1.309,3.234 z m 10.617,-6.034 -0.147,4.027 a 16.524,16.524 0 0 1 -0.174,2.086 3.115,3.115 0 0 1 -0.436,1.249 0.994,0.994 0 0 1 -0.873,0.448 1.757,1.757 0 0 1 -0.394,-0.044 l -0.16,2.339 a 5.715,5.715 0 0 0 1.31,0.173 2.5,2.5 0 0 0 1.934,-0.743 4.371,4.371 0 0 0 0.969,-2.1 21.3,21.3 0 0 0 0.356,-3.523 l 0.06,-1.645 h 2.924 v 7.838 h 2.838 v -10.11 h -8.207 z m 16.015,3.22 h -2.358 v -3.22 h -2.836 v 10.1 h 4.815 a 4.869,4.869 0 0 0 3.157,-0.924 3.245,3.245 0 0 0 1.136,-2.671 2.991,2.991 0 0 0 -1.018,-2.462 4.483,4.483 0 0 0 -2.9,-0.83 v 0 z m -0.567,4.836 h -1.79 v -2.8 h 1.79 q 1.585,0 1.585,1.313 a 1.407,1.407 0 0 1 -0.428,1.1 1.655,1.655 0 0 1 -1.157,0.39 v 0 z m 5.6,2.05 h 2.837 V 21.373 h -2.835 V 31.478 Z M 112.72319,21.379 v 7.833 h -2.633 v -7.839 h -2.836 v 7.839 h -2.664 v -7.839 h -2.835 v 10.105 h 13.807 V 21.373 h -2.839 z m 13.295,10.099 h 3 l -4.511,-10.105 h -2.835 l -4.5,10.105 h 2.946 l 0.8,-1.963 h 4.3 z m -4.26,-4.066 1.309,-3.234 1.308,3.234 z" />
</svg>
