<?xml version="1.0" encoding="UTF-8" standalone="no"?>
<svg
   xmlns:dc="http://purl.org/dc/elements/1.1/"
   xmlns:cc="http://creativecommons.org/ns#"
   xmlns:rdf="http://www.w3.org/1999/02/22-rdf-syntax-ns#"
   xmlns:svg="http://www.w3.org/2000/svg"
   xmlns="http://www.w3.org/2000/svg"
   xmlns:sodipodi="http://sodipodi.sourceforge.net/DTD/sodipodi-0.dtd"
   xmlns:inkscape="http://www.inkscape.org/namespaces/inkscape"
   version="1.1"
   id="Слой_1"
   x="0px"
   y="0px"
   viewBox="0 0 143.62434 34.34401"
   xml:space="preserve"
   sodipodi:docname="logo_hevea.svg"
   width="143.62434"
   height="34.344009"
   inkscape:version="1.0.1 (3bc2e813f5, 2020-09-07)"><metadata
   id="metadata91"><rdf:RDF><cc:Work
       rdf:about=""><dc:format>image/svg+xml</dc:format><dc:type
         rdf:resource="http://purl.org/dc/dcmitype/StillImage" /><dc:title></dc:title></cc:Work></rdf:RDF></metadata><defs
   id="defs89" /><sodipodi:namedview
   pagecolor="#ffffff"
   bordercolor="#666666"
   borderopacity="1"
   objecttolerance="10"
   gridtolerance="10"
   guidetolerance="10"
   inkscape:pageopacity="0"
   inkscape:pageshadow="2"
   inkscape:window-width="2560"
   inkscape:window-height="1369"
   id="namedview87"
   showgrid="false"
   fit-margin-top="0"
   fit-margin-left="0"
   fit-margin-right="0"
   fit-margin-bottom="0"
   inkscape:zoom="3.1347183"
   inkscape:cx="107.5805"
   inkscape:cy="62.898469"
   inkscape:window-x="0"
   inkscape:window-y="34"
   inkscape:window-maximized="1"
   inkscape:current-layer="Слой_1" />
<style
   type="text/css"
   id="style2">
	.st0{fill:#8A8B8B;}
	.st1{fill-rule:evenodd;clip-rule:evenodd;fill:#8A8B8B;}
</style>
<g
   id="g32"
   transform="translate(-10.395654,-10.406227)">
	<path
   class="st0"
   d="m 71.82,20.21 -0.36,0.3 c 0.06,0.08 0.17,0.22 0.33,0.43 l -1.15,0.73 h -0.12 c -0.1,0 -0.23,-0.03 -0.4,-0.09 l -0.36,0.3 -0.52,-0.06 -0.55,0.46 -0.52,-0.3 -0.64,0.18 -0.61,0.36 c -0.04,-0.02 -0.09,-0.03 -0.15,-0.03 -0.16,0 -0.25,0.05 -0.27,0.15 l -0.24,1 V 24 c 0,0.14 -0.01,0.29 -0.03,0.46 l -0.03,0.24 0.06,0.06 c 0,0.35 -0.06,0.65 -0.18,0.91 0.09,0.28 0.15,0.51 0.18,0.67 l -0.27,0.21 0.09,1.09 -0.27,1.58 -0.03,0.3 c 0.04,0.24 0.06,0.41 0.06,0.49 v 0.15 l 0.15,0.3 v 0.55 c -0.02,0.1 -0.07,0.25 -0.15,0.46 -0.02,0.69 -0.52,1.05 -1.51,1.09 l -0.06,-0.67 -0.25,-0.4 -0.18,-0.55 v -1.06 l -0.18,-0.64 0.09,-0.06 -0.09,-0.46 v -0.76 l 0.09,-1.19 v -1.06 l 0.09,-0.61 v -0.7 c 0,-0.14 0.03,-0.33 0.09,-0.58 0.06,-0.24 0.09,-0.43 0.09,-0.55 0,-0.2 -0.06,-0.4 -0.18,-0.58 l -0.06,-0.09 -0.09,0.06 -0.4,-0.12 c -0.36,0.1 -0.71,0.15 -1.03,0.15 -0.22,0 -0.39,-0.01 -0.49,-0.03 l -1.31,0.4 -1.4,-0.15 c -0.36,-0.04 -0.62,-0.06 -0.76,-0.06 -0.26,0 -0.63,0.07 -1.09,0.21 h -0.12 l -0.7,0.3 -0.49,-0.33 -0.76,0.15 -0.09,-0.06 -0.12,0.06 -0.61,-0.03 -0.06,0.24 -0.85,-0.33 c -0.35,0.04 -0.6,0.07 -0.76,0.09 v 1.4 l -0.09,0.7 0.09,0.58 -0.18,0.46 0.18,0.43 -0.18,1.31 0.18,0.4 -0.12,0.73 0.27,0.61 -0.15,0.27 0.09,0.37 c -0.02,0.44 -0.27,0.67 -0.76,0.67 -0.83,0 -1.25,-0.75 -1.25,-2.25 L 50.3,28.31 50.15,27.95 c 0,-0.26 0.06,-0.49 0.18,-0.67 l 0.06,-0.52 -0.09,-0.3 -0.15,-2.37 v -0.64 l -0.06,-0.09 -0.61,-0.33 -0.09,-1.49 0.85,-0.49 c 0.1,-0.32 0.15,-0.73 0.15,-1.22 0,-0.47 -0.05,-0.86 -0.15,-1.19 l 0.18,0.09 -0.03,-0.43 0.18,-0.64 -0.18,-1.06 v -0.7 l 0.21,-1.06 1.19,-0.64 0.58,0.42 0.63,0.24 0.09,0.67 0.27,0.39 c -0.1,0.28 -0.19,0.58 -0.27,0.88 0.06,0.32 0.09,0.67 0.09,1.03 0,0.57 -0.07,1.12 -0.21,1.66 l 0.27,0.58 -0.3,0.42 v 0.36 l 0.27,0.09 h 0.73 0.52 l 0.82,-0.09 0.24,0.09 h 0.33 0.36 0.06 0.46 c 0.02,0 0.18,-0.01 0.47,-0.03 0.29,-0.02 0.59,-0.03 0.9,-0.03 l 0.49,-0.25 0.46,0.25 0.46,0.03 0.15,0.03 h 0.4 0.15 l 3.22,-0.36 0.46,0.03 0.15,-0.09 -0.22,-0.52 0.21,-0.46 -0.21,-1.25 0.21,-0.4 -0.55,-1.46 -0.06,-0.22 -0.12,-0.15 c 0.02,-0.04 0.06,-0.13 0.12,-0.28 l 0.06,-0.12 v -0.12 c 0,-0.16 0.16,-0.32 0.47,-0.46 l 0.29,-0.86 0.82,0.16 0.35,0.23 0.82,-0.18 v 0.43 l 0.46,-0.09 v 1.43 l -0.15,0.24 0.24,0.61 v 0.4 l 0.15,0.49 -0.24,0.58 0.09,0.4 -0.15,1.4 v 0.21 l 0.64,-0.03 1.19,-0.27 0.58,0.06 0.36,-0.06 h 0.67 c 0.16,-0.08 0.33,-0.12 0.52,-0.12 0.12,0 0.27,0.04 0.46,0.12 h 0.77 z"
   id="path4" />
	<path
   class="st0"
   d="m 110.21,17.29 -0.12,0.73 -0.33,0.36 -0.24,0.61 -0.36,0.33 -0.36,0.58 c -0.1,0.1 -0.15,0.26 -0.15,0.49 l -0.12,0.24 c -0.08,0.26 -0.27,0.52 -0.58,0.76 -0.12,0.51 -0.42,0.9 -0.88,1.19 l -0.21,0.3 -0.73,0.73 -0.43,0.88 -0.61,0.67 -0.36,0.64 -0.3,0.24 -0.27,0.4 -1.09,1.22 -0.52,0.82 -0.58,0.43 -0.03,0.21 -0.27,0.36 0.12,0.94 -0.27,0.58 c -0.35,0.28 -0.65,0.43 -0.91,0.43 -0.2,0 -0.39,-0.04 -0.55,-0.12 0.08,0.14 0.14,0.25 0.18,0.33 -0.2,-0.24 -0.62,-0.9 -1.25,-1.98 L 98.75,29.08 98.29,28.5 98.05,27.98 97.72,27.13 97.36,26.52 97.33,25.91 96.9,24.88 96.17,23.66 95.35,22.44 95.05,21.65 94.65,21.41 94.19,20.59 93.95,20.41 93.43,19.59 C 93.27,19.43 93.15,19.26 93.07,19.07 92.58,18.79 92.13,18.39 91.7,17.88 l -0.09,-0.61 0.12,-0.52 0.27,-0.46 0.49,-0.15 h 0.43 c 0.26,0 0.53,0.06 0.79,0.18 l 0.21,0.24 0.15,-0.06 0.09,0.18 0.12,0.03 0.09,0.12 0.21,0.46 0.3,0.24 0.43,0.64 c 0.12,0.1 0.3,0.35 0.55,0.76 l 0.27,0.24 0.09,0.24 0.3,0.24 0.06,0.43 0.52,0.85 0.06,0.24 0.27,0.43 c 0.28,0.26 0.46,0.57 0.52,0.91 l -0.06,0.09 0.12,0.03 c 0.06,0.22 0.16,0.41 0.3,0.55 l 0.24,0.52 0.21,0.58 0.55,0.88 -0.06,0.33 0.21,0.24 0.36,1.06 c 0.06,0.2 0.2,0.48 0.43,0.82 0.12,-0.1 0.26,-0.24 0.43,-0.43 l 0.4,-0.21 0.4,-0.46 c 0.18,-0.2 0.41,-0.53 0.7,-0.97 l 0.21,-0.15 v -0.12 l 0.37,-0.09 0.03,-0.18 c 0.1,-0.16 0.22,-0.39 0.37,-0.7 l 0.4,-0.39 0.19,-0.47 0.34,-0.39 0.34,-0.55 0.43,-0.36 0.46,-0.49 c 0.08,-0.04 0.17,-0.28 0.28,-0.73 l 0.15,-0.15 0.09,-0.3 0.37,-0.21 -0.06,-0.43 0.21,-0.24 v -0.43 l 0.33,-0.3 0.15,-0.36 0.18,-0.24 0.15,-0.79 0.24,-0.39 v -0.43 c 0.16,-0.22 0.36,-0.38 0.61,-0.49 l 0.73,-0.3 0.12,0.03 c 0.44,0 0.77,0.15 0.97,0.46 0.22,0.1 0.33,0.27 0.33,0.52 v 0.18 c 0.01,0.1 0.02,0.18 0.04,0.24"
   id="path6" />
	<path
   class="st0"
   d="m 130.12,20.79 c 0,0.47 -0.14,0.89 -0.43,1.28 -0.55,0.22 -1,0.33 -1.37,0.33 -0.08,0 -0.19,-0.02 -0.33,-0.06 -0.14,-0.04 -0.23,-0.06 -0.27,-0.06 l -0.79,0.4 -0.73,-0.06 -0.43,0.15 -0.21,-0.06 -0.55,0.3 -0.46,-0.12 h -1.31 0.12 l -0.55,0.15 h -0.09 l -0.21,0.21 -0.43,-0.15 -0.24,0.15 -0.67,-0.21 -0.4,0.21 c -0.49,-0.12 -0.77,-0.18 -0.85,-0.18 -0.22,0 -0.5,0.07 -0.82,0.21 l -1.37,0.12 -0.12,-0.15 -0.52,0.13 -0.03,0.18 0.27,1.52 -0.07,0.15 0.09,0.3 v 0.39 c 0.1,0.3 0.17,0.61 0.21,0.91 l 0.36,0.36 -0.06,0.18 0.61,0.76 c 0.63,0.45 1.1,0.67 1.43,0.67 h 0.06 c 0.04,0 0.09,-0.01 0.15,-0.03 h 0.12 c 0.08,0 0.19,0.03 0.33,0.09 l 0.27,-0.03 c 0.26,-0.06 0.64,-0.13 1.12,-0.21 l 0.33,-0.18 0.06,-0.12 0.21,-0.03 0.24,-0.15 0.15,0.09 0.49,-0.15 0.4,-0.24 0.15,-0.21 0.52,-0.4 0.4,-0.06 0.73,-0.55 c 0.51,-0.08 0.87,-0.49 1.09,-1.22 l 0.09,0.03 0.03,-0.09 0.4,-0.03 0.58,-0.49 0.21,-0.03 c 0.06,-0.02 0.13,-0.03 0.21,-0.03 0.38,0 0.62,0.38 0.7,1.13 l -1.34,1.58 -0.33,0.09 -0.12,0.18 -0.58,0.61 -0.82,0.49 -0.67,0.64 -0.21,-0.03 -0.24,0.24 -1.37,0.52 -0.55,0.61 -0.4,-0.15 -0.15,0.27 -0.27,-0.09 -0.13,0.15 -1,-0.18 -1.03,0.43 -1.03,-0.33 -1.31,-0.61 c -1.11,-0.53 -1.98,-1.99 -2.58,-4.38 V 25.6 l -0.24,-0.7 0.24,-0.3 -0.15,-0.85 -0.03,-0.27 -0.52,-0.58 v -0.36 c 0,-0.59 0.16,-0.99 0.49,-1.22 0.06,-0.16 0.17,-0.31 0.33,-0.46 l -0.12,-0.09 v -0.85 -0.43 l 0.37,-0.97 0.09,-0.49 -0.3,0.03 h -0.12 c -0.28,0 -0.53,-0.1 -0.73,-0.29 -0.2,-0.19 -0.3,-0.42 -0.3,-0.68 0,-0.3 0.19,-0.65 0.58,-1.03 l 0.21,-0.21 0.27,-0.12 c 0.32,-0.14 0.58,-0.21 0.76,-0.21 h 0.15 0.3 0.12 l 0.3,-0.52 1.37,0.09 0.09,0.09 c 0.18,-0.03 0.46,-0.05 0.82,-0.05 L 119.4,15 h 0.15 c 0.26,-0.08 0.52,-0.24 0.76,-0.49 l 0.46,0.27 h 0.15 0.35 0.26 l 3.04,-0.27 0.3,0.18 0.43,-0.11 0.24,-0.29 0.61,0.4 0.21,-0.18 0.67,0.27 0.46,-0.09 0.24,0.09 0.97,-0.09 0.21,0.15 0.49,0.09 c 0.47,0.08 0.7,0.3 0.7,0.67 0,0.24 -0.09,0.46 -0.26,0.64 -0.17,0.18 -0.35,0.27 -0.53,0.27 h -0.12 l -0.33,0.18 -0.61,-0.18 -0.27,0.03 c -0.06,0.02 -0.14,0.03 -0.24,0.03 -0.2,0 -0.39,-0.04 -0.55,-0.12 l -0.09,-0.12 c -0.2,0.04 -0.33,0.06 -0.4,0.06 -0.08,0 -0.18,-0.02 -0.3,-0.06 -0.2,0.14 -0.58,0.26 -1.12,0.36 -0.28,0 -0.6,-0.01 -0.94,-0.03 0,-0.02 0.04,-0.09 0.12,-0.21 l -0.79,0.24 h -0.06 c -0.14,0 -0.41,0.14 -0.79,0.43 l -0.4,-0.18 -0.18,0.12 -0.73,-0.21 -0.43,0.21 h -0.61 l -0.91,0.18 -0.76,0.33 -0.21,-0.12 -0.4,0.27 h -0.4 l -0.09,0.15 0.09,0.36 -0.52,0.61 0.24,0.03 v 0.85 l 0.33,0.37 -0.27,0.24 c -0.2,0.34 -0.3,0.58 -0.3,0.7 0,0.08 0.06,0.14 0.18,0.18 l 0.37,-0.12 c 0.1,-0.02 0.2,-0.03 0.3,-0.03 0.3,0.04 0.53,0.08 0.67,0.12 l 0.55,-0.21 0.49,0.09 h 0.27 0.33 0.49 0.4 c 0.08,0 0.24,-0.07 0.49,-0.21 0.16,0.08 0.39,0.12 0.7,0.12 0.04,0 0.11,-0.01 0.21,-0.03 h 0.24 0.06 c -0.04,0 -0.08,-0.01 -0.12,-0.03 h 0.09 c 0.12,0 0.49,0.05 1.09,0.15 0.06,-0.03 0.38,-0.07 0.94,-0.1 0.32,-0.03 0.53,-0.05 0.61,-0.05 0.3,0 0.6,0.01 0.88,0.03 l 0.27,-0.03 c 0.28,-0.16 0.55,-0.24 0.79,-0.24 0.18,0 0.36,0.03 0.55,0.09 l 0.43,-0.09 0.36,0.15 1.22,-0.3 v 0.27 z"
   id="path8" />
	<path
   class="st0"
   d="m 153.22,31.22 c -0.02,0.51 -0.35,0.86 -1,1.06 l -1.15,-0.55 h -0.33 l -0.4,-0.3 h -0.49 l -0.36,-0.61 -0.3,-0.15 -0.4,-0.7 -0.55,-0.58 v -0.24 l -0.24,-0.21 -0.06,-0.49 -0.4,-0.36 -0.64,-1.43 -0.27,-0.33 -0.12,-0.85 -0.4,-0.52 -0.64,-0.09 -0.7,0.4 -0.15,-0.15 -0.49,0.3 -0.15,-0.33 c -0.1,0.02 -0.25,0.03 -0.46,0.03 -0.22,0 -0.39,-0.01 -0.49,-0.03 h -0.24 l -0.64,0.33 -0.7,-0.09 h -0.12 l -0.49,0.27 -0.4,-0.15 c -0.38,0 -0.67,-0.04 -0.85,-0.12 h -0.15 l -0.79,0.36 -0.3,-0.33 -0.55,-0.15 -0.12,0.09 c -0.45,0.59 -0.77,1 -0.97,1.25 l -0.49,0.12 c -0.77,1.12 -1.26,1.71 -1.46,1.79 l -0.12,0.03 -0.97,1.19 h -0.12 l -0.61,0.94 -1.15,0.64 c -0.2,0.04 -0.36,0.06 -0.49,0.06 -0.38,0 -0.75,-0.14 -1.09,-0.43 l 0.36,-0.76 v -0.46 l 0.12,-0.15 0.06,-0.61 0.94,-0.12 0.24,-0.15 c 0.24,-0.14 0.38,-0.35 0.43,-0.64 0.37,-0.1 0.59,-0.3 0.67,-0.61 0.55,-0.28 0.9,-0.73 1.06,-1.34 l 0.52,-0.18 0.76,-1.13 c -0.16,-0.22 -0.28,-0.51 -0.36,-0.85 l 0.64,-0.52 v -0.58 l 1.19,0.09 0.3,-0.15 c 0.1,-0.34 0.3,-0.59 0.61,-0.73 l 0.06,-0.58 0.64,-0.33 c 0.06,-0.04 0.17,-0.09 0.33,-0.15 v -0.18 c 0,-0.18 0.04,-0.34 0.12,-0.49 0.43,-0.3 0.65,-0.72 0.67,-1.25 l 0.43,-0.09 0.15,-0.27 0.21,-0.03 0.58,-1.09 h 0.15 l 0.24,-0.11 v -0.77 h 0.21 c 0.51,-0.55 0.76,-0.9 0.76,-1.06 l 0.15,-0.12 -0.15,-0.46 c 0.49,-0.59 0.88,-0.89 1.19,-0.91 l 0.58,-0.49 0.67,0.67 0.85,0.46 0.09,0.79 c 0.1,0.12 0.18,0.24 0.24,0.36 0.28,0.34 0.45,0.7 0.49,1.06 l 0.18,0.76 0.46,0.67 0.27,1 0.06,0.49 0.55,0.67 -0.12,0.21 0.24,0.21 v 0.61 l 0.06,0.46 c -0.06,0.3 -0.09,0.42 -0.09,0.33 l 0.15,0.15 0.18,0.24 c 0.26,-0.02 0.46,-0.05 0.58,-0.09 h 0.91 c 0.16,0.04 0.28,0.06 0.36,0.06 0.12,0 0.25,-0.05 0.38,-0.14 0.13,-0.09 0.34,-0.14 0.62,-0.14 0.2,0 0.51,0.1 0.91,0.3 l 0.91,0.06 c 0.04,0.16 0.06,0.28 0.06,0.36 0,0.3 -0.15,0.54 -0.46,0.7 l -0.46,-0.15 -0.85,0.61 -0.7,-0.09 -0.3,0.15 -0.67,0.06 v -0.12 l -0.79,0.18 -0.03,0.18 0.06,0.7 0.4,0.55 0.06,0.55 0.7,0.97 -0.04,0.35 0.27,0.27 0.73,1.12 0.52,0.52 0.12,0.24 0.55,0.27 0.21,0.49 z m -7.5,-8.21 h -0.03 l -0.33,-0.33 0.36,-0.3 c -0.16,-0.14 -0.25,-0.35 -0.25,-0.64 l -0.22,-0.12 -0.16,-1.24 -0.36,-0.52 -0.09,-0.52 -0.06,-0.12 h -0.21 l -0.09,-1.09 -0.27,-0.4 -0.15,-0.06 -0.09,-0.12 -0.12,0.21 -0.73,0.91 -0.24,0.52 -0.61,0.55 -0.12,0.55 -0.7,0.3 c -0.1,0.61 -0.41,1.04 -0.91,1.31 l -0.21,0.61 -0.39,0.4 H 140 c 0.36,0.12 0.67,0.18 0.91,0.18 h 0.12 c 0.12,-0.06 0.24,-0.09 0.36,-0.09 0.14,0 0.3,0.04 0.49,0.12 l 0.12,0.03 c 0.12,-0.02 0.31,-0.03 0.58,-0.03 0.32,0 0.57,0.01 0.73,0.03 l 1.06,-0.12 0.7,0.36 c 0.34,-0.14 0.55,-0.28 0.61,-0.43 0,0.02 0.01,0.03 0.03,0.03 v 0.02 z"
   id="path10" />
	<g
   id="g30">
		<path
   class="st0"
   d="m 89.54,20.79 c 0,0.47 -0.14,0.89 -0.43,1.28 -0.55,0.22 -1,0.33 -1.37,0.33 -0.08,0 -0.19,-0.02 -0.33,-0.06 -0.14,-0.04 -0.23,-0.06 -0.27,-0.06 l -0.79,0.4 -0.73,-0.06 -0.43,0.15 -0.21,-0.06 -0.55,0.3 -0.46,-0.12 h -1.31 0.12 l -0.55,0.15 h -0.09 l -0.21,0.21 -0.43,-0.15 -0.24,0.15 -0.67,-0.21 -0.4,0.21 c -0.49,-0.12 -0.77,-0.18 -0.85,-0.18 -0.22,0 -0.5,0.07 -0.82,0.21 l -1.37,0.12 -0.12,-0.15 -0.52,0.13 -0.03,0.18 0.27,1.52 -0.07,0.15 0.09,0.3 v 0.39 c 0.1,0.3 0.17,0.61 0.21,0.91 l 0.36,0.36 -0.06,0.18 0.61,0.76 c 0.63,0.45 1.1,0.67 1.43,0.67 h 0.06 c 0.04,0 0.09,-0.01 0.15,-0.03 h 0.12 c 0.08,0 0.19,0.03 0.33,0.09 l 0.27,-0.03 c 0.26,-0.06 0.64,-0.13 1.12,-0.21 l 0.33,-0.18 0.06,-0.12 0.24,-0.02 0.24,-0.15 0.15,0.09 0.49,-0.15 0.4,-0.24 0.15,-0.21 0.52,-0.4 0.39,-0.06 0.73,-0.55 c 0.51,-0.08 0.87,-0.49 1.09,-1.22 l 0.09,0.03 0.03,-0.09 0.4,-0.03 0.58,-0.49 0.21,-0.03 c 0.06,-0.02 0.13,-0.03 0.21,-0.03 0.38,0 0.62,0.38 0.7,1.13 l -1.34,1.58 -0.33,0.09 -0.12,0.18 -0.58,0.61 -0.82,0.49 -0.67,0.64 -0.21,-0.03 -0.24,0.24 -1.37,0.52 -0.55,0.61 -0.4,-0.15 -0.15,0.27 -0.27,-0.09 -0.15,0.14 -1,-0.18 -1.03,0.43 -1.03,-0.33 -1.32,-0.62 c -1.11,-0.53 -1.98,-1.99 -2.58,-4.38 v -0.33 l -0.24,-0.7 0.24,-0.3 -0.15,-0.85 -0.03,-0.27 -0.52,-0.58 v -0.36 c 0,-0.59 0.16,-0.99 0.49,-1.22 0.06,-0.16 0.17,-0.31 0.33,-0.46 l -0.12,-0.09 v -0.85 -0.43 l 0.37,-0.97 0.09,-0.49 -0.3,0.03 h -0.12 c -0.28,0 -0.53,-0.1 -0.73,-0.29 -0.2,-0.19 -0.3,-0.42 -0.3,-0.68 0,-0.3 0.19,-0.65 0.58,-1.03 l 0.21,-0.21 0.27,-0.12 c 0.32,-0.14 0.58,-0.21 0.76,-0.21 h 0.15 0.3 0.12 l 0.3,-0.52 1.37,0.09 0.09,0.09 c 0.18,-0.03 0.46,-0.05 0.82,-0.05 l 0.61,-0.13 h 0.15 c 0.26,-0.08 0.52,-0.24 0.76,-0.49 l 0.46,0.27 h 0.15 0.35 0.26 l 3.04,-0.27 0.3,0.18 0.43,-0.11 0.24,-0.29 0.61,0.4 0.21,-0.18 0.67,0.27 0.46,-0.09 0.24,0.09 0.97,-0.09 0.21,0.15 0.49,0.09 c 0.47,0.08 0.7,0.3 0.7,0.67 0,0.24 -0.09,0.46 -0.26,0.64 -0.17,0.18 -0.35,0.27 -0.53,0.27 H 88.6 l -0.33,0.18 -0.61,-0.18 -0.27,0.03 c -0.06,0.02 -0.14,0.03 -0.24,0.03 -0.2,0 -0.39,-0.04 -0.55,-0.12 l -0.09,-0.12 c -0.2,0.04 -0.33,0.06 -0.4,0.06 -0.08,0 -0.18,-0.02 -0.3,-0.06 -0.2,0.14 -0.58,0.26 -1.12,0.36 -0.28,0 -0.6,-0.01 -0.94,-0.03 0,-0.02 0.04,-0.09 0.12,-0.21 l -0.79,0.24 H 83 c -0.14,0 -0.41,0.14 -0.79,0.43 l -0.4,-0.18 -0.18,0.12 -0.73,-0.21 -0.43,0.21 h -0.61 l -0.91,0.18 -0.76,0.33 -0.21,-0.12 -0.4,0.27 h -0.4 l -0.09,0.15 0.09,0.36 -0.52,0.61 0.24,0.03 v 0.85 l 0.33,0.37 -0.27,0.24 c -0.2,0.34 -0.3,0.58 -0.3,0.7 0,0.08 0.06,0.14 0.18,0.18 l 0.36,-0.12 c 0.1,-0.02 0.2,-0.03 0.3,-0.03 0.3,0.04 0.53,0.08 0.67,0.12 l 0.55,-0.21 0.49,0.09 h 0.27 0.33 0.49 0.4 c 0.08,0 0.24,-0.07 0.49,-0.21 0.16,0.08 0.4,0.12 0.7,0.12 0.04,0 0.11,-0.01 0.21,-0.03 h 0.24 0.06 c -0.04,0 -0.08,-0.01 -0.12,-0.03 h 0.09 c 0.12,0 0.49,0.05 1.09,0.15 0.06,-0.03 0.38,-0.07 0.94,-0.1 0.32,-0.03 0.53,-0.05 0.61,-0.05 0.3,0 0.6,0.01 0.88,0.03 l 0.27,-0.03 c 0.28,-0.16 0.55,-0.24 0.79,-0.24 0.18,0 0.36,0.03 0.55,0.09 l 0.43,-0.09 0.36,0.15 1.22,-0.3 v 0.28 z"
   id="path12" />
		<path
   class="st0"
   d="m 154.02,14.47 c 0,0.3 -0.05,0.58 -0.16,0.84 -0.11,0.26 -0.25,0.48 -0.44,0.67 -0.18,0.19 -0.4,0.34 -0.66,0.44 -0.25,0.11 -0.53,0.16 -0.82,0.16 -0.31,0 -0.58,-0.05 -0.84,-0.16 -0.25,-0.11 -0.47,-0.25 -0.65,-0.44 -0.18,-0.19 -0.32,-0.41 -0.42,-0.67 -0.1,-0.26 -0.15,-0.54 -0.15,-0.84 0,-0.3 0.05,-0.58 0.15,-0.83 0.1,-0.26 0.24,-0.48 0.42,-0.67 0.18,-0.19 0.4,-0.33 0.65,-0.44 0.25,-0.11 0.53,-0.16 0.84,-0.16 0.3,0 0.57,0.05 0.82,0.16 0.25,0.11 0.47,0.25 0.66,0.44 0.18,0.19 0.33,0.41 0.43,0.67 0.12,0.25 0.17,0.53 0.17,0.83 m -0.45,0 c 0,-0.24 -0.04,-0.47 -0.12,-0.68 -0.08,-0.21 -0.19,-0.39 -0.34,-0.54 -0.14,-0.15 -0.32,-0.28 -0.51,-0.36 -0.2,-0.09 -0.41,-0.13 -0.65,-0.13 -0.24,0 -0.45,0.04 -0.65,0.13 -0.2,0.09 -0.37,0.21 -0.51,0.36 -0.15,0.15 -0.26,0.34 -0.34,0.54 -0.08,0.21 -0.12,0.43 -0.12,0.68 0,0.24 0.04,0.47 0.12,0.68 0.08,0.21 0.19,0.39 0.34,0.55 0.14,0.15 0.31,0.28 0.51,0.36 0.2,0.09 0.41,0.13 0.65,0.13 0.24,0 0.45,-0.04 0.65,-0.13 0.2,-0.09 0.37,-0.21 0.51,-0.36 0.14,-0.15 0.26,-0.34 0.34,-0.55 0.08,-0.22 0.12,-0.44 0.12,-0.68 m -1.15,1.15 c -0.09,-0.15 -0.17,-0.29 -0.25,-0.41 -0.07,-0.12 -0.13,-0.22 -0.18,-0.31 -0.05,-0.08 -0.1,-0.15 -0.14,-0.19 -0.04,-0.05 -0.07,-0.07 -0.1,-0.07 h -0.13 v 0.98 h -0.4 v -2.36 h 0.64 c 0.26,0 0.46,0.06 0.59,0.18 0.13,0.12 0.2,0.28 0.2,0.46 0,0.1 -0.02,0.18 -0.05,0.25 -0.03,0.07 -0.07,0.13 -0.12,0.18 -0.05,0.05 -0.1,0.09 -0.16,0.12 -0.06,0.03 -0.12,0.06 -0.17,0.07 h 0.01 c 0.02,0.01 0.06,0.05 0.1,0.1 0.04,0.06 0.1,0.13 0.16,0.23 0.06,0.1 0.13,0.21 0.21,0.34 0.08,0.13 0.16,0.27 0.25,0.42 h -0.46 z m -0.17,-1.67 c 0,-0.23 -0.14,-0.34 -0.42,-0.34 h -0.19 v 0.7 h 0.16 c 0.12,0 0.23,-0.03 0.32,-0.09 0.08,-0.06 0.13,-0.15 0.13,-0.27"
   id="path14" />
		<g
   id="g28">
			<path
   class="st1"
   d="m 38.98,28.17 c 0.56,0.71 0.64,-0.97 0.65,-1.1 0.48,-3.69 0.44,-7.77 -0.42,-11.45 -0.13,-0.54 -0.43,-1.03 -0.86,-1.38 0,0 -0.01,0 -0.01,-0.01 -0.08,-0.06 -0.19,0.01 -0.17,0.11 0.39,1.56 0.6,3.17 0.71,4.59 0.18,2.31 0.32,4.64 0.18,6.95 -0.01,0.48 -0.42,1.86 -0.08,2.29"
   id="path16" />
			<path
   class="st1"
   d="m 40.51,26.36 c -0.29,1.97 -1.47,3.48 -1.92,5.37 -0.39,1.64 -0.85,3.18 -1.75,4.56 -0.89,1.37 -2.09,2.48 -3.48,3.29 -0.33,0.2 -1.35,0.96 -1.79,0.76 -0.79,-0.34 0.22,-0.76 0.42,-0.87 6.97,-3.54 6.36,-12.19 6.07,-19.37 -0.08,-1.84 -0.25,-3.84 -0.74,-5.71 -0.02,-0.08 -0.04,-0.15 -0.06,-0.23 -0.17,-0.59 -0.56,-1.1 -1.09,-1.41 -0.08,-0.05 -0.16,-0.09 -0.24,-0.14 -0.06,-0.03 -0.12,0.03 -0.1,0.09 0.2,0.46 0.71,1.64 0.9,2.32 0.23,0.84 0.4,1.71 0.5,2.58 0.13,1.09 -0.18,2.14 -0.02,3.26 0.14,1 0.24,2.01 0.28,3.03 0.09,2.01 -0.01,4.03 -0.3,6.01 -0.58,3.98 -2.12,6.67 -5.34,8.79 -0.8,0.53 -1.51,0.96 -2.29,1.22 -0.77,0.26 -1.6,0.33 -2.63,0.14 -1.96,-0.31 -3.75,-1.57 -4.73,-3.2 -0.33,-0.49 -0.6,-1.02 -0.81,-1.56 -0.87,-2.17 -0.93,-4.65 -0.62,-6.81 0.43,-2.92 1.05,-6.85 4.24,-8.24 1.26,-0.54 2.84,-0.98 3.97,-0.02 1.34,1.14 1.81,2.79 2.15,4.49 0.42,2.09 0.52,4.25 0.5,6.38 -0.01,1.58 -0.3,3.31 -1.28,4.54 -0.92,1.16 -2.65,1.5 -3.98,0.59 -1.45,-0.98 -2,-2.65 -2.19,-4.22 -0.24,-2 -0.01,-3.99 0.48,-5.94 0.19,-0.74 0.99,-4.61 2.24,-4.39 1,0.18 1.09,4.09 1.25,4.9 0.4,1.97 0.23,3.77 0.09,5.75 -0.05,0.69 -0.56,1.53 -0.69,0.39 -0.11,-0.91 -0.07,-1.83 -0.03,-2.74 0.04,-0.9 0.05,-1.79 0.03,-2.69 -0.02,-0.86 -0.57,-1.05 -0.67,-0.12 -0.2,1.9 -0.48,4.27 0.08,6.15 0.16,0.53 0.54,1.22 1.22,0.99 0.67,-0.23 0.77,-1.36 0.84,-1.94 0.26,-2.09 0.16,-4.22 -0.15,-6.3 -0.23,-1.56 -0.31,-3.42 -1.53,-4.48 -0.31,-0.27 0.27,-0.59 0.54,-0.41 0.29,0.19 0.52,0.45 0.7,0.75 0.46,0.74 0.66,1.59 0.84,2.43 0.4,1.91 0.59,3.88 0.57,5.84 -0.02,1.39 0.13,4.04 -1.39,4.74 -1.81,0.83 -2.52,-1.68 -2.59,-2.86 -0.11,-1.95 -0.31,-4.01 0.36,-5.88 0.33,-0.91 0.47,-1.7 0.57,-2.66 0.07,-0.66 -0.52,-0.67 -0.68,-0.07 -0.51,1.91 -1.11,3.76 -1.18,5.73 -0.06,1.59 -0.22,3.7 0.66,5.14 0.79,1.3 2.4,2 3.67,0.98 1.3,-1.05 1.35,-3.11 1.4,-4.68 0.07,-2.12 -0.16,-4.25 -0.59,-6.32 -0.28,-1.37 -0.8,-3.41 -2.31,-3.88 -3.93,-1.04 -8,15.06 -0.87,17 1.43,0.4 2.99,-0.21 3.96,-1.19 1.09,-1.1 1.22,-2.71 1.43,-4.21 0.29,-2.08 -0.05,-3.92 -0.26,-6 -0.18,-1.76 -0.47,-3.57 -1.44,-5.07 -0.93,-1.44 -2,-2.12 -3.73,-2.08 -1.26,0.03 -2.52,0.39 -3.54,1.18 -2.62,2.02 -3.16,6.14 -3.48,9.02 -0.18,1.63 -0.14,3.45 0.28,5.18 0.14,0.58 0.32,1.15 0.55,1.7 1.08,3.49 5.14,5.62 8.8,5.29 0.62,-0.03 1.23,-0.1 1.81,-0.22 0.58,-0.12 1.14,-0.28 1.65,-0.49 2.82,-1.12 4.84,-3.46 5.76,-6.45 0.6,-1.95 1.42,-3.83 1.99,-5.8 0.54,-1.89 0.65,-3.97 0.63,-5.96 -0.01,-1.51 -0.12,-3.03 -0.29,-4.54 -0.06,-0.55 -0.3,-1.08 -0.66,-1.49 -0.09,-0.11 -0.27,-0.02 -0.24,0.12 0.61,3.24 0.71,6.81 0.25,9.94"
   id="path18" />
			<path
   class="st1"
   d="m 10.4,27.2 c -0.02,0.88 0.03,1.75 0.13,2.6 0,0.01 0,0.02 0,0.03 0.01,0.06 0.02,0.12 0.03,0.18 0.1,0.62 0.22,1.23 0.36,1.84 0.19,0.76 0.69,2.08 0.91,2.61 0.06,0.14 0.2,0.23 0.35,0.21 0.17,-0.02 0.27,-0.18 0.22,-0.34 -0.07,-0.23 -0.16,-0.51 -0.19,-0.62 -0.31,-0.94 -0.54,-1.9 -0.71,-2.86 -0.17,-0.96 -0.27,-1.93 -0.31,-2.9 -0.05,-1.56 -0.07,-3.13 0.09,-4.71 0.02,-0.2 -0.27,-0.26 -0.32,-0.06 -0.33,1.29 -0.53,2.63 -0.56,4.02"
   id="path20" />
			<path
   class="st1"
   d="m 18.1,37.26 c 0.11,0.2 0.32,1.46 -0.26,0.8 -0.54,-0.61 -1.02,-1.27 -1.44,-1.97 -0.42,-0.7 -0.77,-1.44 -1.04,-2.19 -0.55,-1.49 -0.81,-3.05 -0.79,-4.51 0,0.2 -0.01,0.25 0,-0.06 0.06,-2.7 0.02,-0.97 0,-0.14 0.18,-5.89 2.44,-12.9 9.2,-15.29 2.33,-0.82 5.7,0.09 7.19,2.01 0.39,0.51 -0.04,0.8 -0.5,0.44 -0.62,-0.48 -1.27,-0.9 -1.97,-1.23 -1.35,-0.64 -2.88,-0.91 -4.39,-0.5 -2.97,0.83 -5.69,3.4 -6.85,6.07 -1.27,2.94 -2.08,6.51 -1.83,9.6 0.14,1.75 0.56,3.26 1.49,4.83 0.42,0.69 0.81,1.41 1.19,2.14 m -5.5,-4.92 0.34,1.5 c 0.16,0.71 0.3,1.44 0.63,2.08 l 0.42,0.9 c 0.18,0.34 0.39,0.74 0.62,1.04 l 0.62,0.84 c 0.29,0.4 0.94,1.24 1.05,1.36 0.34,0.36 0.99,0.87 1.24,0.63 0.11,-0.1 -0.11,-0.39 -0.3,-0.59 C 17,39.86 16.55,39.26 16.36,39 16.17,38.73 15.98,38.49 15.81,38.26 l -0.08,-0.1 c -0.41,-0.54 -0.77,-1.12 -1.07,-1.74 l -0.24,-0.49 c -0.06,-0.11 -0.38,-1.01 -0.61,-1.64 -0.15,-0.41 -0.26,-0.83 -0.34,-1.26 l -0.34,-1.84 c -0.31,-1.86 -0.43,-3.8 -0.09,-5.66 0.3,-1.68 1.3,-3.33 1.87,-4.99 0.52,-1.5 1.36,-2.91 2.53,-4.09 1.18,-1.2 2.63,-1.96 4.01,-2.94 0.79,-0.56 -0.08,-0.55 -0.59,-0.28 -0.69,0.36 -1.37,0.75 -2.02,1.19 -1.29,0.87 -2.43,1.93 -3.28,3.18 -0.98,1.45 -1.59,3.23 -2.01,4.85 -0.18,0.69 -0.74,0.23 -0.63,-0.32 0.14,-0.67 0.31,-1.34 0.54,-2 0.94,-2.68 2.79,-5 5.4,-6.59 2.89,-1.76 7.05,-2.03 10.08,-0.85 3.03,1.17 5.19,4.72 6.33,7.84 1.35,3.7 0.7,8.12 -0.3,11.77 -0.12,0.43 -0.36,2.2 -0.84,2.34 -0.84,0.25 -0.21,-1.54 -0.17,-1.75 0.41,-1.93 0.92,-3.88 1.14,-5.87 0.44,-4.03 -0.98,-7.64 -3.13,-10.84 -1.85,-2.77 -5.77,-4.22 -8.98,-2.79 -2.79,1.24 -5.48,3.53 -6.85,6.12 -0.76,1.44 -1.18,3.08 -1.71,4.57 -0.57,1.59 -0.78,3.27 -0.73,4.92 0.05,1.93 0.54,3.82 1.07,5.7 0.21,0.73 0.29,1.2 0.72,1.67 0.3,0.33 0.59,0.66 0.82,1.04 0.35,0.57 0.73,1.12 1.15,1.65 0.58,0.73 1.23,1.42 1.93,2.06 2.43,2.41 5.73,3.65 8.99,3.63 3.87,-0.19 7.42,-1.66 10.21,-4.01 1.52,-1.41 2.8,-3.11 3.99,-4.88 0.01,-0.01 0.01,-0.02 0.02,-0.03 0.01,-0.01 0.02,-0.03 0.02,-0.04 0.28,-0.51 -0.45,-0.96 -0.79,-0.5 -0.11,0.15 -0.22,0.29 -0.33,0.44 -2.18,2.94 -4.16,5.67 -7.59,7.09 -0.75,0.31 -1.52,0.54 -2.32,0.69 -0.8,0.15 -1.61,0.23 -2.44,0.23 -2.91,0.27 -6.05,-0.53 -8.34,-2.58 -0.52,-0.49 -0.96,-1.05 -1.29,-1.68 -0.23,-0.45 -0.41,-0.94 -0.53,-1.47 -0.09,-0.44 -0.21,-0.87 -0.38,-1.29 -0.15,-0.37 -0.28,-0.75 -0.4,-1.12 -0.89,-2.93 -0.69,-5.92 -0.19,-8.94 0.5,-3.04 1.19,-6.4 3.99,-8.48 1.47,-1.1 3.26,-1.83 5.05,-1.26 0.5,0.16 0.67,0.84 0.01,0.68 -0.74,-0.17 -1.53,-0.16 -2.27,0.03 -3.81,0.95 -5.04,4.71 -5.77,7.86 -0.7,3.02 -0.98,6.06 -0.29,9.07 0.14,0.6 0.31,1.19 0.53,1.79 0,0.01 0.01,0.02 0.01,0.03 0.18,0.77 0.47,1.48 0.86,2.13 0.39,0.65 0.88,1.25 1.44,1.77 2.3,2.23 5.85,3.12 8.81,2.56 0.59,-0.06 1.17,-0.17 1.74,-0.31 1.71,-0.43 3.29,-1.22 4.63,-2.34 1.31,-1.11 2.37,-2.43 3.25,-3.95 0.84,-1.45 2.16,-2.4 2.91,-3.98 0.52,-1.11 0.86,-2.23 1.06,-3.46 0.21,-1.27 0.62,-3.75 0.32,-4.94 -0.08,-0.33 -0.56,-0.29 -0.58,0.05 -0.1,1.51 -0.2,3.04 -0.42,4.48 -0.28,1.85 -1.12,3.48 -1.93,5.07 -0.05,0.1 -0.66,1.13 -0.81,0.34 -0.06,-0.32 0.21,-0.78 0.31,-1.06 0.3,-0.84 0.71,-1.62 1.02,-2.47 0.69,-1.9 0.83,-3.93 0.96,-5.98 0.06,-1 0.17,-1.96 0.23,-2.92 0.04,-0.68 -0.11,-1.36 -0.44,-1.95 L 42.63,19.4 c -0.15,-0.28 -0.57,-0.16 -0.55,0.16 0.13,1.76 0.18,3.52 0.03,5.31 -0.17,2.01 -0.49,4.01 -1.25,5.83 -0.64,1.55 -0.98,3.16 -1.58,4.71 -1.08,2.8 -3.25,4.76 -5.91,5.87 -0.7,0.29 -1.47,0.51 -2.29,0.65 -0.81,0.14 -1.66,0.2 -2.51,0.17 -1.67,0.03 -3.43,-0.35 -4.88,-1.25 -0.73,-0.43 -1.38,-0.95 -1.93,-1.57 -0.55,-0.62 -0.99,-1.32 -1.3,-2.11 -0.36,-0.73 -0.63,-1.5 -0.84,-2.27 -0.21,-0.77 -0.35,-1.54 -0.44,-2.27 -0.41,-3.42 0.31,-7.36 1.75,-10.59 0.57,-1.28 1.51,-2.42 2.82,-3.08 1.19,-0.61 3.14,-1.03 4.44,-0.87 3.45,0.4 4.56,5.13 4.77,8 0.01,0.15 -0.03,2.38 0.5,1.87 0.39,-0.38 0.2,-1.78 0.19,-2.29 -0.04,-1.83 -0.42,-3.69 -1.33,-5.27 -1.39,-2.44 -5.14,-5.23 -8.05,-4.29 -2.95,0.95 -5.23,3.58 -6.05,6.33 -0.55,1.84 -0.98,3.74 -1.2,5.62 -0.21,1.76 0.1,3.35 0.21,5.1 0.02,0.36 -0.52,0.41 -0.63,0.07 -0.11,-0.34 -0.16,-0.72 -0.23,-1.07 -0.17,-0.86 -0.29,-1.72 -0.29,-2.59 0,-1.76 0.42,-3.49 0.84,-5.22 0.78,-3.17 1.98,-5.93 5.02,-7.92 3.38,-2.22 7.04,-0.84 9.74,1.64 2.66,2.44 3.07,6.66 2.45,10.09 -0.37,2.01 -0.96,3.95 -1.21,5.97 -0.17,1.42 -0.92,2.57 -2.07,3.34 -3.04,2.01 -6.57,0.41 -7.97,-2.85 -1.27,-2.97 -0.67,-6.84 0.35,-9.78 0.33,-0.93 0.74,-1.83 1.26,-2.69 0.48,-0.81 0.13,-1.27 -0.56,-0.46 -1.1,1.29 -1.55,3.16 -1.93,4.72 -0.81,3.3 -1.07,6.9 0.93,9.97 0.45,0.69 0.99,1.32 1.63,1.82 0.64,0.5 1.38,0.87 2.23,1.07 1.56,0.36 2.79,-0.16 4.06,-0.88 2.78,-1.57 4.58,-3.85 5.24,-7.11 0.73,-3.61 1.13,-7.74 -0.12,-11.31 -1.12,-3.22 -3.63,-6.65 -6.61,-7.95 -3.17,-1.38 -6.96,-0.98 -10.15,0.61 -1.71,0.95 -3.24,2.18 -4.52,3.64 -0.01,0.01 -0.01,0.01 -0.02,0.02 -0.32,0.41 -0.61,0.84 -0.87,1.29 -0.8,1.4 -1.23,2.86 -1.47,4.33 -0.12,0.74 -0.19,1.49 -0.23,2.23 -0.04,0.75 -0.05,1.5 -0.06,2.25 0,1.02 0.01,2.01 0.09,3 0.1,0.96 0.24,1.94 0.47,2.95"
   id="path22" />
			<path
   class="st1"
   d="m 14.57,29.33 c 0,0.02 0,0.04 0,0.06 0,-0.06 0,-0.13 0.01,-0.21 -0.01,0.06 -0.01,0.1 -0.01,0.15"
   id="path24" />
			<path
   class="st1"
   d="m 34.11,14.92 c 0.61,0.77 1.15,1.6 1.59,2.5 0.08,0.16 0.49,1.49 0.86,0.76 0.22,-0.44 -0.37,-1.52 -0.51,-1.91 -0.31,-0.85 -0.35,-1.66 -0.56,-2.52 -0.06,-0.22 -0.12,-0.44 -0.2,-0.64 -0.28,-0.73 -0.88,-1.14 -1.56,-1.53 -0.38,-0.22 -0.77,-0.42 -0.83,-0.31 -0.11,0.22 0.55,0.5 0.8,0.79 0.46,0.54 0.9,1.16 1.24,1.8 0.11,0.22 -0.04,0.55 -0.33,0.49 -0.24,-0.05 -0.55,-0.57 -0.66,-0.7 -0.56,-0.69 -1.11,-1.29 -1.7,-1.81 -0.94,-0.81 -2.12,-1.28 -3.36,-1.38 -0.3,-0.02 -0.61,-0.04 -0.92,-0.05 -0.56,-0.01 -0.83,-0.01 -0.83,0.13 0,0.29 0.87,0.15 1.64,0.4 2.08,0.7 3.77,2.01 5.33,3.98"
   id="path26" />
		</g>
	</g>
</g>
<g
   id="g84"
   transform="translate(-10.395654,-10.406227)">
	<path
   class="st0"
   d="m 49.82,39.5 0.34,-0.32 c 0.28,0.3 0.6,0.54 1.05,0.54 0.67,0 1.2,-0.51 1.28,-1.16 H 50.9 v -0.44 h 1.58 c -0.07,-0.62 -0.59,-1.13 -1.25,-1.13 -0.48,0 -0.8,0.22 -1.08,0.52 l -0.3,-0.34 c 0.32,-0.36 0.75,-0.63 1.41,-0.63 1.02,0 1.76,0.84 1.76,1.83 0,0.98 -0.77,1.8 -1.78,1.8 -0.66,0 -1.07,-0.26 -1.42,-0.67 z"
   id="path34" />
	<path
   class="st0"
   d="m 53.98,36.61 h 0.52 v 2 l 1.9,-2 h 0.64 l -1.45,1.51 1.49,1.97 H 56.47 L 55.23,38.5 54.5,39.25 v 0.84 h -0.52 z"
   id="path36" />
	<path
   class="st0"
   d="m 57.38,38.35 c 0,-0.98 0.77,-1.82 1.82,-1.82 1.04,0 1.81,0.82 1.81,1.82 0,0.98 -0.77,1.82 -1.82,1.82 -1.05,0 -1.81,-0.82 -1.81,-1.82 z m 3.1,0 c 0,-0.75 -0.56,-1.36 -1.29,-1.36 -0.75,0 -1.27,0.61 -1.27,1.36 0,0.75 0.55,1.35 1.29,1.35 0.74,0 1.27,-0.6 1.27,-1.35 z"
   id="path38" />
	<path
   class="st0"
   d="m 61.29,40.09 0.06,-0.44 c 0.07,0.02 0.19,0.05 0.25,0.05 0.42,0 0.77,-0.18 0.77,-2.79 v -0.29 h 2.46 v 3.48 h -0.52 v -3.02 h -1.45 v 0.08 c 0,2.71 -0.49,2.99 -1.15,2.99 -0.11,-0.01 -0.31,-0.03 -0.42,-0.06 z"
   id="path40" />
	<path
   class="st0"
   d="m 65.78,38.35 c 0,-0.98 0.77,-1.82 1.82,-1.82 1.04,0 1.81,0.82 1.81,1.82 0,0.98 -0.77,1.82 -1.82,1.82 -1.05,0 -1.81,-0.82 -1.81,-1.82 z m 3.1,0 c 0,-0.75 -0.56,-1.36 -1.29,-1.36 -0.75,0 -1.27,0.61 -1.27,1.36 0,0.75 0.55,1.35 1.29,1.35 0.74,0 1.27,-0.6 1.27,-1.35 z"
   id="path42" />
	<path
   class="st0"
   d="m 70.35,36.61 h 2.36 v 0.46 h -1.84 v 3.02 h -0.52 z"
   id="path44" />
	<path
   class="st0"
   d="m 73.46,36.61 h 0.52 v 2.75 l 2.07,-2.75 h 0.5 v 3.48 h -0.52 v -2.75 l -2.07,2.75 h -0.5 z"
   id="path46" />
	<path
   class="st0"
   d="m 79.92,38.65 c -0.25,0.14 -0.75,0.32 -1.16,0.32 -0.69,0 -1.15,-0.36 -1.15,-1.04 v -1.32 h 0.52 v 1.24 c 0,0.41 0.26,0.67 0.7,0.67 0.37,0 0.81,-0.13 1.1,-0.33 v -1.58 h 0.52 v 3.48 h -0.52 v -1.44 z"
   id="path48" />
	<path
   class="st0"
   d="m 81.38,38.35 c 0,-1.01 0.71,-1.82 1.67,-1.82 1.03,0 1.62,0.82 1.62,1.84 0,0.05 0,0.1 -0.01,0.18 H 81.9 c 0.07,0.73 0.61,1.16 1.22,1.16 0.48,0 0.81,-0.2 1.1,-0.49 l 0.32,0.29 c -0.35,0.39 -0.77,0.65 -1.43,0.65 -0.94,0.01 -1.73,-0.72 -1.73,-1.81 z m 2.77,-0.21 c -0.06,-0.63 -0.42,-1.17 -1.11,-1.17 -0.6,0 -1.06,0.5 -1.13,1.17 z"
   id="path50" />
	<path
   class="st0"
   d="m 85.37,38.35 c 0,-0.98 0.77,-1.82 1.78,-1.82 0.66,0 1.07,0.28 1.39,0.62 l -0.33,0.35 c -0.28,-0.29 -0.6,-0.51 -1.07,-0.51 -0.71,0 -1.24,0.6 -1.24,1.36 0,0.75 0.55,1.35 1.28,1.35 0.44,0 0.77,-0.23 1.05,-0.52 l 0.34,0.32 c -0.35,0.39 -0.77,0.67 -1.42,0.67 -1.01,0 -1.78,-0.83 -1.78,-1.82 z"
   id="path52" />
	<path
   class="st0"
   d="m 89.43,36.61 h 0.52 v 2 l 1.9,-2 h 0.64 l -1.45,1.51 1.49,1.97 h -0.61 l -1.24,-1.59 -0.73,0.75 v 0.84 h -0.52 z"
   id="path54" />
	<path
   class="st0"
   d="m 93.25,36.61 h 0.52 v 2.75 l 2.07,-2.75 h 0.5 v 3.48 h -0.52 v -2.75 l -2.07,2.75 h -0.5 z"
   id="path56" />
	<path
   class="st0"
   d="m 101.73,38.65 c -0.25,0.14 -0.75,0.32 -1.16,0.32 -0.69,0 -1.15,-0.36 -1.15,-1.04 v -1.32 h 0.52 v 1.24 c 0,0.41 0.26,0.67 0.7,0.67 0.37,0 0.81,-0.13 1.1,-0.33 v -1.58 h 0.52 v 3.48 h -0.52 v -1.44 z"
   id="path58" />
	<path
   class="st0"
   d="m 103.41,36.61 h 0.52 v 2.75 L 106,36.61 h 0.5 v 3.48 h -0.52 v -2.75 l -2.07,2.75 h -0.5 z"
   id="path60" />
	<path
   class="st0"
   d="m 107.44,38.35 c 0,-0.98 0.77,-1.82 1.78,-1.82 0.66,0 1.07,0.28 1.39,0.62 l -0.33,0.35 c -0.28,-0.29 -0.6,-0.51 -1.07,-0.51 -0.71,0 -1.25,0.6 -1.25,1.36 0,0.75 0.55,1.35 1.28,1.35 0.44,0 0.77,-0.23 1.05,-0.52 l 0.34,0.32 c -0.35,0.39 -0.77,0.67 -1.42,0.67 -1,0 -1.77,-0.83 -1.77,-1.82 z"
   id="path62" />
	<path
   class="st0"
   d="m 112.34,37.07 h -1.25 v -0.46 h 3.01 v 0.46 h -1.25 v 3.02 h -0.52 v -3.02 z"
   id="path64" />
	<path
   class="st0"
   d="m 114.87,36.61 h 0.52 v 1.3 h 0.93 c 0.75,0 1.37,0.31 1.37,1.04 0,0.69 -0.52,1.13 -1.31,1.13 h -1.51 z m 1.46,3.02 c 0.52,0 0.83,-0.22 0.83,-0.66 0,-0.4 -0.32,-0.61 -0.85,-0.61 h -0.92 v 1.27 z m 1.99,-3.02 h 0.52 v 3.48 h -0.52 z"
   id="path66" />
	<path
   class="st0"
   d="m 120,36.61 h 0.52 v 2.75 l 2.07,-2.75 h 0.5 v 3.48 h -0.52 v -2.75 l -2.07,2.75 H 120 Z m 0.57,-1.32 0.36,-0.07 c 0.08,0.29 0.26,0.47 0.59,0.47 0.33,0 0.51,-0.18 0.59,-0.47 l 0.36,0.07 c -0.08,0.48 -0.44,0.82 -0.95,0.82 -0.51,0 -0.86,-0.34 -0.95,-0.82 z"
   id="path68" />
	<path
   class="st0"
   d="m 126.27,36.61 h 3.01 v 3.48 h -0.52 v -3.02 h -1.98 v 3.02 h -0.52 v -3.48 z"
   id="path70" />
	<path
   class="st0"
   d="m 130.44,36.61 h 0.52 v 0.7 c 0.28,-0.42 0.69,-0.77 1.33,-0.77 0.83,0 1.66,0.66 1.66,1.82 0,1.14 -0.82,1.81 -1.66,1.81 -0.65,0 -1.06,-0.35 -1.33,-0.74 v 1.74 h -0.52 z m 2.98,1.73 c 0,-0.82 -0.57,-1.35 -1.22,-1.35 -0.65,0 -1.26,0.54 -1.26,1.35 0,0.81 0.61,1.35 1.26,1.35 0.67,0.01 1.22,-0.49 1.22,-1.35 z"
   id="path72" />
	<path
   class="st0"
   d="m 134.7,38.35 c 0,-0.98 0.77,-1.82 1.82,-1.82 1.04,0 1.81,0.82 1.81,1.82 0,0.98 -0.77,1.82 -1.82,1.82 -1.05,0 -1.81,-0.82 -1.81,-1.82 z m 3.09,0 c 0,-0.75 -0.56,-1.36 -1.29,-1.36 -0.75,0 -1.27,0.61 -1.27,1.36 0,0.75 0.55,1.35 1.29,1.35 0.75,0 1.27,-0.6 1.27,-1.35 z"
   id="path74" />
	<path
   class="st0"
   d="m 138.69,39.63 h 0.38 c 0.28,-0.52 0.46,-1.24 0.46,-2.42 V 36.6 H 142 v 3.02 h 0.52 l -0.08,1.33 h -0.43 v -0.87 h -2.81 l -0.09,0.87 h -0.42 z m 2.79,0 v -2.56 h -1.46 v 0.48 c 0,0.86 -0.17,1.63 -0.41,2.08 z"
   id="path76" />
	<path
   class="st0"
   d="m 143.04,41.01 0.17,-0.41 c 0.17,0.09 0.32,0.13 0.54,0.13 0.31,0 0.5,-0.16 0.71,-0.65 l -1.58,-3.46 h 0.57 l 1.26,2.9 1.12,-2.9 h 0.55 l -1.46,3.59 c -0.3,0.72 -0.63,0.98 -1.16,0.98 -0.27,-0.01 -0.48,-0.07 -0.72,-0.18 z"
   id="path78" />
	<path
   class="st0"
   d="m 147.23,36.61 h 0.52 v 2 l 1.9,-2 h 0.64 l -1.45,1.51 1.49,1.97 h -0.61 l -1.24,-1.59 -0.73,0.75 v 0.84 h -0.52 z"
   id="path80" />
	<path
   class="st0"
   d="m 151.88,37.07 h -1.25 v -0.46 h 3.01 v 0.46 h -1.25 v 3.02 h -0.52 v -3.02 z"
   id="path82" />
</g>
</svg>
