<?xml version="1.0" encoding="UTF-8" standalone="no"?>
<svg
   xmlns:dc="http://purl.org/dc/elements/1.1/"
   xmlns:cc="http://creativecommons.org/ns#"
   xmlns:rdf="http://www.w3.org/1999/02/22-rdf-syntax-ns#"
   xmlns:svg="http://www.w3.org/2000/svg"
   xmlns="http://www.w3.org/2000/svg"
   xmlns:sodipodi="http://sodipodi.sourceforge.net/DTD/sodipodi-0.dtd"
   xmlns:inkscape="http://www.inkscape.org/namespaces/inkscape"
   version="1.1"
   id="Слой_1"
   x="0px"
   y="0px"
   viewBox="0 0 91.019999 22.000001"
   xml:space="preserve"
   sodipodi:docname="logo_windi.svg"
   width="91.019997"
   height="22"
   inkscape:version="1.0.1 (3bc2e813f5, 2020-09-07)"><metadata
   id="metadata47"><rdf:RDF><cc:Work
       rdf:about=""><dc:format>image/svg+xml</dc:format><dc:type
         rdf:resource="http://purl.org/dc/dcmitype/StillImage" /><dc:title></dc:title></cc:Work></rdf:RDF></metadata><defs
   id="defs45" /><sodipodi:namedview
   pagecolor="#ffffff"
   bordercolor="#666666"
   borderopacity="1"
   objecttolerance="10"
   gridtolerance="10"
   guidetolerance="10"
   inkscape:pageopacity="0"
   inkscape:pageshadow="2"
   inkscape:window-width="2560"
   inkscape:window-height="1369"
   id="namedview43"
   showgrid="false"
   fit-margin-top="0"
   fit-margin-left="0"
   fit-margin-right="0"
   fit-margin-bottom="0"
   inkscape:zoom="7.1121148"
   inkscape:cx="45.164998"
   inkscape:cy="11.014998"
   inkscape:window-x="0"
   inkscape:window-y="34"
   inkscape:window-maximized="1"
   inkscape:current-layer="Слой_1" />
<style
   type="text/css"
   id="style2">
	.st0{fill:#005CA9;}
	.st1{fill-rule:evenodd;clip-rule:evenodd;fill:#005CA9;}
	.st2{fill:#9D9D9C;}
	.st3{fill-rule:evenodd;clip-rule:evenodd;fill:#7DA9DB;}
	.st4{stroke:#000000;stroke-width:0.5152;}
</style>
<g
   id="g40"
   transform="translate(-25.7,-59.85)">
	<g
   id="g34">
		<path
   class="st0"
   d="M 48.74,81.84 50,78.77 c 1.9,-0.37 4.16,-1 6.52,-1.67 l -1.95,4.75 h -5.83 z"
   id="path4" />
		<path
   class="st0"
   d="m 57.91,81.72 2.34,-5.71 c 2.27,-0.64 4.41,-1.31 6.49,-1.61 l -3,7.31 h -5.83 z"
   id="path6" />
		<path
   class="st0"
   d="m 76.44,74.76 -2.86,6.97 h -5.83 l 3.15,-7.68 c 1.75,-0.02 3.63,0.33 5.54,0.71 z"
   id="path8" />
		<path
   class="st0"
   d="m 108.44,60.02 c 1.29,0 1.86,0.98 1.28,2.21 -0.58,1.23 -2.07,2.21 -3.37,2.21 -1.29,0 -1.86,-0.98 -1.28,-2.21 0.59,-1.23 2.08,-2.21 3.37,-2.21 z"
   id="path10" />
		<path
   class="st0"
   d="m 96.48,81.72 2.56,-6.23 c 2.06,-0.69 4.67,-0.43 4.67,-0.43 0,0 -1.41,-1.46 -3.01,-3.62 l 2.42,-5.91 h 5.83 l -6.64,16.18 h -5.83 z"
   id="path12" />
		<path
   class="st0"
   d="m 60.7,60.14 c 1.01,0 1.58,0.6 1.5,1.44 -1.99,0.59 -3.59,1.33 -5.01,2.16 -0.14,-0.38 -0.1,-0.86 0.15,-1.39 0.58,-1.23 2.07,-2.21 3.36,-2.21 z"
   id="path14" />
		<path
   class="st0"
   d="M 101.5,60.82 98.51,68.11 98.44,68 c -1.19,-2.12 -1.7,-4.99 -1.92,-7.18 z"
   id="path16" />
		<path
   class="st0"
   d="m 94.9,76.89 -1.99,4.84 h -9.33 c -3.99,0 -5.71,-2.53 -4.73,-6.44 4.16,0.79 7.9,2.13 9.6,2.3 2.39,0.22 4.52,-0.15 6.45,-0.7 z"
   id="path18" />
		<path
   class="st0"
   d="m 25.7,81.72 0.66,-4.78 c 1.51,0.25 5.17,0.59 7.58,0.94 l -2.75,3.84 z"
   id="path20" />
		<path
   class="st0"
   d="m 42.89,78.95 -2.14,2.78 h -4.03 l 0.64,-3.38 c 1.91,0.24 3.82,0.45 5.53,0.6 z"
   id="path22" />
		<path
   class="st1"
   d="M 26.87,74.37 28.62,60.7 h 7.78 l -2.12,9.43 h 0.06 l 6.74,-9.43 h 4.88 l -1.67,9.54 6.35,-9.54 h 6.31 l -6.62,8.52 c -0.99,0.63 -1.94,1.08 -3.25,1.62 -2.42,1.01 -5.57,2.16 -8.68,2.47 l 0.31,-2 h -0.06 l -1.67,2.31 c -3.66,0.63 -7.57,0.99 -10.11,0.75 z"
   id="path24" />
		<path
   class="st2"
   d="M 26.84,78.12"
   id="path26" />
		<path
   class="st3"
   d="m 89.35,76.21 2.2,-5.36 c -0.67,-0.22 -1.29,-0.34 -1.93,-0.34 -1.85,0 -3.61,1.22 -4.37,3.06 -0.73,1.78 0.12,2.91 2.14,2.91 0.59,0.01 1.13,-0.09 1.96,-0.27 z m 7.18,-15.39 c 0.21,2.19 0.79,4.96 1.92,7.18 l 0.06,0.11 -3.6,8.77 c -1.94,0.55 -4.06,0.93 -6.45,0.7 -1.7,-0.17 -5.5,-1.34 -9.6,-2.3 0.14,-0.56 0.34,-1.15 0.59,-1.77 2.02,-4.93 6.41,-8.24 10.9,-8.24 1.23,0 2.14,0.18 3.23,0.67 l 2.1,-5.12 z m -69.7,13.47 c 2.22,0.07 6.23,0.06 10.2,-0.78 l -3.08,4.37 c -2.49,-0.22 -6,-0.53 -7.58,-0.94 z M 38.4,73.27 c 3.57,-0.76 6.08,-1.4 8.64,-2.43 1.32,-0.53 2.37,-1.12 3.37,-1.74 l -7.52,9.85 c -1.72,-0.14 -3.62,-0.36 -5.53,-0.6 z m 18.79,-9.53 c 1.39,-0.95 2.94,-1.63 5.01,-2.16 -0.02,0.24 -0.09,0.5 -0.22,0.77 -0.58,1.23 -2.07,2.21 -3.37,2.21 -0.73,0 -1.23,-0.32 -1.42,-0.82 z m 43.51,7.71 c 1.72,2.12 3.16,3.67 3.16,3.67 0,0 -2.76,-0.32 -4.82,0.37 z m -44.18,5.64 c -2.36,0.67 -4.62,1.3 -6.52,1.67 l 5.38,-13.11 h 5.83 z M 76.44,74.76 C 74.53,74.38 72.62,74.1 70.91,74.05 l 0.48,-1.17 c 0.67,-1.63 0.44,-2.36 -0.71,-2.36 -0.93,0 -1.91,0.55 -3.04,1.75 l -0.89,2.16 c -1.97,0.37 -4.21,0.97 -6.49,1.61 l 4.3,-10.48 h 5.83 l -0.87,2.12 c 2.3,-1.72 3.9,-2.39 5.75,-2.39 3.25,0 4.18,2.18 2.7,5.76 z"
   id="path28" />
		<path
   class="st4"
   d="M 33.9,62.99"
   id="path30" />
		<path
   class="st4"
   d="M 26.91,76.07"
   id="path32" />
	</g>
	<g
   id="g38">
		<path
   class="st0"
   d="m 112.13,61.21 c 0.13,-0.29 0.3,-0.53 0.53,-0.73 0.22,-0.2 0.47,-0.36 0.76,-0.47 0.29,-0.11 0.59,-0.16 0.91,-0.16 0.32,0 0.62,0.05 0.91,0.16 0.29,0.11 0.54,0.27 0.76,0.47 0.22,0.2 0.39,0.44 0.53,0.73 0.13,0.28 0.19,0.61 0.19,0.96 0,0.36 -0.07,0.68 -0.19,0.97 -0.13,0.29 -0.3,0.53 -0.53,0.74 -0.22,0.2 -0.48,0.36 -0.76,0.47 -0.29,0.11 -0.59,0.16 -0.91,0.16 -0.31,0 -0.62,-0.05 -0.91,-0.16 -0.29,-0.11 -0.54,-0.26 -0.76,-0.47 -0.22,-0.21 -0.4,-0.45 -0.53,-0.74 -0.13,-0.29 -0.2,-0.61 -0.2,-0.97 0,-0.35 0.07,-0.67 0.2,-0.96 z m 0.57,1.7 c 0.09,0.22 0.22,0.42 0.37,0.58 0.16,0.16 0.34,0.29 0.56,0.38 0.21,0.09 0.44,0.14 0.69,0.14 0.24,0 0.47,-0.05 0.68,-0.14 0.21,-0.09 0.4,-0.22 0.56,-0.38 0.16,-0.17 0.28,-0.36 0.38,-0.58 0.09,-0.22 0.14,-0.47 0.14,-0.73 0,-0.27 -0.05,-0.51 -0.14,-0.73 -0.09,-0.22 -0.22,-0.41 -0.38,-0.58 -0.16,-0.16 -0.34,-0.29 -0.56,-0.38 -0.22,-0.09 -0.44,-0.14 -0.68,-0.14 -0.24,0 -0.47,0.05 -0.69,0.14 -0.21,0.09 -0.4,0.22 -0.56,0.38 -0.16,0.16 -0.28,0.35 -0.37,0.58 -0.09,0.22 -0.14,0.47 -0.14,0.73 0.01,0.26 0.05,0.51 0.14,0.73 z m 1.68,-2.04 c 0.33,0 0.58,0.06 0.76,0.18 0.18,0.11 0.26,0.31 0.26,0.6 0,0.12 -0.02,0.22 -0.05,0.31 -0.04,0.09 -0.08,0.16 -0.15,0.21 -0.06,0.06 -0.14,0.1 -0.22,0.12 -0.08,0.03 -0.17,0.05 -0.27,0.06 l 0.7,1.14 h -0.54 l -0.63,-1.12 h -0.31 v 1.12 h -0.53 v -2.61 h 0.98 z m -0.01,1.09 c 0.14,0 0.26,-0.02 0.36,-0.06 0.1,-0.04 0.14,-0.14 0.14,-0.3 0,-0.07 -0.01,-0.13 -0.05,-0.17 -0.03,-0.04 -0.07,-0.08 -0.12,-0.1 -0.05,-0.03 -0.11,-0.04 -0.17,-0.05 -0.06,-0.01 -0.12,-0.01 -0.18,-0.01 h -0.42 v 0.69 z"
   id="path36" />
	</g>
</g>
</svg>
