<?xml version="1.0" encoding="UTF-8" standalone="no"?>
<svg
   xmlns:dc="http://purl.org/dc/elements/1.1/"
   xmlns:cc="http://creativecommons.org/ns#"
   xmlns:rdf="http://www.w3.org/1999/02/22-rdf-syntax-ns#"
   xmlns:svg="http://www.w3.org/2000/svg"
   xmlns="http://www.w3.org/2000/svg"
   xmlns:sodipodi="http://sodipodi.sourceforge.net/DTD/sodipodi-0.dtd"
   xmlns:inkscape="http://www.inkscape.org/namespaces/inkscape"
   version="1.1"
   id="Слой_1"
   x="0px"
   y="0px"
   viewBox="0 0 118.74 23.910001"
   xml:space="preserve"
   sodipodi:docname="logo_nosefrida-crop.svg"
   width="118.74"
   height="23.91"
   inkscape:version="1.0.1 (3bc2e813f5, 2020-09-07)"><metadata
   id="metadata95"><rdf:RDF><cc:Work
       rdf:about=""><dc:format>image/svg+xml</dc:format><dc:type
         rdf:resource="http://purl.org/dc/dcmitype/StillImage" /><dc:title></dc:title></cc:Work></rdf:RDF></metadata><defs
   id="defs93" /><sodipodi:namedview
   pagecolor="#ffffff"
   bordercolor="#666666"
   borderopacity="1"
   objecttolerance="10"
   gridtolerance="10"
   guidetolerance="10"
   inkscape:pageopacity="0"
   inkscape:pageshadow="2"
   inkscape:window-width="2560"
   inkscape:window-height="1369"
   id="namedview91"
   showgrid="false"
   fit-margin-top="0"
   fit-margin-left="0"
   fit-margin-right="0"
   fit-margin-bottom="0"
   inkscape:zoom="7.1121148"
   inkscape:cx="59.034998"
   inkscape:cy="11.974998"
   inkscape:window-x="0"
   inkscape:window-y="34"
   inkscape:window-maximized="1"
   inkscape:current-layer="Слой_1" />
<style
   type="text/css"
   id="style2">
	.st0{fill:#0069B4;}
</style>
<g
   id="g88"
   transform="translate(-11.83,-58.89)">
	<path
   class="st0"
   d="m 32.43,71.29 c -0.09,0.39 0.16,0.79 0.56,0.88 0.4,0.09 0.8,-0.15 0.89,-0.54 0.09,-0.39 -0.16,-0.78 -0.56,-0.88 -0.4,-0.09 -0.8,0.15 -0.89,0.54"
   id="path4" />
	<path
   class="st0"
   d="m 37.67,72.72 c -0.09,0.39 0.16,0.78 0.56,0.88 0.4,0.09 0.8,-0.15 0.89,-0.54 0.09,-0.39 -0.16,-0.78 -0.56,-0.88 -0.4,-0.09 -0.8,0.15 -0.89,0.54"
   id="path6" />
	<path
   class="st0"
   d="m 38.63,70.16 c 0,-0.15 1.59,-0.11 2.19,0.37 0.6,0.48 0.57,0.94 0.35,1.05 -0.27,0.14 -0.34,-0.49 -0.86,-0.79 -0.79,-0.45 -1.68,-0.63 -1.68,-0.63"
   id="path8" />
	<path
   class="st0"
   d="m 35.33,68.25 c 0.1,-0.06 -0.56,-0.9 -1.75,-0.73 -1.19,0.17 -1.68,0.8 -1.42,1.1 0.27,0.31 0.97,-0.56 1.65,-0.67 0.97,-0.15 1.52,0.3 1.52,0.3"
   id="path10" />
	<path
   class="st0"
   d="m 34.24,73.04 c -0.08,-0.04 0.25,-0.8 1.08,-0.6 0.83,0.2 0.96,0.99 0.73,1.11 -0.36,0.18 -0.48,-0.58 -0.87,-0.67 -0.7,-0.17 -0.94,0.16 -0.94,0.16"
   id="path12" />
	<path
   class="st0"
   d="m 31.68,73.82 c -0.14,-0.03 -0.5,2.36 2.01,2.96 1.72,0.41 2.74,-0.36 2.51,-0.81 -0.35,-0.66 -1.02,0.6 -2.49,0.25 -2.05,-0.48 -2.03,-2.4 -2.03,-2.4"
   id="path14" />
	<g
   id="g86">
		<path
   class="st0"
   d="m 97.82,62.37 c 0,1.07 -0.87,1.94 -1.94,1.94 -1.07,0 -1.94,-0.87 -1.94,-1.94 0,-1.07 0.87,-1.94 1.94,-1.94 1.07,0 1.94,0.87 1.94,1.94"
   id="path16" />
		<g
   id="g84">
			<path
   class="st0"
   d="m 92.34,79.24 v 3.37 l -0.07,0.07 h -0.32 l -0.07,-0.07 v -3.37 h -0.83 l -0.07,-0.07 v -0.25 c 0,-0.04 0.02,-0.07 0.08,-0.07 h 2.19 l 0.07,0.04 -0.02,0.07 -0.08,0.21 -0.09,0.06 h -0.79 z"
   id="path18" />
			<polygon
   class="st0"
   points="94.37,82.68 94.04,82.68 93.97,82.61 93.97,78.92 94.04,78.85 94.37,78.85 94.43,78.92 94.43,80.49 95.87,80.49 95.87,78.92 95.94,78.85 96.26,78.85 96.33,78.92 96.33,82.61 96.26,82.68 95.94,82.68 95.87,82.61 95.87,80.88 94.43,80.88 94.43,82.61 "
   id="polygon20" />
			<path
   class="st0"
   d="m 99.36,82.6 c 0,0.07 -0.02,0.08 -0.08,0.08 h -1.72 l -0.07,-0.07 v -3.69 l 0.07,-0.07 h 1.74 c 0.06,0 0.07,0.02 0.07,0.03 l -0.02,0.07 -0.08,0.24 c -0.02,0.05 -0.03,0.05 -0.08,0.05 h -1.24 v 1.24 h 1.09 c 0.06,0 0.07,0.01 0.07,0.07 v 0.25 c 0,0.06 -0.01,0.07 -0.07,0.07 h -1.09 v 1.41 h 1.34 l 0.07,0.06 z"
   id="path22" />
			<path
   class="st0"
   d="m 102.98,82.75 c -0.9,0 -1.26,-0.8 -1.26,-1.99 0,-1.2 0.37,-1.99 1.26,-1.99 0.89,0 1.26,0.8 1.26,1.99 0.01,1.19 -0.36,1.99 -1.26,1.99 m 0.76,-1.99 c 0,-0.97 -0.13,-1.61 -0.76,-1.61 -0.62,0 -0.76,0.64 -0.76,1.61 0,0.98 0.13,1.62 0.76,1.62 0.63,0 0.76,-0.64 0.76,-1.62"
   id="path24" />
			<path
   class="st0"
   d="m 107.39,82.59 0.02,0.06 -0.06,0.04 -0.35,0.06 -0.08,-0.04 -0.92,-1.78 h -0.4 v 1.68 l -0.07,0.07 h -0.32 l -0.07,-0.07 v -3.69 l 0.07,-0.07 h 0.87 c 0.43,0 1.13,0.03 1.13,1.02 0,0.61 -0.43,0.93 -0.74,1.03 z m -1.44,-2.02 c 0.41,0 0.79,-0.1 0.79,-0.69 0,-0.62 -0.4,-0.64 -0.72,-0.64 h -0.43 v 1.33 z"
   id="path26" />
			<polygon
   class="st0"
   points="107.95,82.68 107.89,82.61 107.89,82.38 107.95,82.31 108.46,82.31 108.46,79.21 107.95,79.21 107.89,79.15 107.89,78.92 107.95,78.85 109.43,78.85 109.49,78.92 109.49,79.15 109.43,79.21 108.92,79.21 108.92,82.31 109.43,82.31 109.49,82.38 109.49,82.61 109.43,82.68 "
   id="polygon28" />
			<path
   class="st0"
   d="m 112.35,82.31 c 0,0.15 0,0.19 -0.08,0.24 -0.21,0.12 -0.56,0.21 -0.9,0.21 -0.99,0 -1.34,-0.87 -1.34,-2.03 0,-1.06 0.37,-1.95 1.35,-1.95 0.51,0 0.93,0.26 0.93,0.34 l -0.03,0.07 -0.08,0.16 -0.07,0.08 c -0.06,0 -0.28,-0.27 -0.73,-0.27 -0.61,0 -0.86,0.58 -0.86,1.52 0,1.03 0.24,1.71 0.85,1.71 0.26,0 0.41,-0.06 0.51,-0.11 V 81.1 h -0.45 l -0.07,-0.07 V 80.8 l 0.07,-0.07 h 0.84 l 0.07,0.07 v 1.51 z"
   id="path30" />
			<polygon
   class="st0"
   points="113.14,82.68 113.07,82.61 113.07,82.38 113.14,82.31 113.65,82.31 113.65,79.21 113.14,79.21 113.07,79.15 113.07,78.92 113.14,78.85 114.61,78.85 114.68,78.92 114.68,79.15 114.61,79.21 114.11,79.21 114.11,82.31 114.61,82.31 114.68,82.38 114.68,82.61 114.61,82.68 "
   id="polygon32" />
			<path
   class="st0"
   d="m 117.77,82.61 -0.07,0.07 h -0.31 l -0.09,-0.06 -1.28,-2.76 c -0.07,-0.15 -0.12,-0.33 -0.15,-0.49 l -0.01,0.01 c 0.05,0.21 0.06,0.37 0.06,0.5 v 2.73 l -0.07,0.07 h -0.29 l -0.07,-0.07 v -3.69 l 0.07,-0.07 h 0.38 l 0.08,0.05 1.23,2.6 c 0.07,0.14 0.08,0.26 0.13,0.43 l 0.01,-0.01 c -0.02,-0.12 -0.05,-0.24 -0.05,-0.34 v -2.66 l 0.07,-0.07 h 0.29 l 0.07,0.07 z"
   id="path34" />
			<path
   class="st0"
   d="m 121.26,82.55 0.03,0.09 c 0,0.03 -0.02,0.03 -0.08,0.03 h -0.35 c -0.07,0 -0.09,-0.02 -0.1,-0.06 l -0.31,-1.08 h -1.15 l -0.28,1.08 c -0.01,0.04 -0.03,0.06 -0.1,0.06 h -0.35 c -0.06,0 -0.08,-0.01 -0.08,-0.03 l 0.03,-0.09 1.12,-3.64 c 0.02,-0.06 0.02,-0.06 0.08,-0.06 h 0.33 c 0.05,0 0.06,0 0.08,0.06 z m -1.25,-2.64 c -0.05,-0.17 -0.1,-0.37 -0.13,-0.53 h -0.01 c -0.02,0.13 -0.08,0.38 -0.12,0.53 l -0.34,1.23 h 0.93 z"
   id="path36" />
			<polygon
   class="st0"
   points="124,82.4 123.92,82.61 123.83,82.68 122.14,82.68 122.08,82.61 122.08,78.92 122.14,78.85 122.47,78.85 122.53,78.92 122.53,82.28 123.95,82.28 124.02,82.33 "
   id="polygon38" />
			<g
   id="g82">
				<path
   class="st0"
   d="m 127.99,63 h 0.51 c 0.26,0 0.55,0.06 0.55,0.4 0,0.41 -0.31,0.43 -0.66,0.43 h -0.41 V 63 Z m -0.39,2.29 h 0.39 v -1.13 h 0.41 l 0.68,1.13 h 0.42 l -0.72,-1.16 c 0.37,-0.04 0.66,-0.24 0.66,-0.72 0,-0.51 -0.28,-0.75 -0.87,-0.75 h -0.97 z m -0.93,-1.32 c 0,-1.08 0.77,-1.91 1.77,-1.91 0.99,0 1.75,0.83 1.75,1.91 0,1.1 -0.77,1.93 -1.75,1.93 -1,0 -1.77,-0.83 -1.77,-1.93 m -0.39,0 c 0,1.29 0.98,2.26 2.15,2.26 1.17,0 2.14,-0.97 2.14,-2.26 0,-1.27 -0.98,-2.24 -2.14,-2.24 -1.16,0 -2.15,0.97 -2.15,2.24"
   id="path40" />
				<path
   class="st0"
   d="m 27.37,61.45 v 14.84 h -3.82 l -9,-13.04 v 10.56 c 0,1.2 0.11,1.56 0.96,2.48 h -3.68 c 0.79,-0.89 0.98,-1.3 0.98,-2.48 V 61.53 c 0,-1.28 -0.05,-1.59 -0.84,-2.63 h 4.71 l 8.97,13.22 v -10.7 c 0,-1.23 -0.03,-1.54 -0.82,-2.53 h 3.41 c -0.7,0.94 -0.87,1.38 -0.87,2.56"
   id="path42" />
				<path
   class="st0"
   d="m 50.81,76.61 c -1.8,0 -3.3,-0.24 -4.93,-0.81 v -3 c 1.09,1.25 2.34,2.7 4.63,2.7 1.42,0 2.43,-0.63 2.43,-1.68 0,-1.25 -1.69,-1.75 -2.97,-2.24 -1.96,-0.75 -4.09,-1.65 -4.09,-3.47 0,-2.32 3.05,-3.23 5.81,-3.23 1.58,0 2.83,0.22 4.3,0.59 v 2.64 c -0.95,-1.03 -2.21,-2.14 -4.09,-2.14 -1.17,0 -2.21,0.59 -2.21,1.49 0,2.16 7.17,1.94 7.17,5.53 0,2.41 -3.05,3.62 -6.05,3.62"
   id="path44" />
				<path
   class="st0"
   d="m 61.37,69.31 c -0.03,0.36 -0.05,0.71 -0.05,1.07 0,2.16 1.17,4.5 4.66,4.5 1.72,0 3.76,-0.73 4.96,-1.59 l -0.6,1.73 c -1.64,0.99 -3.38,1.57 -5.53,1.57 -4.66,0 -7.5,-2.64 -7.5,-5.89 0,-3.23 3,-5.79 7.58,-5.79 1.99,0 3.87,0.5 5.15,1.65 1.01,0.91 1.2,1.63 1.31,2.76 h -9.98 z m 3.54,-3.43 c -0.95,0 -1.74,0.28 -2.37,0.79 -0.65,0.54 -0.82,1.09 -1.01,1.76 h 4.71 c 0.79,0 1.31,-0.14 1.31,-0.77 0.01,-1.03 -1.27,-1.78 -2.64,-1.78"
   id="path46" />
				<path
   class="st0"
   d="m 79.02,60.38 h -2.35 v 5.95 h 1.63 c 1.44,0 2.86,-0.21 3.6,-1.57 v 4.62 c -0.98,-1.33 -1.86,-1.56 -3.49,-1.56 h -1.74 v 6 c 0,1.23 0.03,1.56 0.95,2.48 h -6.16 c 0.84,-0.88 1.03,-1.28 1.03,-2.48 V 61.47 c 0,-1.3 -0.03,-1.59 -0.95,-2.58 h 11.88 v 3.55 c -1.08,-1.83 -2.33,-2.06 -4.4,-2.06"
   id="path48" />
				<path
   class="st0"
   d="m 90.25,67.03 c -1.8,0 -2.29,1.33 -2.29,2.4 v 5.04 c 0,0.89 0.08,1.13 0.84,1.84 h -5.53 c 0.79,-0.67 0.95,-0.95 0.95,-1.84 V 67.1 c 0,-0.87 -0.11,-1.17 -0.77,-1.9 h 4.5 v 1.51 c 1.58,-1.17 2.51,-1.53 4.77,-1.68 v 3.47 c -0.56,-0.77 -1.13,-1.47 -2.47,-1.47"
   id="path50" />
				<path
   class="st0"
   d="m 92.97,76.31 c 0.82,-0.65 1.04,-0.95 1.04,-1.84 V 66.7 c 0,-0.67 -0.16,-0.97 -0.74,-1.51 h 4.47 v 9.28 c 0,0.89 0.08,1.15 0.87,1.84 z"
   id="path52" />
				<path
   class="st0"
   d="m 109.42,76.31 v -1.29 c -0.19,0.18 -0.38,0.34 -0.6,0.49 -1.03,0.73 -2.64,1.07 -4.06,1.07 -3.98,0 -6.05,-2.52 -6.05,-5.15 0,-3.8 3.44,-6.22 8.64,-6.22 0.68,0 1.39,0.02 2.07,0.02 v -4.34 c 0,-0.85 -0.19,-1.25 -0.82,-1.96 h 4.55 v 15.54 c 0,0.85 0.14,1.17 0.87,1.84 z m 0,-7.39 c 0,-1.15 -0.11,-2.74 -2.21,-2.74 -3.3,0 -4.6,2.7 -4.6,4.7 0,1.77 0.92,4.36 3.92,4.36 0.96,0 1.75,-0.3 2.29,-0.85 0.57,-0.55 0.6,-1.17 0.6,-1.82 z"
   id="path54" />
				<path
   class="st0"
   d="M 123.09,76.31 123.01,75 c -0.25,0.18 -0.49,0.38 -0.74,0.54 -1.06,0.69 -2.64,1.05 -4.06,1.05 -2.04,0 -4.03,-0.95 -4.03,-2.56 0,-1.05 0.68,-1.69 1.85,-2.24 1.11,-0.54 2.31,-0.91 3.52,-1.33 1.12,-0.4 2.21,-0.81 3.3,-1.25 v -1.43 c 0,-1.01 -0.22,-1.78 -1.85,-1.78 -2.37,0 -4.14,1.63 -5.4,2.89 l -0.03,-2.97 c 1.91,-0.57 3.71,-0.97 5.8,-0.97 1.23,0 2.86,0.16 3.93,0.63 1.34,0.59 1.31,1.47 1.31,2.48 v 6.4 c 0,0.85 0.16,1.17 0.9,1.84 h -4.42 z m -0.22,-5.97 c -1.74,0.71 -4.82,1.37 -4.82,3.15 0,0.89 0.9,1.55 2.12,1.55 0.43,0 0.85,-0.1 1.23,-0.24 1.25,-0.5 1.47,-1.29 1.47,-2.24 z"
   id="path56" />
				<path
   class="st0"
   d="m 43.09,74.75 c -2.77,3.94 -7.52,5.44 -10.95,3.6 -0.23,-0.12 -0.45,-0.26 -0.67,-0.41 -2.06,-1.45 -3.04,-3.95 -2.87,-6.63 0.12,-1.81 0.76,-3.7 1.96,-5.39 0.04,-0.06 0.08,-0.11 0.12,-0.16 2.45,-2.93 6.46,-3.91 9.84,-2.54 2.93,-0.42 4.23,2.64 4.47,4.32 0.32,2.32 -0.3,4.94 -1.9,7.21 M 39.91,64.54 c -1.71,0.22 -2.57,1.97 -2.57,3.01 0,1.05 1,1.47 1.55,1.25 0.55,-0.22 1.01,-0.76 0.57,-2.15 2.2,1.28 -0.06,3.9 -1.93,2.96 -3.11,-1.68 -0.27,-5.21 1.11,-5.8 -2.24,-0.07 -4.83,1.36 -6.6,3.88 -2.45,3.48 -2.42,7.73 0.08,9.48 2.49,1.76 6.5,0.36 8.95,-3.12 1.83,-2.6 2.27,-5.62 1.34,-7.72 -0.36,-0.79 -1.17,-1.97 -2.5,-1.79"
   id="path58" />
				<polygon
   class="st0"
   points="92.3,82.59 92.26,82.63 91.97,82.63 91.92,82.59 91.92,79.2 91.07,79.2 91.02,79.16 91.02,78.92 91.03,78.9 91.06,78.89 93.24,78.89 93.27,78.91 93.25,78.95 93.18,79.15 93.11,79.2 92.3,79.2 92.3,79.24 92.34,79.24 92.34,79.28 93.14,79.28 93.24,79.21 93.25,79.21 93.33,78.98 93.33,78.98 93.36,78.91 93.37,78.88 93.27,78.82 93.26,78.81 91.06,78.81 90.97,78.84 90.94,78.92 90.94,79.17 90.94,79.19 91.02,79.27 91.03,79.28 91.84,79.28 91.84,82.63 91.92,82.71 91.93,82.72 92.27,82.72 92.29,82.72 92.37,82.64 92.38,82.63 92.38,79.24 92.34,79.24 92.34,79.28 92.34,79.24 92.3,79.24 "
   id="polygon60" />
				<polygon
   class="st0"
   points="94.39,82.59 94.35,82.63 94.06,82.63 94.02,82.59 94.02,78.94 94.06,78.89 94.35,78.89 94.39,78.94 94.39,80.54 95.91,80.54 95.91,78.94 95.95,78.89 96.24,78.89 96.28,78.94 96.28,82.59 96.24,82.63 95.95,82.63 95.91,82.59 95.91,80.84 94.39,80.84 94.39,80.88 94.43,80.88 94.43,80.93 95.83,80.93 95.83,82.63 95.91,82.71 95.92,82.72 96.26,82.72 96.28,82.72 96.36,82.64 96.37,82.63 96.37,78.9 96.29,78.82 96.28,78.81 95.94,78.81 95.92,78.81 95.84,78.89 95.83,78.9 95.83,80.45 94.48,80.45 94.48,78.9 94.4,78.82 94.38,78.81 94.04,78.81 94.03,78.81 93.94,78.89 93.93,78.9 93.93,82.63 94.01,82.71 94.03,82.72 94.37,82.72 94.38,82.72 94.46,82.64 94.48,82.63 94.48,80.88 94.43,80.88 94.43,80.93 94.43,80.88 94.39,80.88 "
   id="polygon62" />
				<polygon
   class="st0"
   points="99.32,82.63 99.32,82.63 99.32,82.64 99.32,82.63 99.32,82.63 99.32,82.64 99.32,82.63 99.29,82.63 97.58,82.63 97.54,82.59 97.54,78.94 97.58,78.89 99.3,78.89 99.34,78.9 99.35,78.88 99.33,78.88 99.34,78.9 99.35,78.88 99.33,78.88 99.38,78.88 99.33,78.87 99.32,78.94 99.24,79.18 99.23,79.2 99.23,79.2 99.2,79.2 97.91,79.2 97.91,80.52 99.05,80.52 99.08,80.53 99.08,80.53 99.09,80.52 99.08,80.52 99.08,80.53 99.09,80.52 99.08,80.52 99.08,80.55 99.08,80.8 99.08,80.83 99.08,80.83 99.09,80.83 99.08,80.83 99.08,80.83 99.09,80.83 99.08,80.83 99.05,80.83 97.91,80.83 97.91,82.33 99.28,82.33 99.32,82.36 99.32,82.6 99.36,82.6 99.41,82.6 99.41,82.35 99.41,82.33 99.33,82.25 99.31,82.24 98,82.24 98,80.91 99.05,80.91 99.14,80.89 99.17,80.8 99.17,80.55 99.14,80.47 99.05,80.44 98,80.44 98,79.28 99.2,79.28 99.27,79.27 99.32,79.2 99.4,78.97 99.4,78.97 99.42,78.89 99.42,78.89 99.42,78.88 99.38,78.82 99.3,78.81 97.55,78.81 97.47,78.89 97.46,78.9 97.46,82.63 97.54,82.71 97.55,82.72 99.29,82.72 99.38,82.69 99.41,82.6 99.36,82.6 99.32,82.6 "
   id="polygon64" />
				<path
   class="st0"
   d="m 102.98,82.75 v -0.04 c -0.44,0 -0.73,-0.19 -0.93,-0.53 -0.2,-0.34 -0.29,-0.83 -0.29,-1.42 0,-0.59 0.09,-1.08 0.29,-1.42 0.2,-0.34 0.5,-0.52 0.93,-0.52 0.43,0 0.73,0.19 0.93,0.53 0.2,0.34 0.29,0.83 0.29,1.42 0,0.59 -0.09,1.08 -0.29,1.42 -0.2,0.34 -0.5,0.53 -0.93,0.53 v 0.03 0.04 c 0.46,0 0.79,-0.21 1,-0.57 0.21,-0.36 0.3,-0.87 0.3,-1.46 0,-0.6 -0.09,-1.1 -0.3,-1.46 -0.21,-0.36 -0.54,-0.57 -1,-0.57 -0.46,0 -0.79,0.21 -1,0.57 -0.21,0.36 -0.3,0.86 -0.3,1.46 0,0.6 0.09,1.1 0.3,1.46 0.21,0.36 0.54,0.57 1.01,0.57 v -0.04 z m 0.76,-1.99 h 0.04 c 0,-0.49 -0.03,-0.89 -0.15,-1.19 -0.11,-0.29 -0.33,-0.47 -0.65,-0.47 -0.33,0 -0.54,0.18 -0.65,0.47 -0.12,0.29 -0.15,0.7 -0.15,1.19 0,0.49 0.03,0.9 0.15,1.19 0.11,0.29 0.33,0.47 0.66,0.47 0.33,0 0.54,-0.18 0.66,-0.47 0.11,-0.29 0.15,-0.7 0.15,-1.19 h -0.06 -0.04 c 0,0.49 -0.03,0.89 -0.14,1.16 -0.11,0.27 -0.28,0.41 -0.58,0.42 -0.3,0 -0.47,-0.14 -0.58,-0.42 -0.11,-0.27 -0.14,-0.67 -0.14,-1.16 0,-0.48 0.04,-0.88 0.14,-1.16 0.11,-0.27 0.28,-0.41 0.57,-0.42 0.3,0 0.46,0.14 0.57,0.42 0.11,0.27 0.14,0.67 0.14,1.16 z"
   id="path66" />
				<path
   class="st0"
   d="m 107.39,82.59 -0.04,0.01 0.01,0.03 -0.03,0.02 -0.33,0.06 -0.06,-0.03 -0.93,-1.79 h -0.43 -0.04 v 1.7 l -0.04,0.04 h -0.29 l -0.04,-0.04 v -3.66 l 0.04,-0.04 h 0.85 c 0.21,0 0.49,0.01 0.71,0.13 0.22,0.12 0.38,0.36 0.38,0.84 0,0.59 -0.41,0.89 -0.71,0.99 l -0.05,0.02 0.95,1.74 0.05,-0.02 -0.04,0.01 0.04,-0.01 0.04,-0.02 -0.93,-1.69 -0.04,0.02 0.01,0.04 c 0.32,-0.1 0.77,-0.43 0.77,-1.07 0,-0.5 -0.18,-0.78 -0.43,-0.92 -0.24,-0.14 -0.53,-0.14 -0.75,-0.14 h -0.88 l -0.08,0.08 -0.01,0.01 v 3.73 l 0.08,0.08 0.01,0.01 h 0.34 0.02 l 0.08,-0.08 0.01,-0.01 v -1.65 h 0.33 l 0.92,1.76 0.1,0.05 0.01,0.01 0.37,-0.07 h 0.01 l 0.07,-0.04 0.03,-0.02 -0.03,-0.09 v 0 0 z m -1.44,-2.02 v 0.04 c 0.21,0 0.41,-0.02 0.57,-0.13 0.16,-0.11 0.26,-0.3 0.26,-0.61 0,-0.32 -0.11,-0.5 -0.26,-0.59 -0.15,-0.09 -0.34,-0.09 -0.5,-0.09 h -0.43 -0.04 v 1.41 h 0.4 v -0.03 -0.04 h -0.32 v -1.24 h 0.39 c 0.16,0 0.33,0.01 0.46,0.08 0.12,0.07 0.22,0.21 0.22,0.51 0,0.29 -0.09,0.45 -0.22,0.54 -0.13,0.09 -0.32,0.12 -0.53,0.11 z"
   id="path68" />
				<polygon
   class="st0"
   points="109.41,82.63 107.97,82.63 107.93,82.59 107.93,82.4 107.97,82.36 108.46,82.36 108.5,82.36 108.5,79.17 107.97,79.17 107.93,79.13 107.93,78.93 107.97,78.89 109.41,78.89 109.45,78.94 109.45,79.13 109.41,79.17 108.92,79.17 108.88,79.17 108.88,82.36 109.41,82.36 109.45,82.4 109.45,82.61 109.49,82.61 109.46,82.58 109.49,82.61 109.54,82.61 109.54,82.38 109.54,82.36 109.46,82.28 109.44,82.27 108.96,82.27 108.96,79.26 109.43,79.26 109.44,79.26 109.52,79.18 109.54,79.16 109.54,78.92 109.54,78.9 109.46,78.82 109.44,78.81 107.94,78.81 107.86,78.89 107.84,78.9 107.84,79.15 107.84,79.16 107.92,79.24 107.94,79.26 108.42,79.26 108.42,82.27 107.95,82.27 107.94,82.27 107.86,82.35 107.84,82.36 107.84,82.61 107.84,82.63 107.92,82.71 107.94,82.72 109.44,82.72 109.52,82.64 109.54,82.63 109.54,82.61 109.49,82.61 109.46,82.58 "
   id="polygon70" />
				<path
   class="st0"
   d="m 112.35,82.31 h -0.04 c 0,0.07 0,0.12 -0.01,0.14 l -0.05,0.05 c -0.2,0.11 -0.55,0.2 -0.88,0.2 -0.48,0 -0.8,-0.21 -1,-0.56 -0.21,-0.35 -0.29,-0.85 -0.29,-1.43 0,-0.53 0.09,-1.01 0.3,-1.35 0.21,-0.35 0.53,-0.56 1.01,-0.56 0.25,0 0.48,0.06 0.64,0.14 0.08,0.04 0.15,0.08 0.19,0.11 l 0.05,0.04 0.01,0.01 v 0 h 0.01 -0.01 v 0 h 0.01 -0.01 0.04 l -0.04,-0.02 -0.03,0.07 -0.08,0.15 -0.07,0.07 0.03,0.03 v -0.04 0.02 -0.02 0 0.02 -0.02 l -0.07,-0.04 c -0.11,-0.08 -0.33,-0.23 -0.67,-0.23 -0.32,0 -0.56,0.16 -0.7,0.43 -0.14,0.27 -0.2,0.66 -0.2,1.14 0,0.52 0.06,0.95 0.2,1.26 0.14,0.31 0.37,0.49 0.69,0.49 0.26,0 0.42,-0.06 0.53,-0.11 l 0.02,-0.01 v -1.24 h -0.47 l -0.04,-0.04 v -0.19 l 0.04,-0.04 h 0.8 l 0.04,0.04 v 1.49 h 0.05 0.04 v -1.53 l -0.08,-0.08 -0.01,-0.01 h -0.87 l -0.08,0.08 -0.01,0.01 v 0.25 0.02 l 0.08,0.08 0.01,0.01 h 0.42 v 1.13 h 0.04 l -0.02,-0.04 c -0.1,0.05 -0.24,0.1 -0.5,0.1 -0.29,0 -0.48,-0.15 -0.61,-0.44 -0.13,-0.29 -0.19,-0.71 -0.19,-1.22 0,-0.47 0.06,-0.84 0.2,-1.1 0.13,-0.25 0.33,-0.38 0.62,-0.39 0.21,0 0.38,0.07 0.49,0.13 0.06,0.03 0.1,0.07 0.14,0.09 l 0.1,0.05 h 0.02 l 0.08,-0.09 v 0 l 0.09,-0.16 v 0 l 0.03,-0.08 V 79.11 79.1 c -0.01,-0.05 -0.04,-0.08 -0.09,-0.12 -0.15,-0.11 -0.48,-0.26 -0.88,-0.26 -0.5,0 -0.86,0.23 -1.08,0.6 -0.22,0.37 -0.31,0.86 -0.31,1.4 0,0.58 0.09,1.1 0.31,1.47 0.22,0.37 0.57,0.6 1.08,0.6 0.35,0 0.71,-0.09 0.93,-0.21 l 0.09,-0.11 c 0.01,-0.05 0.01,-0.09 0.01,-0.17 h -0.05 z"
   id="path72" />
				<polygon
   class="st0"
   points="114.6,82.63 113.16,82.63 113.12,82.59 113.12,82.4 113.16,82.36 113.65,82.36 113.69,82.36 113.69,79.17 113.16,79.17 113.12,79.13 113.12,78.94 113.16,78.89 114.6,78.89 114.64,78.94 114.64,79.13 114.6,79.17 114.11,79.17 114.07,79.17 114.07,82.36 114.6,82.36 114.64,82.4 114.64,82.61 114.68,82.61 114.65,82.58 114.68,82.61 114.72,82.61 114.72,82.38 114.72,82.36 114.64,82.28 114.63,82.27 114.15,82.27 114.15,79.26 114.61,79.26 114.63,79.26 114.71,79.18 114.72,79.16 114.72,78.92 114.72,78.9 114.64,78.82 114.63,78.81 113.12,78.81 113.04,78.89 113.03,78.9 113.03,79.15 113.03,79.16 113.11,79.24 113.12,79.26 113.61,79.26 113.61,82.27 113.14,82.27 113.12,82.27 113.04,82.35 113.03,82.36 113.03,82.61 113.03,82.63 113.11,82.71 113.12,82.72 114.63,82.72 114.71,82.64 114.72,82.63 114.72,82.61 114.68,82.61 114.65,82.58 "
   id="polygon74" />
				<path
   class="st0"
   d="m 117.77,82.61 -0.03,-0.03 -0.05,0.05 h -0.28 l -0.07,-0.04 -1.28,-2.75 c -0.07,-0.14 -0.12,-0.32 -0.15,-0.48 l -0.01,-0.08 -0.07,0.07 -0.02,0.02 v 0.02 c 0.04,0.21 0.06,0.37 0.06,0.49 v 2.71 l -0.04,0.04 h -0.26 l -0.04,-0.04 v -3.66 l 0.04,-0.04 h 0.35 l 0.06,0.04 1.23,2.59 c 0.06,0.13 0.08,0.25 0.13,0.42 l 0.02,0.07 0.06,-0.07 0.01,-0.01 v -0.02 c -0.02,-0.12 -0.05,-0.24 -0.05,-0.33 v -2.65 l 0.04,-0.04 h 0.26 l 0.04,0.04 v 3.67 h 0.05 l -0.03,-0.03 0.03,0.04 h 0.04 V 78.9 l -0.08,-0.08 -0.01,-0.01 h -0.31 -0.02 l -0.08,0.08 -0.01,0.01 v 2.68 c 0,0.11 0.04,0.23 0.05,0.35 l 0.04,-0.01 -0.03,-0.03 -0.01,0.01 0.03,0.03 0.04,-0.01 c -0.05,-0.16 -0.07,-0.29 -0.14,-0.44 l -1.24,-2.61 -0.1,-0.06 -0.01,-0.01 h -0.39 -0.02 l -0.08,0.08 -0.01,0.01 v 3.73 l 0.08,0.08 0.01,0.01 h 0.31 0.02 l 0.08,-0.08 0.01,-0.01 v -2.74 c 0,-0.13 -0.01,-0.29 -0.06,-0.51 l -0.04,0.01 0.03,0.03 0.01,-0.01 -0.03,-0.03 -0.04,0.01 c 0.03,0.16 0.09,0.35 0.16,0.5 l 1.29,2.77 0.1,0.06 0.01,0.01 h 0.32 0.02 l 0.08,-0.08 0.01,-0.01 v -0.02 z"
   id="path76" />
				<path
   class="st0"
   d="m 121.26,82.55 -0.04,0.01 0.03,0.09 0.04,-0.01 h -0.04 0.01 l -0.01,-0.01 v 0.01 h 0.01 l -0.01,-0.01 0.01,0.01 -0.01,-0.02 -0.01,0.01 0.01,0.01 -0.01,-0.02 h -0.01 -0.03 -0.35 c -0.06,-0.01 -0.05,0 -0.06,-0.03 l -0.32,-1.11 h -1.21 l -0.29,1.11 c -0.01,0.02 0,0.02 -0.06,0.03 h -0.35 -0.04 l -0.01,0.01 0.01,-0.01 -0.01,-0.01 -0.01,0.01 0.01,-0.01 -0.01,0.01 h 0.01 v -0.01 l -0.01,0.01 h 0.01 -0.04 l 0.04,0.01 0.03,-0.09 1.12,-3.64 0.01,-0.03 v 0 0 0 0 0 0 h 0.03 0.33 0.03 v 0 l 0.01,0.03 0.04,-0.01 -0.04,0.01 1.12,3.64 0.07,0.01 0.04,-0.01 -1.12,-3.64 v 0 l -0.05,-0.08 -0.07,-0.01 h -0.33 l -0.08,0.02 -0.04,0.07 -1.12,3.64 -0.03,0.1 v 0.01 0.01 l 0.05,0.07 0.07,0.01 h 0.35 c 0.07,0.01 0.13,-0.04 0.14,-0.09 l 0.28,-1.05 h 1.08 l 0.3,1.05 c 0.01,0.05 0.07,0.1 0.14,0.09 h 0.35 l 0.08,-0.01 0.05,-0.07 v -0.01 l -0.03,-0.1 z m -1.25,-2.64 0.04,-0.01 c -0.05,-0.17 -0.1,-0.37 -0.13,-0.53 l -0.01,-0.04 h -0.05 -0.04 l -0.01,0.04 c -0.02,0.13 -0.08,0.38 -0.12,0.53 l -0.36,1.29 h 1.04 l -0.35,-1.29 -0.01,0.01 -0.04,0.01 0.32,1.18 h -0.82 l 0.33,-1.18 c 0.04,-0.15 0.09,-0.4 0.12,-0.54 l -0.04,-0.01 v 0.04 h 0.01 v -0.04 l -0.04,0.01 c 0.03,0.16 0.09,0.36 0.13,0.53 z"
   id="path78" />
				<polygon
   class="st0"
   points="123.97,82.35 123.96,82.39 123.88,82.59 123.82,82.63 122.16,82.63 122.12,82.59 122.12,78.93 122.16,78.89 122.45,78.89 122.49,78.93 122.49,82.33 123.95,82.33 123.95,82.28 123.93,82.32 123.95,82.28 123.95,82.24 122.58,82.24 122.58,78.9 122.5,78.82 122.49,78.81 122.14,78.81 122.12,78.81 122.05,78.89 122.03,78.9 122.03,82.63 122.11,82.71 122.12,82.72 123.84,82.72 123.94,82.65 123.95,82.64 124.04,82.42 124.04,82.42 124.06,82.34 124.07,82.31 123.97,82.25 123.96,82.24 123.95,82.24 123.95,82.28 123.93,82.32 "
   id="polygon80" />
			</g>
		</g>
	</g>
</g>
</svg>
