<?xml version="1.0" encoding="UTF-8"?> <svg xmlns="http://www.w3.org/2000/svg" id="nabuhanie_desen" width="64" height="64" viewBox="0 0 64 64"> <defs> <style> .cls-1 { fill: #fff; } .cls-2 { fill: none; stroke: #0e1f56; stroke-linecap: round; stroke-width: 2px; } .cls-2, .cls-3 { fill-rule: evenodd; } .cls-3 { fill: #0e1f56; } </style> </defs> <circle id="bg" class="cls-1" cx="32" cy="32" r="32"></circle> <path id="icon" class="cls-2" d="M10.887,19h4.889C21.925,19,26.052,17,32,17s10.719,3,16.333,3h4.777"></path> <path id="icon-2" data-name="icon" class="cls-3" d="M42.815,27.671c-1.344-1.8-2.757-2.641-4.445-2.641a10.334,10.334,0,0,0-3.178.685l-0.034.011a10.42,10.42,0,0,1-3.237.694,10.546,10.546,0,0,1-3.274-.72,10.447,10.447,0,0,0-3.2-.7c-1.7,0-3.076.856-4.34,2.693-1.989,2.881-.861,5.966.051,8.454a10.008,10.008,0,0,1,.789,2.942c0,4.053.86,10.911,4.08,10.911,2.2,0,2.883-2.547,3.484-4.8,0.636-2.373,1.187-4.052,2.493-4.052,1.124,0,1.554,1.087,2.149,3.694,0.518,2.277,1.16,5.111,3.87,5.111,3.78,0,4.075-8.319,4.075-10.869a10.1,10.1,0,0,1,.763-2.883l0.015-.043C43.774,33.616,44.9,30.456,42.815,27.671Zm-1.892,7.8-0.014.041a11.328,11.328,0,0,0-.883,3.571,26.605,26.605,0,0,1-.7,6.436C38.8,47.468,38.206,47.9,38.019,47.9c-0.831,0-1.23-.754-1.855-3.518C35.654,42.146,34.954,39.09,32,39.09c-2.991,0-3.858,3.223-4.493,5.587-0.347,1.3-.87,3.266-1.484,3.266-0.095,0-.7-0.412-1.245-2.37a25.37,25.37,0,0,1-.77-6.487,11.144,11.144,0,0,0-.918-3.654c-0.823-2.246-1.672-4.57-.283-6.579,1.091-1.586,1.944-1.8,2.635-1.8a8.91,8.91,0,0,1,2.554.6,12.267,12.267,0,0,0,3.924.825,12.337,12.337,0,0,0,3.881-.8l0.035-.011a8.748,8.748,0,0,1,2.533-.583c0.709,0,1.595.216,2.785,1.812C42.583,30.8,41.741,33.176,40.924,35.47Z"></path> </svg> 