<?xml version="1.0" encoding="utf-8"?>
<!-- Generator: Adobe Illustrator 24.3.0, SVG Export Plug-In . SVG Version: 6.00 Build 0)  -->
<svg version="1.1" id="_6_12" xmlns="http://www.w3.org/2000/svg" xmlns:xlink="http://www.w3.org/1999/xlink" x="0px" y="0px"
	 viewBox="0 0 386.1 580" style="enable-background:new 0 0 386.1 580;" xml:space="preserve">
<style type="text/css">
	.st0{fill-rule:evenodd;clip-rule:evenodd;fill:#F8C5C9;}
	.st1{fill-rule:evenodd;clip-rule:evenodd;fill:#FFFFFF;stroke:#000000;stroke-width:2;}
	.st2{fill-rule:evenodd;clip-rule:evenodd;fill:#FFFFFF;stroke:#000000;stroke-width:2;stroke-linecap:round;}
</style>
<path class="st0" d="M193.1,73.5v-44c0,0,83.5-3.8,137.5,69c40.3,54.3,65.7,132.3,51.7,157c-13.9,24.6-54.7,22.3-66,2.3
	c-9.1-16.1,0.8-48.7-13.2-83.2c-7.7-19.1-11.5-45.6-27.7-63.5C240.7,72.6,193.1,73.5,193.1,73.5z M193.1,73.5v-44
	c0,0-83.5-3.8-137.5,69c-40.3,54.3-65.7,132.3-51.7,157c13.9,24.6,54.7,22.3,66,2.3c9.1-16.1-2.4-49.4,13.2-83.2
	c10.9-23.6,11.5-45.6,27.6-63.5C145.5,72.6,193.1,73.5,193.1,73.5z"/>
<path class="st0" d="M193.1,506.5v46c0,0-83.5,3.8-137.5-69.1C15.3,429-10.1,349,3.9,324.2c13.9-24.6,54.7-22.3,66-2.4
	c9.1,16.1-0.8,48.7,13.2,83.3c7.7,19.1,11.5,45.6,27.6,63.5C145.5,507.4,193.1,506.5,193.1,506.5z M193.1,506.5v46
	c0,0,83.5,3.8,137.5-69.1c40.3-54.4,65.7-134.4,51.7-159.1c-13.9-24.6-54.7-22.3-66-2.4c-9.1,16.1,2.4,49.4-13.2,83.3
	c-10.9,23.7-11.5,45.6-27.7,63.5C240.7,507.4,193.1,506.5,193.1,506.5z"/>
<path class="st1" d="M224.4,28.1c25.3,2.2,29.7,15.7,18,27.4c-11.6,11.6-16.6,18.2-26.6,16.4c-10-1.9-15-11-19.3-21.5
	c-4.3-10.6-6.3-15.5,0.3-20C203.5,25.7,216.6,27.4,224.4,28.1z"/>
<path class="st2" d="M238.1,44.2c-3.4-2.8-7.7-4.4-12.2-4.5"/>
<path class="st1" d="M160.6,28.1c-25.3,2.2-29.7,15.7-18,27.4c11.6,11.6,16.6,18.2,26.6,16.4c10-1.9,15-11,19.3-21.5
	c4.3-10.6,6.3-15.5-0.3-20C181.5,25.7,168.5,27.4,160.6,28.1z"/>
<path class="st2" d="M146.9,43.1c3.4-2.8,7.7-4.4,12.2-4.5"/>
<path class="st1" d="M161.7,551.9c-25.3-2.2-29.7-15.7-18-27.4c11.6-11.6,16.6-18.2,26.6-16.4s15,11,19.3,21.6
	c4.3,10.7,6.3,15.5-0.3,20C182.6,554.3,169.6,552.6,161.7,551.9z"/>
<path class="st2" d="M148,535.8c3.4,2.8,7.7,4.4,12.2,4.5"/>
<path class="st1" d="M225.5,551.9c25.3-2.2,29.7-15.7,18-27.4C232,512.9,227,506.3,217,508.1s-15,11-19.3,21.6
	c-4.3,10.7-6.3,15.5,0.3,20C204.6,554.3,217.7,552.6,225.5,551.9z"/>
<path class="st2" d="M239.2,536.9c-3.4,2.8-7.7,4.4-12.2,4.5"/>
</svg>
