<?xml version="1.0" encoding="UTF-8"?> <svg xmlns="http://www.w3.org/2000/svg" id="vidavit_2" width="136" height="136" viewBox="0 0 136 136"> <defs> <style> .cls-1, .cls-2 { fill: none; stroke: #0e1f56; stroke-linecap: round; stroke-linejoin: round; stroke-width: 2px; } .cls-2 { fill-rule: evenodd; } </style> </defs> <circle class="cls-1" cx="68" cy="68" r="67"></circle> <path class="cls-2" d="M3609.95,2992l-3.2,5.61-34.51,40.73s-1.82,3.35,2.41,7.22,7.22,2.41,7.22,2.41l38.52-36.33,6.61-4.2Z" transform="translate(-3509 -2971)"></path> <path class="cls-2" d="M3608.75,2997.02l7.62,7.42" transform="translate(-3509 -2971)"></path> <path class="cls-2" d="M3567.52,3055.66l2.12-2.12,2.13,2.12A3.009,3.009,0,1,1,3567.52,3055.66Z" transform="translate(-3509 -2971)"></path> <path class="cls-2" d="M3572,3043l-3,5,4,4,5-4" transform="translate(-3509 -2971)"></path> <path class="cls-2" d="M3539,3061s21.42,1.77,26.43,2.8,6.67,2.92,7.22,4.81-0.2,4.32-1,4.61c-1.31.49-13.59-1.15-18.25-1.2s-28.4.98-28.4,0.98" transform="translate(-3509 -2971)"></path> <path class="cls-2" d="M3521.11,3059.39a28.974,28.974,0,0,1,6.02-3.61,50.087,50.087,0,0,1-3.61-12.03c-2.22-2.57-3.8-5.24-3.61-8.43a5.352,5.352,0,0,1,6.02-4.81c1.5,0.87,6.17,11.67,9.62,16.85s4.29,9.92,3.61,12.03-14.81,13.15-17.16,15.61" transform="translate(-3509 -2971)"></path> <path class="cls-2" d="M3512.49,3026.9c0.1-.03.21-0.07,0.32-0.1,4.56-1.45,12.03-3.43,14.12-4.71,2.13-1.32,5.62-3.79,8.42-3.61s3.63,3.82,2.41,7.22-6.23,6.9-9.63,8.42" transform="translate(-3509 -2971)"></path> <path class="cls-2" d="M3511.08,3041.42c1.84,1.57,1.87,2.05,4.42,4.73,4.12,4.32,5.54,3.75,6.02,7.22,0.44,3.18-4.52,14.63-4.52,14.63" transform="translate(-3509 -2971)"></path> <path class="cls-2" d="M3520.11,3039.93l-7.22,2.61" transform="translate(-3509 -2971)"></path> </svg> 