<?xml version="1.0" encoding="UTF-8"?>
<svg xmlns="http://www.w3.org/2000/svg" id="effectivnost" width="64" height="64" viewBox="0 0 64 64"> <defs> <style> .cls-1 { fill: #b9e2f7; } .cls-2 { fill: none; stroke: #fff; stroke-width: 2px; fill-rule: evenodd; } </style> </defs> <circle class="cls-1" cx="32" cy="32" r="32"/> <path id="Rounded_Rectangle_577" data-name="Rounded Rectangle 577" class="cls-2" d="M5779,2529h-8v8a1,1,0,0,1-1,1h-10a1,1,0,0,1-1-1v-8h-8a1,1,0,0,1-1-1v-10a1,1,0,0,1,1-1h8v-8a1,1,0,0,1,1-1h10a1,1,0,0,1,1,1v8h8a1,1,0,0,1,1,1v10A1,1,0,0,1,5779,2529Z" transform="translate(-5733 -2491)"/> </svg>